<?xml version="1.0" encoding="utf-8" standalone="no"?>
<!DOCTYPE svg PUBLIC "-//W3C//DTD SVG 1.1//EN"
  "http://www.w3.org/Graphics/SVG/1.1/DTD/svg11.dtd">
<svg xmlns:xlink="http://www.w3.org/1999/xlink" width="1296.75068pt" height="566.451607pt" viewBox="0 0 1296.75068 566.451607" xmlns="http://www.w3.org/2000/svg" version="1.1">
 <metadata>
  <rdf:RDF xmlns:dc="http://purl.org/dc/elements/1.1/" xmlns:cc="http://creativecommons.org/ns#" xmlns:rdf="http://www.w3.org/1999/02/22-rdf-syntax-ns#">
   <cc:Work>
    <dc:type rdf:resource="http://purl.org/dc/dcmitype/StillImage"/>
    <dc:date>2026-03-11T16:54:30.669427</dc:date>
    <dc:format>image/svg+xml</dc:format>
    <dc:creator>
     <cc:Agent>
      <dc:title>Matplotlib v3.10.8, https://matplotlib.org/</dc:title>
     </cc:Agent>
    </dc:creator>
   </cc:Work>
  </rdf:RDF>
 </metadata>
 <defs>
  <style type="text/css">*{stroke-linejoin: round; stroke-linecap: butt}</style>
 </defs>
 <g id="figure_1">
  <g id="patch_1">
   <path d="M 0 566.451607 
L 1296.75068 566.451607 
L 1296.75068 0 
L 0 0 
z
" style="fill: #ffffff"/>
  </g>
  <g id="axes_1">
   <g id="patch_2">
    <path d="M 92.054936 536.202232 
L 657.296589 536.202232 
L 657.296589 22.607832 
L 92.054936 22.607832 
z
" style="fill: #ffffff"/>
   </g>
   <g id="matplotlib.axis_1">
    <g id="xtick_1">
     <g id="text_1">
      <!-- Judge Models -->
      <g style="fill: #262626" transform="translate(122.547249 556.340044) scale(0.14 -0.14)">
       <defs>
        <path id="DejaVuSans-4a" d="M 628 4666 
L 1259 4666 
L 1259 325 
Q 1259 -519 939 -900 
Q 619 -1281 -91 -1281 
L -331 -1281 
L -331 -750 
L -134 -750 
Q 284 -750 456 -515 
Q 628 -281 628 325 
L 628 4666 
z
" transform="scale(0.015625)"/>
        <path id="DejaVuSans-75" d="M 544 1381 
L 544 3500 
L 1119 3500 
L 1119 1403 
Q 1119 906 1312 657 
Q 1506 409 1894 409 
Q 2359 409 2629 706 
Q 2900 1003 2900 1516 
L 2900 3500 
L 3475 3500 
L 3475 0 
L 2900 0 
L 2900 538 
Q 2691 219 2414 64 
Q 2138 -91 1772 -91 
Q 1169 -91 856 284 
Q 544 659 544 1381 
z
M 1991 3584 
L 1991 3584 
z
" transform="scale(0.015625)"/>
        <path id="DejaVuSans-64" d="M 2906 2969 
L 2906 4863 
L 3481 4863 
L 3481 0 
L 2906 0 
L 2906 525 
Q 2725 213 2448 61 
Q 2172 -91 1784 -91 
Q 1150 -91 751 415 
Q 353 922 353 1747 
Q 353 2572 751 3078 
Q 1150 3584 1784 3584 
Q 2172 3584 2448 3432 
Q 2725 3281 2906 2969 
z
M 947 1747 
Q 947 1113 1208 752 
Q 1469 391 1925 391 
Q 2381 391 2643 752 
Q 2906 1113 2906 1747 
Q 2906 2381 2643 2742 
Q 2381 3103 1925 3103 
Q 1469 3103 1208 2742 
Q 947 2381 947 1747 
z
" transform="scale(0.015625)"/>
        <path id="DejaVuSans-67" d="M 2906 1791 
Q 2906 2416 2648 2759 
Q 2391 3103 1925 3103 
Q 1463 3103 1205 2759 
Q 947 2416 947 1791 
Q 947 1169 1205 825 
Q 1463 481 1925 481 
Q 2391 481 2648 825 
Q 2906 1169 2906 1791 
z
M 3481 434 
Q 3481 -459 3084 -895 
Q 2688 -1331 1869 -1331 
Q 1566 -1331 1297 -1286 
Q 1028 -1241 775 -1147 
L 775 -588 
Q 1028 -725 1275 -790 
Q 1522 -856 1778 -856 
Q 2344 -856 2625 -561 
Q 2906 -266 2906 331 
L 2906 616 
Q 2728 306 2450 153 
Q 2172 0 1784 0 
Q 1141 0 747 490 
Q 353 981 353 1791 
Q 353 2603 747 3093 
Q 1141 3584 1784 3584 
Q 2172 3584 2450 3431 
Q 2728 3278 2906 2969 
L 2906 3500 
L 3481 3500 
L 3481 434 
z
" transform="scale(0.015625)"/>
        <path id="DejaVuSans-65" d="M 3597 1894 
L 3597 1613 
L 953 1613 
Q 991 1019 1311 708 
Q 1631 397 2203 397 
Q 2534 397 2845 478 
Q 3156 559 3463 722 
L 3463 178 
Q 3153 47 2828 -22 
Q 2503 -91 2169 -91 
Q 1331 -91 842 396 
Q 353 884 353 1716 
Q 353 2575 817 3079 
Q 1281 3584 2069 3584 
Q 2775 3584 3186 3129 
Q 3597 2675 3597 1894 
z
M 3022 2063 
Q 3016 2534 2758 2815 
Q 2500 3097 2075 3097 
Q 1594 3097 1305 2825 
Q 1016 2553 972 2059 
L 3022 2063 
z
" transform="scale(0.015625)"/>
        <path id="DejaVuSans-20" transform="scale(0.015625)"/>
        <path id="DejaVuSans-4d" d="M 628 4666 
L 1569 4666 
L 2759 1491 
L 3956 4666 
L 4897 4666 
L 4897 0 
L 4281 0 
L 4281 4097 
L 3078 897 
L 2444 897 
L 1241 4097 
L 1241 0 
L 628 0 
L 628 4666 
z
" transform="scale(0.015625)"/>
        <path id="DejaVuSans-6f" d="M 1959 3097 
Q 1497 3097 1228 2736 
Q 959 2375 959 1747 
Q 959 1119 1226 758 
Q 1494 397 1959 397 
Q 2419 397 2687 759 
Q 2956 1122 2956 1747 
Q 2956 2369 2687 2733 
Q 2419 3097 1959 3097 
z
M 1959 3584 
Q 2709 3584 3137 3096 
Q 3566 2609 3566 1747 
Q 3566 888 3137 398 
Q 2709 -91 1959 -91 
Q 1206 -91 779 398 
Q 353 888 353 1747 
Q 353 2609 779 3096 
Q 1206 3584 1959 3584 
z
" transform="scale(0.015625)"/>
        <path id="DejaVuSans-6c" d="M 603 4863 
L 1178 4863 
L 1178 0 
L 603 0 
L 603 4863 
z
" transform="scale(0.015625)"/>
        <path id="DejaVuSans-73" d="M 2834 3397 
L 2834 2853 
Q 2591 2978 2328 3040 
Q 2066 3103 1784 3103 
Q 1356 3103 1142 2972 
Q 928 2841 928 2578 
Q 928 2378 1081 2264 
Q 1234 2150 1697 2047 
L 1894 2003 
Q 2506 1872 2764 1633 
Q 3022 1394 3022 966 
Q 3022 478 2636 193 
Q 2250 -91 1575 -91 
Q 1294 -91 989 -36 
Q 684 19 347 128 
L 347 722 
Q 666 556 975 473 
Q 1284 391 1588 391 
Q 1994 391 2212 530 
Q 2431 669 2431 922 
Q 2431 1156 2273 1281 
Q 2116 1406 1581 1522 
L 1381 1569 
Q 847 1681 609 1914 
Q 372 2147 372 2553 
Q 372 3047 722 3315 
Q 1072 3584 1716 3584 
Q 2034 3584 2315 3537 
Q 2597 3491 2834 3397 
z
" transform="scale(0.015625)"/>
       </defs>
       <use xlink:href="#DejaVuSans-4a"/>
       <use xlink:href="#DejaVuSans-75" transform="translate(29.492188 0)"/>
       <use xlink:href="#DejaVuSans-64" transform="translate(92.871094 0)"/>
       <use xlink:href="#DejaVuSans-67" transform="translate(156.347656 0)"/>
       <use xlink:href="#DejaVuSans-65" transform="translate(219.824219 0)"/>
       <use xlink:href="#DejaVuSans-20" transform="translate(281.347656 0)"/>
       <use xlink:href="#DejaVuSans-4d" transform="translate(313.134766 0)"/>
       <use xlink:href="#DejaVuSans-6f" transform="translate(399.414062 0)"/>
       <use xlink:href="#DejaVuSans-64" transform="translate(460.595703 0)"/>
       <use xlink:href="#DejaVuSans-65" transform="translate(524.072266 0)"/>
       <use xlink:href="#DejaVuSans-6c" transform="translate(585.595703 0)"/>
       <use xlink:href="#DejaVuSans-73" transform="translate(613.378906 0)"/>
      </g>
     </g>
    </g>
    <g id="xtick_2">
     <g id="text_2">
      <!-- Pair Generators -->
      <g style="fill: #262626" transform="translate(320.239825 556.340044) scale(0.14 -0.14)">
       <defs>
        <path id="DejaVuSans-50" d="M 1259 4147 
L 1259 2394 
L 2053 2394 
Q 2494 2394 2734 2622 
Q 2975 2850 2975 3272 
Q 2975 3691 2734 3919 
Q 2494 4147 2053 4147 
L 1259 4147 
z
M 628 4666 
L 2053 4666 
Q 2838 4666 3239 4311 
Q 3641 3956 3641 3272 
Q 3641 2581 3239 2228 
Q 2838 1875 2053 1875 
L 1259 1875 
L 1259 0 
L 628 0 
L 628 4666 
z
" transform="scale(0.015625)"/>
        <path id="DejaVuSans-61" d="M 2194 1759 
Q 1497 1759 1228 1600 
Q 959 1441 959 1056 
Q 959 750 1161 570 
Q 1363 391 1709 391 
Q 2188 391 2477 730 
Q 2766 1069 2766 1631 
L 2766 1759 
L 2194 1759 
z
M 3341 1997 
L 3341 0 
L 2766 0 
L 2766 531 
Q 2569 213 2275 61 
Q 1981 -91 1556 -91 
Q 1019 -91 701 211 
Q 384 513 384 1019 
Q 384 1609 779 1909 
Q 1175 2209 1959 2209 
L 2766 2209 
L 2766 2266 
Q 2766 2663 2505 2880 
Q 2244 3097 1772 3097 
Q 1472 3097 1187 3025 
Q 903 2953 641 2809 
L 641 3341 
Q 956 3463 1253 3523 
Q 1550 3584 1831 3584 
Q 2591 3584 2966 3190 
Q 3341 2797 3341 1997 
z
" transform="scale(0.015625)"/>
        <path id="DejaVuSans-69" d="M 603 3500 
L 1178 3500 
L 1178 0 
L 603 0 
L 603 3500 
z
M 603 4863 
L 1178 4863 
L 1178 4134 
L 603 4134 
L 603 4863 
z
" transform="scale(0.015625)"/>
        <path id="DejaVuSans-72" d="M 2631 2963 
Q 2534 3019 2420 3045 
Q 2306 3072 2169 3072 
Q 1681 3072 1420 2755 
Q 1159 2438 1159 1844 
L 1159 0 
L 581 0 
L 581 3500 
L 1159 3500 
L 1159 2956 
Q 1341 3275 1631 3429 
Q 1922 3584 2338 3584 
Q 2397 3584 2469 3576 
Q 2541 3569 2628 3553 
L 2631 2963 
z
" transform="scale(0.015625)"/>
        <path id="DejaVuSans-47" d="M 3809 666 
L 3809 1919 
L 2778 1919 
L 2778 2438 
L 4434 2438 
L 4434 434 
Q 4069 175 3628 42 
Q 3188 -91 2688 -91 
Q 1594 -91 976 548 
Q 359 1188 359 2328 
Q 359 3472 976 4111 
Q 1594 4750 2688 4750 
Q 3144 4750 3555 4637 
Q 3966 4525 4313 4306 
L 4313 3634 
Q 3963 3931 3569 4081 
Q 3175 4231 2741 4231 
Q 1884 4231 1454 3753 
Q 1025 3275 1025 2328 
Q 1025 1384 1454 906 
Q 1884 428 2741 428 
Q 3075 428 3337 486 
Q 3600 544 3809 666 
z
" transform="scale(0.015625)"/>
        <path id="DejaVuSans-6e" d="M 3513 2113 
L 3513 0 
L 2938 0 
L 2938 2094 
Q 2938 2591 2744 2837 
Q 2550 3084 2163 3084 
Q 1697 3084 1428 2787 
Q 1159 2491 1159 1978 
L 1159 0 
L 581 0 
L 581 3500 
L 1159 3500 
L 1159 2956 
Q 1366 3272 1645 3428 
Q 1925 3584 2291 3584 
Q 2894 3584 3203 3211 
Q 3513 2838 3513 2113 
z
" transform="scale(0.015625)"/>
        <path id="DejaVuSans-74" d="M 1172 4494 
L 1172 3500 
L 2356 3500 
L 2356 3053 
L 1172 3053 
L 1172 1153 
Q 1172 725 1289 603 
Q 1406 481 1766 481 
L 2356 481 
L 2356 0 
L 1766 0 
Q 1100 0 847 248 
Q 594 497 594 1153 
L 594 3053 
L 172 3053 
L 172 3500 
L 594 3500 
L 594 4494 
L 1172 4494 
z
" transform="scale(0.015625)"/>
       </defs>
       <use xlink:href="#DejaVuSans-50"/>
       <use xlink:href="#DejaVuSans-61" transform="translate(55.802734 0)"/>
       <use xlink:href="#DejaVuSans-69" transform="translate(117.082031 0)"/>
       <use xlink:href="#DejaVuSans-72" transform="translate(144.865234 0)"/>
       <use xlink:href="#DejaVuSans-20" transform="translate(185.978516 0)"/>
       <use xlink:href="#DejaVuSans-47" transform="translate(217.765625 0)"/>
       <use xlink:href="#DejaVuSans-65" transform="translate(295.255859 0)"/>
       <use xlink:href="#DejaVuSans-6e" transform="translate(356.779297 0)"/>
       <use xlink:href="#DejaVuSans-65" transform="translate(420.158203 0)"/>
       <use xlink:href="#DejaVuSans-72" transform="translate(481.681641 0)"/>
       <use xlink:href="#DejaVuSans-61" transform="translate(522.794922 0)"/>
       <use xlink:href="#DejaVuSans-74" transform="translate(584.074219 0)"/>
       <use xlink:href="#DejaVuSans-6f" transform="translate(623.283203 0)"/>
       <use xlink:href="#DejaVuSans-72" transform="translate(684.464844 0)"/>
       <use xlink:href="#DejaVuSans-73" transform="translate(725.578125 0)"/>
      </g>
     </g>
    </g>
    <g id="xtick_3">
     <g id="text_3">
      <!-- Pure Respondents -->
      <g style="fill: #262626" transform="translate(517.187557 556.340044) scale(0.14 -0.14)">
       <defs>
        <path id="DejaVuSans-52" d="M 2841 2188 
Q 3044 2119 3236 1894 
Q 3428 1669 3622 1275 
L 4263 0 
L 3584 0 
L 2988 1197 
Q 2756 1666 2539 1819 
Q 2322 1972 1947 1972 
L 1259 1972 
L 1259 0 
L 628 0 
L 628 4666 
L 2053 4666 
Q 2853 4666 3247 4331 
Q 3641 3997 3641 3322 
Q 3641 2881 3436 2590 
Q 3231 2300 2841 2188 
z
M 1259 4147 
L 1259 2491 
L 2053 2491 
Q 2509 2491 2742 2702 
Q 2975 2913 2975 3322 
Q 2975 3731 2742 3939 
Q 2509 4147 2053 4147 
L 1259 4147 
z
" transform="scale(0.015625)"/>
        <path id="DejaVuSans-70" d="M 1159 525 
L 1159 -1331 
L 581 -1331 
L 581 3500 
L 1159 3500 
L 1159 2969 
Q 1341 3281 1617 3432 
Q 1894 3584 2278 3584 
Q 2916 3584 3314 3078 
Q 3713 2572 3713 1747 
Q 3713 922 3314 415 
Q 2916 -91 2278 -91 
Q 1894 -91 1617 61 
Q 1341 213 1159 525 
z
M 3116 1747 
Q 3116 2381 2855 2742 
Q 2594 3103 2138 3103 
Q 1681 3103 1420 2742 
Q 1159 2381 1159 1747 
Q 1159 1113 1420 752 
Q 1681 391 2138 391 
Q 2594 391 2855 752 
Q 3116 1113 3116 1747 
z
" transform="scale(0.015625)"/>
       </defs>
       <use xlink:href="#DejaVuSans-50"/>
       <use xlink:href="#DejaVuSans-75" transform="translate(58.552734 0)"/>
       <use xlink:href="#DejaVuSans-72" transform="translate(121.931641 0)"/>
       <use xlink:href="#DejaVuSans-65" transform="translate(160.794922 0)"/>
       <use xlink:href="#DejaVuSans-20" transform="translate(222.318359 0)"/>
       <use xlink:href="#DejaVuSans-52" transform="translate(254.105469 0)"/>
       <use xlink:href="#DejaVuSans-65" transform="translate(319.087891 0)"/>
       <use xlink:href="#DejaVuSans-73" transform="translate(380.611328 0)"/>
       <use xlink:href="#DejaVuSans-70" transform="translate(432.710938 0)"/>
       <use xlink:href="#DejaVuSans-6f" transform="translate(496.1875 0)"/>
       <use xlink:href="#DejaVuSans-6e" transform="translate(557.369141 0)"/>
       <use xlink:href="#DejaVuSans-64" transform="translate(620.748047 0)"/>
       <use xlink:href="#DejaVuSans-65" transform="translate(684.224609 0)"/>
       <use xlink:href="#DejaVuSans-6e" transform="translate(745.748047 0)"/>
       <use xlink:href="#DejaVuSans-74" transform="translate(809.126953 0)"/>
       <use xlink:href="#DejaVuSans-73" transform="translate(848.335938 0)"/>
      </g>
     </g>
    </g>
   </g>
   <g id="matplotlib.axis_2">
    <g id="ytick_1">
     <g id="line2d_1">
      <path d="M 92.054936 512.212107 
L 657.296589 512.212107 
" clip-path="url(#pb8a6c755d1)" style="fill: none; stroke-dasharray: 1,1.65; stroke-dashoffset: 0; stroke: #cccccc; stroke-opacity: 0.3"/>
     </g>
     <g id="text_4">
      <!-- 1 -->
      <g style="fill: #262626" transform="translate(73.647436 517.531014) scale(0.14 -0.14)">
       <defs>
        <path id="DejaVuSans-31" d="M 794 531 
L 1825 531 
L 1825 4091 
L 703 3866 
L 703 4441 
L 1819 4666 
L 2450 4666 
L 2450 531 
L 3481 531 
L 3481 0 
L 794 0 
L 794 531 
z
" transform="scale(0.015625)"/>
       </defs>
       <use xlink:href="#DejaVuSans-31"/>
      </g>
     </g>
    </g>
    <g id="ytick_2">
     <g id="line2d_2">
      <path d="M 92.054936 411.95845 
L 657.296589 411.95845 
" clip-path="url(#pb8a6c755d1)" style="fill: none; stroke-dasharray: 1,1.65; stroke-dashoffset: 0; stroke: #cccccc; stroke-opacity: 0.3"/>
     </g>
     <g id="text_5">
      <!-- 2 -->
      <g style="fill: #262626" transform="translate(73.647436 417.277356) scale(0.14 -0.14)">
       <defs>
        <path id="DejaVuSans-32" d="M 1228 531 
L 3431 531 
L 3431 0 
L 469 0 
L 469 531 
Q 828 903 1448 1529 
Q 2069 2156 2228 2338 
Q 2531 2678 2651 2914 
Q 2772 3150 2772 3378 
Q 2772 3750 2511 3984 
Q 2250 4219 1831 4219 
Q 1534 4219 1204 4116 
Q 875 4013 500 3803 
L 500 4441 
Q 881 4594 1212 4672 
Q 1544 4750 1819 4750 
Q 2544 4750 2975 4387 
Q 3406 4025 3406 3419 
Q 3406 3131 3298 2873 
Q 3191 2616 2906 2266 
Q 2828 2175 2409 1742 
Q 1991 1309 1228 531 
z
" transform="scale(0.015625)"/>
       </defs>
       <use xlink:href="#DejaVuSans-32"/>
      </g>
     </g>
    </g>
    <g id="ytick_3">
     <g id="line2d_3">
      <path d="M 92.054936 311.704792 
L 657.296589 311.704792 
" clip-path="url(#pb8a6c755d1)" style="fill: none; stroke-dasharray: 1,1.65; stroke-dashoffset: 0; stroke: #cccccc; stroke-opacity: 0.3"/>
     </g>
     <g id="text_6">
      <!-- 3 -->
      <g style="fill: #262626" transform="translate(73.647436 317.023698) scale(0.14 -0.14)">
       <defs>
        <path id="DejaVuSans-33" d="M 2597 2516 
Q 3050 2419 3304 2112 
Q 3559 1806 3559 1356 
Q 3559 666 3084 287 
Q 2609 -91 1734 -91 
Q 1441 -91 1130 -33 
Q 819 25 488 141 
L 488 750 
Q 750 597 1062 519 
Q 1375 441 1716 441 
Q 2309 441 2620 675 
Q 2931 909 2931 1356 
Q 2931 1769 2642 2001 
Q 2353 2234 1838 2234 
L 1294 2234 
L 1294 2753 
L 1863 2753 
Q 2328 2753 2575 2939 
Q 2822 3125 2822 3475 
Q 2822 3834 2567 4026 
Q 2313 4219 1838 4219 
Q 1578 4219 1281 4162 
Q 984 4106 628 3988 
L 628 4550 
Q 988 4650 1302 4700 
Q 1616 4750 1894 4750 
Q 2613 4750 3031 4423 
Q 3450 4097 3450 3541 
Q 3450 3153 3228 2886 
Q 3006 2619 2597 2516 
z
" transform="scale(0.015625)"/>
       </defs>
       <use xlink:href="#DejaVuSans-33"/>
      </g>
     </g>
    </g>
    <g id="ytick_4">
     <g id="line2d_4">
      <path d="M 92.054936 211.451134 
L 657.296589 211.451134 
" clip-path="url(#pb8a6c755d1)" style="fill: none; stroke-dasharray: 1,1.65; stroke-dashoffset: 0; stroke: #cccccc; stroke-opacity: 0.3"/>
     </g>
     <g id="text_7">
      <!-- 4 -->
      <g style="fill: #262626" transform="translate(73.647436 216.77004) scale(0.14 -0.14)">
       <defs>
        <path id="DejaVuSans-34" d="M 2419 4116 
L 825 1625 
L 2419 1625 
L 2419 4116 
z
M 2253 4666 
L 3047 4666 
L 3047 1625 
L 3713 1625 
L 3713 1100 
L 3047 1100 
L 3047 0 
L 2419 0 
L 2419 1100 
L 313 1100 
L 313 1709 
L 2253 4666 
z
" transform="scale(0.015625)"/>
       </defs>
       <use xlink:href="#DejaVuSans-34"/>
      </g>
     </g>
    </g>
    <g id="ytick_5">
     <g id="line2d_5">
      <path d="M 92.054936 111.197476 
L 657.296589 111.197476 
" clip-path="url(#pb8a6c755d1)" style="fill: none; stroke-dasharray: 1,1.65; stroke-dashoffset: 0; stroke: #cccccc; stroke-opacity: 0.3"/>
     </g>
     <g id="text_8">
      <!-- 5 -->
      <g style="fill: #262626" transform="translate(73.647436 116.516382) scale(0.14 -0.14)">
       <defs>
        <path id="DejaVuSans-35" d="M 691 4666 
L 3169 4666 
L 3169 4134 
L 1269 4134 
L 1269 2991 
Q 1406 3038 1543 3061 
Q 1681 3084 1819 3084 
Q 2600 3084 3056 2656 
Q 3513 2228 3513 1497 
Q 3513 744 3044 326 
Q 2575 -91 1722 -91 
Q 1428 -91 1123 -41 
Q 819 9 494 109 
L 494 744 
Q 775 591 1075 516 
Q 1375 441 1709 441 
Q 2250 441 2565 725 
Q 2881 1009 2881 1497 
Q 2881 1984 2565 2268 
Q 2250 2553 1709 2553 
Q 1456 2553 1204 2497 
Q 953 2441 691 2322 
L 691 4666 
z
" transform="scale(0.015625)"/>
       </defs>
       <use xlink:href="#DejaVuSans-35"/>
      </g>
     </g>
    </g>
    <g id="text_9">
     <!-- Chameleon Index (CI) -->
     <g style="fill: #262626" transform="translate(66.111967 382.25636) rotate(-90) scale(0.17 -0.17)">
      <defs>
       <path id="DejaVuSans-Bold-43" d="M 4288 256 
Q 3956 84 3597 -3 
Q 3238 -91 2847 -91 
Q 1681 -91 1000 561 
Q 319 1213 319 2328 
Q 319 3447 1000 4098 
Q 1681 4750 2847 4750 
Q 3238 4750 3597 4662 
Q 3956 4575 4288 4403 
L 4288 3438 
Q 3953 3666 3628 3772 
Q 3303 3878 2944 3878 
Q 2300 3878 1931 3465 
Q 1563 3053 1563 2328 
Q 1563 1606 1931 1193 
Q 2300 781 2944 781 
Q 3303 781 3628 887 
Q 3953 994 4288 1222 
L 4288 256 
z
" transform="scale(0.015625)"/>
       <path id="DejaVuSans-Bold-68" d="M 4056 2131 
L 4056 0 
L 2931 0 
L 2931 347 
L 2931 1625 
Q 2931 2084 2911 2256 
Q 2891 2428 2841 2509 
Q 2775 2619 2662 2680 
Q 2550 2741 2406 2741 
Q 2056 2741 1856 2470 
Q 1656 2200 1656 1722 
L 1656 0 
L 538 0 
L 538 4863 
L 1656 4863 
L 1656 2988 
Q 1909 3294 2193 3439 
Q 2478 3584 2822 3584 
Q 3428 3584 3742 3212 
Q 4056 2841 4056 2131 
z
" transform="scale(0.015625)"/>
       <path id="DejaVuSans-Bold-61" d="M 2106 1575 
Q 1756 1575 1579 1456 
Q 1403 1338 1403 1106 
Q 1403 894 1545 773 
Q 1688 653 1941 653 
Q 2256 653 2472 879 
Q 2688 1106 2688 1447 
L 2688 1575 
L 2106 1575 
z
M 3816 1997 
L 3816 0 
L 2688 0 
L 2688 519 
Q 2463 200 2181 54 
Q 1900 -91 1497 -91 
Q 953 -91 614 226 
Q 275 544 275 1050 
Q 275 1666 698 1953 
Q 1122 2241 2028 2241 
L 2688 2241 
L 2688 2328 
Q 2688 2594 2478 2717 
Q 2269 2841 1825 2841 
Q 1466 2841 1156 2769 
Q 847 2697 581 2553 
L 581 3406 
Q 941 3494 1303 3539 
Q 1666 3584 2028 3584 
Q 2975 3584 3395 3211 
Q 3816 2838 3816 1997 
z
" transform="scale(0.015625)"/>
       <path id="DejaVuSans-Bold-6d" d="M 3781 2919 
Q 3994 3244 4286 3414 
Q 4578 3584 4928 3584 
Q 5531 3584 5847 3212 
Q 6163 2841 6163 2131 
L 6163 0 
L 5038 0 
L 5038 1825 
Q 5041 1866 5042 1909 
Q 5044 1953 5044 2034 
Q 5044 2406 4934 2573 
Q 4825 2741 4581 2741 
Q 4263 2741 4089 2478 
Q 3916 2216 3909 1719 
L 3909 0 
L 2784 0 
L 2784 1825 
Q 2784 2406 2684 2573 
Q 2584 2741 2328 2741 
Q 2006 2741 1831 2477 
Q 1656 2213 1656 1722 
L 1656 0 
L 531 0 
L 531 3500 
L 1656 3500 
L 1656 2988 
Q 1863 3284 2130 3434 
Q 2397 3584 2719 3584 
Q 3081 3584 3359 3409 
Q 3638 3234 3781 2919 
z
" transform="scale(0.015625)"/>
       <path id="DejaVuSans-Bold-65" d="M 4031 1759 
L 4031 1441 
L 1416 1441 
Q 1456 1047 1700 850 
Q 1944 653 2381 653 
Q 2734 653 3104 758 
Q 3475 863 3866 1075 
L 3866 213 
Q 3469 63 3072 -14 
Q 2675 -91 2278 -91 
Q 1328 -91 801 392 
Q 275 875 275 1747 
Q 275 2603 792 3093 
Q 1309 3584 2216 3584 
Q 3041 3584 3536 3087 
Q 4031 2591 4031 1759 
z
M 2881 2131 
Q 2881 2450 2695 2645 
Q 2509 2841 2209 2841 
Q 1884 2841 1681 2658 
Q 1478 2475 1428 2131 
L 2881 2131 
z
" transform="scale(0.015625)"/>
       <path id="DejaVuSans-Bold-6c" d="M 538 4863 
L 1656 4863 
L 1656 0 
L 538 0 
L 538 4863 
z
" transform="scale(0.015625)"/>
       <path id="DejaVuSans-Bold-6f" d="M 2203 2784 
Q 1831 2784 1636 2517 
Q 1441 2250 1441 1747 
Q 1441 1244 1636 976 
Q 1831 709 2203 709 
Q 2569 709 2762 976 
Q 2956 1244 2956 1747 
Q 2956 2250 2762 2517 
Q 2569 2784 2203 2784 
z
M 2203 3584 
Q 3106 3584 3614 3096 
Q 4122 2609 4122 1747 
Q 4122 884 3614 396 
Q 3106 -91 2203 -91 
Q 1297 -91 786 396 
Q 275 884 275 1747 
Q 275 2609 786 3096 
Q 1297 3584 2203 3584 
z
" transform="scale(0.015625)"/>
       <path id="DejaVuSans-Bold-6e" d="M 4056 2131 
L 4056 0 
L 2931 0 
L 2931 347 
L 2931 1631 
Q 2931 2084 2911 2256 
Q 2891 2428 2841 2509 
Q 2775 2619 2662 2680 
Q 2550 2741 2406 2741 
Q 2056 2741 1856 2470 
Q 1656 2200 1656 1722 
L 1656 0 
L 538 0 
L 538 3500 
L 1656 3500 
L 1656 2988 
Q 1909 3294 2193 3439 
Q 2478 3584 2822 3584 
Q 3428 3584 3742 3212 
Q 4056 2841 4056 2131 
z
" transform="scale(0.015625)"/>
       <path id="DejaVuSans-Bold-20" transform="scale(0.015625)"/>
       <path id="DejaVuSans-Bold-49" d="M 588 4666 
L 1791 4666 
L 1791 0 
L 588 0 
L 588 4666 
z
" transform="scale(0.015625)"/>
       <path id="DejaVuSans-Bold-64" d="M 2919 2988 
L 2919 4863 
L 4044 4863 
L 4044 0 
L 2919 0 
L 2919 506 
Q 2688 197 2409 53 
Q 2131 -91 1766 -91 
Q 1119 -91 703 423 
Q 288 938 288 1747 
Q 288 2556 703 3070 
Q 1119 3584 1766 3584 
Q 2128 3584 2408 3439 
Q 2688 3294 2919 2988 
z
M 2181 722 
Q 2541 722 2730 984 
Q 2919 1247 2919 1747 
Q 2919 2247 2730 2509 
Q 2541 2772 2181 2772 
Q 1825 2772 1636 2509 
Q 1447 2247 1447 1747 
Q 1447 1247 1636 984 
Q 1825 722 2181 722 
z
" transform="scale(0.015625)"/>
       <path id="DejaVuSans-Bold-78" d="M 1422 1791 
L 159 3500 
L 1344 3500 
L 2059 2463 
L 2784 3500 
L 3969 3500 
L 2706 1797 
L 4031 0 
L 2847 0 
L 2059 1106 
L 1281 0 
L 97 0 
L 1422 1791 
z
" transform="scale(0.015625)"/>
       <path id="DejaVuSans-Bold-28" d="M 2413 -844 
L 1484 -844 
Q 1006 -72 778 623 
Q 550 1319 550 2003 
Q 550 2688 779 3389 
Q 1009 4091 1484 4856 
L 2413 4856 
Q 2013 4116 1813 3408 
Q 1613 2700 1613 2009 
Q 1613 1319 1811 609 
Q 2009 -100 2413 -844 
z
" transform="scale(0.015625)"/>
       <path id="DejaVuSans-Bold-29" d="M 513 -844 
Q 913 -100 1113 609 
Q 1313 1319 1313 2009 
Q 1313 2700 1113 3408 
Q 913 4116 513 4856 
L 1441 4856 
Q 1916 4091 2145 3389 
Q 2375 2688 2375 2003 
Q 2375 1319 2147 623 
Q 1919 -72 1441 -844 
L 513 -844 
z
" transform="scale(0.015625)"/>
      </defs>
      <use xlink:href="#DejaVuSans-Bold-43"/>
      <use xlink:href="#DejaVuSans-Bold-68" transform="translate(73.388672 0)"/>
      <use xlink:href="#DejaVuSans-Bold-61" transform="translate(144.580078 0)"/>
      <use xlink:href="#DejaVuSans-Bold-6d" transform="translate(212.060547 0)"/>
      <use xlink:href="#DejaVuSans-Bold-65" transform="translate(316.259766 0)"/>
      <use xlink:href="#DejaVuSans-Bold-6c" transform="translate(384.082031 0)"/>
      <use xlink:href="#DejaVuSans-Bold-65" transform="translate(418.359375 0)"/>
      <use xlink:href="#DejaVuSans-Bold-6f" transform="translate(486.181641 0)"/>
      <use xlink:href="#DejaVuSans-Bold-6e" transform="translate(554.882812 0)"/>
      <use xlink:href="#DejaVuSans-Bold-20" transform="translate(626.074219 0)"/>
      <use xlink:href="#DejaVuSans-Bold-49" transform="translate(660.888672 0)"/>
      <use xlink:href="#DejaVuSans-Bold-6e" transform="translate(698.095703 0)"/>
      <use xlink:href="#DejaVuSans-Bold-64" transform="translate(769.287109 0)"/>
      <use xlink:href="#DejaVuSans-Bold-65" transform="translate(840.869141 0)"/>
      <use xlink:href="#DejaVuSans-Bold-78" transform="translate(908.691406 0)"/>
      <use xlink:href="#DejaVuSans-Bold-20" transform="translate(973.193359 0)"/>
      <use xlink:href="#DejaVuSans-Bold-28" transform="translate(1008.007812 0)"/>
      <use xlink:href="#DejaVuSans-Bold-43" transform="translate(1053.710938 0)"/>
      <use xlink:href="#DejaVuSans-Bold-49" transform="translate(1127.099609 0)"/>
      <use xlink:href="#DejaVuSans-Bold-29" transform="translate(1164.306641 0)"/>
     </g>
    </g>
   </g>
   <g id="patch_3">
    <path d="M 117.747738 240.8907 
L 220.518948 240.8907 
L 220.518948 72.508316 
L 117.747738 72.508316 
L 117.747738 240.8907 
z
" clip-path="url(#pb8a6c755d1)" style="fill: #d25d51; opacity: 0.35; stroke: #4e4e4e; stroke-width: 1.5; stroke-linejoin: miter"/>
   </g>
   <g id="line2d_6">
    <path d="M 169.133343 240.8907 
L 169.133343 382.717799 
" clip-path="url(#pb8a6c755d1)" style="fill: none; stroke: #4e4e4e; stroke-width: 1.5"/>
   </g>
   <g id="line2d_7">
    <path d="M 169.133343 72.508316 
L 169.133343 45.953032 
" clip-path="url(#pb8a6c755d1)" style="fill: none; stroke: #4e4e4e; stroke-width: 1.5"/>
   </g>
   <g id="line2d_8">
    <path d="M 143.440541 382.717799 
L 194.826145 382.717799 
" clip-path="url(#pb8a6c755d1)" style="fill: none; stroke: #4e4e4e; stroke-width: 1.5; stroke-linecap: round"/>
   </g>
   <g id="line2d_9">
    <path d="M 143.440541 45.953032 
L 194.826145 45.953032 
" clip-path="url(#pb8a6c755d1)" style="fill: none; stroke: #4e4e4e; stroke-width: 1.5; stroke-linecap: round"/>
   </g>
   <g id="line2d_10"/>
   <g id="patch_4">
    <path d="M 323.290157 265.108722 
L 426.061367 265.108722 
L 426.061367 128.155064 
L 323.290157 128.155064 
L 323.290157 265.108722 
z
" clip-path="url(#pb8a6c755d1)" style="fill: #d7962e; opacity: 0.35; stroke: #4e4e4e; stroke-width: 1.5; stroke-linejoin: miter"/>
   </g>
   <g id="line2d_11">
    <path d="M 374.675762 265.108722 
L 374.675762 333.58555 
" clip-path="url(#pb8a6c755d1)" style="fill: none; stroke: #4e4e4e; stroke-width: 1.5"/>
   </g>
   <g id="line2d_12">
    <path d="M 374.675762 128.155064 
L 374.675762 59.678235 
" clip-path="url(#pb8a6c755d1)" style="fill: none; stroke: #4e4e4e; stroke-width: 1.5"/>
   </g>
   <g id="line2d_13">
    <path d="M 348.98296 333.58555 
L 400.368565 333.58555 
" clip-path="url(#pb8a6c755d1)" style="fill: none; stroke: #4e4e4e; stroke-width: 1.5; stroke-linecap: round"/>
   </g>
   <g id="line2d_14">
    <path d="M 348.98296 59.678235 
L 400.368565 59.678235 
" clip-path="url(#pb8a6c755d1)" style="fill: none; stroke: #4e4e4e; stroke-width: 1.5; stroke-linecap: round"/>
   </g>
   <g id="line2d_15"/>
   <g id="patch_5">
    <path d="M 528.832577 262.970375 
L 631.603786 262.970375 
L 631.603786 144.814278 
L 528.832577 144.814278 
L 528.832577 262.970375 
z
" clip-path="url(#pb8a6c755d1)" style="fill: #4994c6; opacity: 0.35; stroke: #4e4e4e; stroke-width: 1.5; stroke-linejoin: miter"/>
   </g>
   <g id="line2d_16">
    <path d="M 580.218182 262.970375 
L 580.218182 376.153572 
" clip-path="url(#pb8a6c755d1)" style="fill: none; stroke: #4e4e4e; stroke-width: 1.5"/>
   </g>
   <g id="line2d_17">
    <path d="M 580.218182 144.814278 
L 580.218182 48.53894 
" clip-path="url(#pb8a6c755d1)" style="fill: none; stroke: #4e4e4e; stroke-width: 1.5"/>
   </g>
   <g id="line2d_18">
    <path d="M 554.525379 376.153572 
L 605.910984 376.153572 
" clip-path="url(#pb8a6c755d1)" style="fill: none; stroke: #4e4e4e; stroke-width: 1.5; stroke-linecap: round"/>
   </g>
   <g id="line2d_19">
    <path d="M 554.525379 48.53894 
L 605.910984 48.53894 
" clip-path="url(#pb8a6c755d1)" style="fill: none; stroke: #4e4e4e; stroke-width: 1.5; stroke-linecap: round"/>
   </g>
   <g id="line2d_20"/>
   <g id="line2d_21">
    <path d="M 117.747738 99.063601 
L 220.518948 99.063601 
" clip-path="url(#pb8a6c755d1)" style="fill: none; stroke: #4e4e4e; stroke-width: 1.5"/>
   </g>
   <g id="line2d_22">
    <path d="M 323.290157 196.631893 
L 426.061367 196.631893 
" clip-path="url(#pb8a6c755d1)" style="fill: none; stroke: #4e4e4e; stroke-width: 1.5"/>
   </g>
   <g id="line2d_23">
    <path d="M 528.832577 218.313735 
L 631.603786 218.313735 
" clip-path="url(#pb8a6c755d1)" style="fill: none; stroke: #4e4e4e; stroke-width: 1.5"/>
   </g>
   <g id="patch_6">
    <path d="M 92.054936 536.202232 
L 92.054936 22.607832 
" style="fill: none; stroke: #cccccc; stroke-width: 1.25; stroke-linejoin: miter; stroke-linecap: square"/>
   </g>
   <g id="patch_7">
    <path d="M 657.296589 536.202232 
L 657.296589 22.607832 
" style="fill: none; stroke: #cccccc; stroke-width: 1.25; stroke-linejoin: miter; stroke-linecap: square"/>
   </g>
   <g id="patch_8">
    <path d="M 92.054936 536.202232 
L 657.296589 536.202232 
" style="fill: none; stroke: #cccccc; stroke-width: 1.25; stroke-linejoin: miter; stroke-linecap: square"/>
   </g>
   <g id="patch_9">
    <path d="M 92.054936 22.607832 
L 657.296589 22.607832 
" style="fill: none; stroke: #cccccc; stroke-width: 1.25; stroke-linejoin: miter; stroke-linecap: square"/>
   </g>
   <g id="PathCollection_1">
    <defs>
     <path id="C0_0_c8d0e5d347" d="M 0 5 
C 1.326016 5 2.597899 4.473168 3.535534 3.535534 
C 4.473168 2.597899 5 1.326016 5 -0 
C 5 -1.326016 4.473168 -2.597899 3.535534 -3.535534 
C 2.597899 -4.473168 1.326016 -5 0 -5 
C -1.326016 -5 -2.597899 -4.473168 -3.535534 -3.535534 
C -4.473168 -2.597899 -5 -1.326016 -5 0 
C -5 1.326016 -4.473168 2.597899 -3.535534 3.535534 
C -2.597899 4.473168 -1.326016 5 0 5 
z
"/>
    </defs>
    <g clip-path="url(#pb8a6c755d1)">
     <use xlink:href="#C0_0_c8d0e5d347" x="187.398385" y="382.717799" style="fill: #e74c3c; stroke: #ffffff; stroke-width: 0.8"/>
    </g>
    <g clip-path="url(#pb8a6c755d1)">
     <use xlink:href="#C0_0_c8d0e5d347" x="165.137972" y="45.953032" style="fill: #e74c3c; stroke: #ffffff; stroke-width: 0.8"/>
    </g>
    <g clip-path="url(#pb8a6c755d1)">
     <use xlink:href="#C0_0_c8d0e5d347" x="169.665906" y="99.063601" style="fill: #e74c3c; stroke: #ffffff; stroke-width: 0.8"/>
    </g>
   </g>
   <g id="PathCollection_2">
    <defs>
     <path id="C1_0_b7d3dc698c" d="M 0 5 
C 1.326016 5 2.597899 4.473168 3.535534 3.535534 
C 4.473168 2.597899 5 1.326016 5 -0 
C 5 -1.326016 4.473168 -2.597899 3.535534 -3.535534 
C 2.597899 -4.473168 1.326016 -5 0 -5 
C -1.326016 -5 -2.597899 -4.473168 -3.535534 -3.535534 
C -4.473168 -2.597899 -5 -1.326016 -5 0 
C -5 1.326016 -4.473168 2.597899 -3.535534 3.535534 
C -2.597899 4.473168 -1.326016 5 0 5 
z
"/>
    </defs>
    <g clip-path="url(#pb8a6c755d1)">
     <use xlink:href="#C1_0_b7d3dc698c" x="372.566982" y="333.58555" style="fill: #f39c12; stroke: #ffffff; stroke-width: 0.8"/>
    </g>
    <g clip-path="url(#pb8a6c755d1)">
     <use xlink:href="#C1_0_b7d3dc698c" x="377.103604" y="59.678235" style="fill: #f39c12; stroke: #ffffff; stroke-width: 0.8"/>
    </g>
   </g>
   <g id="PathCollection_3">
    <defs>
     <path id="C2_0_4f552c6458" d="M 0 5 
C 1.326016 5 2.597899 4.473168 3.535534 3.535534 
C 4.473168 2.597899 5 1.326016 5 -0 
C 5 -1.326016 4.473168 -2.597899 3.535534 -3.535534 
C 2.597899 -4.473168 1.326016 -5 0 -5 
C -1.326016 -5 -2.597899 -4.473168 -3.535534 -3.535534 
C -4.473168 -2.597899 -5 -1.326016 -5 0 
C -5 1.326016 -4.473168 2.597899 -3.535534 3.535534 
C -2.597899 4.473168 -1.326016 5 0 5 
z
"/>
    </defs>
    <g clip-path="url(#pb8a6c755d1)">
     <use xlink:href="#C2_0_4f552c6458" x="593.168225" y="261.577963" style="fill: #3498db; stroke: #ffffff; stroke-width: 0.8"/>
    </g>
    <g clip-path="url(#pb8a6c755d1)">
     <use xlink:href="#C2_0_4f552c6458" x="581.233164" y="113.385552" style="fill: #3498db; stroke: #ffffff; stroke-width: 0.8"/>
    </g>
    <g clip-path="url(#pb8a6c755d1)">
     <use xlink:href="#C2_0_4f552c6458" x="555.588758" y="251.035415" style="fill: #3498db; stroke: #ffffff; stroke-width: 0.8"/>
    </g>
    <g clip-path="url(#pb8a6c755d1)">
     <use xlink:href="#C2_0_4f552c6458" x="593.57877" y="149.787178" style="fill: #3498db; stroke: #ffffff; stroke-width: 0.8"/>
    </g>
    <g clip-path="url(#pb8a6c755d1)">
     <use xlink:href="#C2_0_4f552c6458" x="591.589252" y="205.68257" style="fill: #3498db; stroke: #ffffff; stroke-width: 0.8"/>
    </g>
    <g clip-path="url(#pb8a6c755d1)">
     <use xlink:href="#C2_0_4f552c6458" x="570.966581" y="307.527556" style="fill: #3498db; stroke: #ffffff; stroke-width: 0.8"/>
    </g>
    <g clip-path="url(#pb8a6c755d1)">
     <use xlink:href="#C2_0_4f552c6458" x="601.371442" y="48.53894" style="fill: #3498db; stroke: #ffffff; stroke-width: 0.8"/>
    </g>
    <g clip-path="url(#pb8a6c755d1)">
     <use xlink:href="#C2_0_4f552c6458" x="591.24672" y="230.944901" style="fill: #3498db; stroke: #ffffff; stroke-width: 0.8"/>
    </g>
    <g clip-path="url(#pb8a6c755d1)">
     <use xlink:href="#C2_0_4f552c6458" x="586.485319" y="123.132435" style="fill: #3498db; stroke: #ffffff; stroke-width: 0.8"/>
    </g>
    <g clip-path="url(#pb8a6c755d1)">
     <use xlink:href="#C2_0_4f552c6458" x="579.792639" y="512.857032" style="fill: #3498db; stroke: #ffffff; stroke-width: 0.8"/>
    </g>
    <g clip-path="url(#pb8a6c755d1)">
     <use xlink:href="#C2_0_4f552c6458" x="580.085161" y="376.153572" style="fill: #3498db; stroke: #ffffff; stroke-width: 0.8"/>
    </g>
    <g clip-path="url(#pb8a6c755d1)">
     <use xlink:href="#C2_0_4f552c6458" x="556.170524" y="191.559535" style="fill: #3498db; stroke: #ffffff; stroke-width: 0.8"/>
    </g>
    <g clip-path="url(#pb8a6c755d1)">
     <use xlink:href="#C2_0_4f552c6458" x="598.299473" y="267.14761" style="fill: #3498db; stroke: #ffffff; stroke-width: 0.8"/>
    </g>
    <g clip-path="url(#pb8a6c755d1)">
     <use xlink:href="#C2_0_4f552c6458" x="578.693718" y="129.895579" style="fill: #3498db; stroke: #ffffff; stroke-width: 0.8"/>
    </g>
    <g clip-path="url(#pb8a6c755d1)">
     <use xlink:href="#C2_0_4f552c6458" x="604.087625" y="180.217707" style="fill: #3498db; stroke: #ffffff; stroke-width: 0.8"/>
    </g>
    <g clip-path="url(#pb8a6c755d1)">
     <use xlink:href="#C2_0_4f552c6458" x="570.134128" y="259.190971" style="fill: #3498db; stroke: #ffffff; stroke-width: 0.8"/>
    </g>
   </g>
   <g id="patch_10">
    <path d="M 176.644759 381.986265 
Q 173.884827 382.255054 171.124895 382.523843 
" style="fill: none; stroke: #e74c3c; stroke-width: 0.7; stroke-linecap: round"/>
   </g>
   <g id="text_10">
    <!-- DeepSeek-V3.2 -->
    <g style="fill: #e74c3c" transform="translate(181.133343 380.717799) scale(0.085 -0.085)">
     <defs>
      <path id="DejaVuSans-Oblique-44" d="M 1081 4666 
L 2438 4666 
Q 3519 4666 4070 4208 
Q 4622 3750 4622 2847 
Q 4622 2250 4412 1698 
Q 4203 1147 3834 769 
Q 3463 381 2891 190 
Q 2319 0 1538 0 
L 172 0 
L 1081 4666 
z
M 1613 4147 
L 909 519 
L 1734 519 
Q 2794 519 3375 1128 
Q 3956 1738 3956 2847 
Q 3956 3519 3581 3833 
Q 3206 4147 2406 4147 
L 1613 4147 
z
" transform="scale(0.015625)"/>
      <path id="DejaVuSans-Oblique-65" d="M 3078 2063 
Q 3088 2113 3092 2166 
Q 3097 2219 3097 2272 
Q 3097 2653 2873 2875 
Q 2650 3097 2266 3097 
Q 1838 3097 1509 2826 
Q 1181 2556 1013 2059 
L 3078 2063 
z
M 3578 1613 
L 903 1613 
Q 884 1494 878 1425 
Q 872 1356 872 1306 
Q 872 872 1139 634 
Q 1406 397 1894 397 
Q 2269 397 2603 481 
Q 2938 566 3225 728 
L 3116 159 
Q 2806 34 2476 -28 
Q 2147 -91 1806 -91 
Q 1078 -91 686 257 
Q 294 606 294 1247 
Q 294 1794 489 2264 
Q 684 2734 1063 3103 
Q 1306 3334 1642 3459 
Q 1978 3584 2356 3584 
Q 2950 3584 3301 3228 
Q 3653 2872 3653 2272 
Q 3653 2128 3634 1964 
Q 3616 1800 3578 1613 
z
" transform="scale(0.015625)"/>
      <path id="DejaVuSans-Oblique-70" d="M 3175 2156 
Q 3175 2616 2975 2859 
Q 2775 3103 2400 3103 
Q 2144 3103 1911 2972 
Q 1678 2841 1497 2591 
Q 1319 2344 1212 1994 
Q 1106 1644 1106 1300 
Q 1106 863 1306 627 
Q 1506 391 1875 391 
Q 2147 391 2380 519 
Q 2613 647 2778 891 
Q 2956 1147 3065 1494 
Q 3175 1841 3175 2156 
z
M 1394 2969 
Q 1625 3272 1939 3428 
Q 2253 3584 2638 3584 
Q 3175 3584 3472 3232 
Q 3769 2881 3769 2247 
Q 3769 1728 3584 1258 
Q 3400 788 3053 416 
Q 2822 169 2531 39 
Q 2241 -91 1919 -91 
Q 1547 -91 1294 64 
Q 1041 219 916 525 
L 556 -1331 
L -19 -1331 
L 922 3500 
L 1497 3500 
L 1394 2969 
z
" transform="scale(0.015625)"/>
      <path id="DejaVuSans-Oblique-53" d="M 3859 4513 
L 3738 3897 
Q 3422 4066 3111 4152 
Q 2800 4238 2509 4238 
Q 1944 4238 1609 3991 
Q 1275 3744 1275 3334 
Q 1275 3109 1398 2989 
Q 1522 2869 2034 2731 
L 2413 2638 
Q 3053 2472 3303 2217 
Q 3553 1963 3553 1503 
Q 3553 797 2998 353 
Q 2444 -91 1538 -91 
Q 1166 -91 791 -17 
Q 416 56 38 206 
L 166 856 
Q 513 641 861 531 
Q 1209 422 1556 422 
Q 2147 422 2503 684 
Q 2859 947 2859 1369 
Q 2859 1650 2717 1795 
Q 2575 1941 2106 2059 
L 1728 2156 
Q 1081 2325 845 2545 
Q 609 2766 609 3163 
Q 609 3859 1145 4304 
Q 1681 4750 2541 4750 
Q 2875 4750 3203 4690 
Q 3531 4631 3859 4513 
z
" transform="scale(0.015625)"/>
      <path id="DejaVuSans-Oblique-6b" d="M 1172 4863 
L 1747 4863 
L 1197 2028 
L 3169 3500 
L 3916 3500 
L 1716 1825 
L 3322 0 
L 2625 0 
L 1131 1709 
L 800 0 
L 225 0 
L 1172 4863 
z
" transform="scale(0.015625)"/>
      <path id="DejaVuSans-Oblique-2d" d="M 391 2009 
L 2075 2009 
L 1978 1497 
L 288 1497 
L 391 2009 
z
" transform="scale(0.015625)"/>
      <path id="DejaVuSans-Oblique-56" d="M 1319 0 
L 500 4666 
L 1119 4666 
L 1797 653 
L 4063 4666 
L 4750 4666 
L 2053 0 
L 1319 0 
z
" transform="scale(0.015625)"/>
      <path id="DejaVuSans-Oblique-33" d="M 1013 4550 
Q 1356 4650 1679 4700 
Q 2003 4750 2316 4750 
Q 2934 4750 3296 4475 
Q 3659 4200 3659 3738 
Q 3659 3284 3373 2959 
Q 3088 2634 2584 2516 
Q 2978 2403 3162 2165 
Q 3347 1928 3347 1538 
Q 3347 1163 3167 834 
Q 2988 506 2650 269 
Q 2394 88 2037 -1 
Q 1681 -91 1216 -91 
Q 922 -91 622 -33 
Q 322 25 13 141 
L 128 738 
Q 422 575 720 495 
Q 1019 416 1331 416 
Q 1947 416 2330 733 
Q 2713 1050 2713 1556 
Q 2713 1881 2469 2057 
Q 2225 2234 1772 2234 
L 1228 2234 
L 1325 2747 
L 1900 2747 
Q 2419 2747 2717 2984 
Q 3016 3222 3016 3628 
Q 3016 3922 2797 4083 
Q 2578 4244 2181 4244 
Q 1881 4244 1567 4180 
Q 1253 4116 916 3988 
L 1013 4550 
z
" transform="scale(0.015625)"/>
      <path id="DejaVuSans-Oblique-2e" d="M 525 794 
L 1184 794 
L 1031 0 
L 372 0 
L 525 794 
z
" transform="scale(0.015625)"/>
      <path id="DejaVuSans-Oblique-32" d="M 2950 2253 
L 934 525 
L 3163 525 
L 3053 0 
L 25 0 
L 128 531 
L 2234 2338 
Q 2656 2703 2832 2979 
Q 3009 3256 3009 3547 
Q 3009 3850 2796 4040 
Q 2584 4231 2241 4231 
Q 1944 4231 1581 4125 
Q 1219 4019 806 3816 
L 922 4441 
Q 1309 4594 1662 4672 
Q 2016 4750 2316 4750 
Q 2928 4750 3301 4425 
Q 3675 4100 3675 3572 
Q 3675 3216 3497 2892 
Q 3319 2569 2950 2253 
z
" transform="scale(0.015625)"/>
     </defs>
     <use xlink:href="#DejaVuSans-Oblique-44"/>
     <use xlink:href="#DejaVuSans-Oblique-65" transform="translate(77.001953 0)"/>
     <use xlink:href="#DejaVuSans-Oblique-65" transform="translate(138.525391 0)"/>
     <use xlink:href="#DejaVuSans-Oblique-70" transform="translate(200.048828 0)"/>
     <use xlink:href="#DejaVuSans-Oblique-53" transform="translate(263.525391 0)"/>
     <use xlink:href="#DejaVuSans-Oblique-65" transform="translate(327.001953 0)"/>
     <use xlink:href="#DejaVuSans-Oblique-65" transform="translate(388.525391 0)"/>
     <use xlink:href="#DejaVuSans-Oblique-6b" transform="translate(450.048828 0)"/>
     <use xlink:href="#DejaVuSans-Oblique-2d" transform="translate(507.958984 0)"/>
     <use xlink:href="#DejaVuSans-Oblique-56" transform="translate(540.042969 0)"/>
     <use xlink:href="#DejaVuSans-Oblique-33" transform="translate(608.451172 0)"/>
     <use xlink:href="#DejaVuSans-Oblique-2e" transform="translate(672.074219 0)"/>
     <use xlink:href="#DejaVuSans-Oblique-32" transform="translate(703.861328 0)"/>
    </g>
   </g>
   <g id="patch_11">
    <path d="M 382.184225 332.884209 
Q 379.425378 333.141904 376.666531 333.399599 
" style="fill: none; stroke: #f39c12; stroke-width: 0.7; stroke-linecap: round"/>
   </g>
   <g id="text_11">
    <!-- gemini-2.5-flash -->
    <g style="fill: #f39c12" transform="translate(386.675762 331.58555) scale(0.085 -0.085)">
     <defs>
      <path id="DejaVuSans-Oblique-67" d="M 3816 3500 
L 3219 434 
Q 3047 -456 2561 -893 
Q 2075 -1331 1253 -1331 
Q 950 -1331 690 -1286 
Q 431 -1241 206 -1147 
L 313 -588 
Q 525 -725 762 -790 
Q 1000 -856 1269 -856 
Q 1816 -856 2167 -557 
Q 2519 -259 2631 300 
L 2681 563 
Q 2441 288 2122 144 
Q 1803 0 1434 0 
Q 903 0 598 351 
Q 294 703 294 1319 
Q 294 1803 478 2267 
Q 663 2731 997 3091 
Q 1219 3328 1514 3456 
Q 1809 3584 2131 3584 
Q 2484 3584 2746 3420 
Q 3009 3256 3138 2956 
L 3238 3500 
L 3816 3500 
z
M 2950 2216 
Q 2950 2641 2750 2872 
Q 2550 3103 2181 3103 
Q 1953 3103 1747 3012 
Q 1541 2922 1394 2759 
Q 1156 2491 1023 2127 
Q 891 1763 891 1375 
Q 891 944 1092 712 
Q 1294 481 1672 481 
Q 2219 481 2584 976 
Q 2950 1472 2950 2216 
z
" transform="scale(0.015625)"/>
      <path id="DejaVuSans-Oblique-6d" d="M 5747 2113 
L 5338 0 
L 4763 0 
L 5166 2094 
Q 5191 2228 5203 2325 
Q 5216 2422 5216 2491 
Q 5216 2772 5059 2928 
Q 4903 3084 4622 3084 
Q 4203 3084 3875 2770 
Q 3547 2456 3450 1953 
L 3066 0 
L 2491 0 
L 2900 2094 
Q 2925 2209 2937 2307 
Q 2950 2406 2950 2484 
Q 2950 2769 2794 2926 
Q 2638 3084 2363 3084 
Q 1938 3084 1609 2770 
Q 1281 2456 1184 1953 
L 800 0 
L 225 0 
L 909 3500 
L 1484 3500 
L 1375 2956 
Q 1609 3263 1923 3423 
Q 2238 3584 2597 3584 
Q 2978 3584 3223 3384 
Q 3469 3184 3519 2828 
Q 3781 3197 4126 3390 
Q 4472 3584 4856 3584 
Q 5306 3584 5551 3325 
Q 5797 3066 5797 2591 
Q 5797 2488 5784 2364 
Q 5772 2241 5747 2113 
z
" transform="scale(0.015625)"/>
      <path id="DejaVuSans-Oblique-69" d="M 1172 4863 
L 1747 4863 
L 1606 4134 
L 1031 4134 
L 1172 4863 
z
M 909 3500 
L 1484 3500 
L 800 0 
L 225 0 
L 909 3500 
z
" transform="scale(0.015625)"/>
      <path id="DejaVuSans-Oblique-6e" d="M 3566 2113 
L 3156 0 
L 2578 0 
L 2988 2091 
Q 3016 2238 3031 2350 
Q 3047 2463 3047 2528 
Q 3047 2791 2881 2937 
Q 2716 3084 2419 3084 
Q 1956 3084 1622 2776 
Q 1288 2469 1184 1941 
L 800 0 
L 225 0 
L 903 3500 
L 1478 3500 
L 1363 2950 
Q 1603 3253 1940 3418 
Q 2278 3584 2650 3584 
Q 3113 3584 3367 3334 
Q 3622 3084 3622 2631 
Q 3622 2519 3608 2391 
Q 3594 2263 3566 2113 
z
" transform="scale(0.015625)"/>
      <path id="DejaVuSans-Oblique-35" d="M 3719 4666 
L 3622 4141 
L 1691 4141 
L 1466 2988 
Q 1609 3034 1757 3056 
Q 1906 3078 2059 3078 
Q 2706 3078 3081 2731 
Q 3456 2384 3456 1791 
Q 3456 1375 3264 994 
Q 3072 613 2719 325 
Q 2469 125 2108 17 
Q 1747 -91 1319 -91 
Q 1038 -91 744 -41 
Q 450 9 128 109 
L 244 697 
Q 531 556 820 486 
Q 1109 416 1403 416 
Q 2013 416 2411 781 
Q 2809 1147 2809 1697 
Q 2809 2103 2548 2328 
Q 2288 2553 1819 2553 
Q 1572 2553 1305 2495 
Q 1038 2438 756 2322 
L 1209 4666 
L 3719 4666 
z
" transform="scale(0.015625)"/>
      <path id="DejaVuSans-Oblique-66" d="M 3059 4863 
L 2969 4384 
L 2419 4384 
Q 2106 4384 1964 4261 
Q 1822 4138 1753 3809 
L 1691 3500 
L 2638 3500 
L 2553 3053 
L 1606 3053 
L 1013 0 
L 434 0 
L 1031 3053 
L 481 3053 
L 563 3500 
L 1113 3500 
L 1159 3744 
Q 1278 4363 1576 4613 
Q 1875 4863 2516 4863 
L 3059 4863 
z
" transform="scale(0.015625)"/>
      <path id="DejaVuSans-Oblique-6c" d="M 1172 4863 
L 1747 4863 
L 800 0 
L 225 0 
L 1172 4863 
z
" transform="scale(0.015625)"/>
      <path id="DejaVuSans-Oblique-61" d="M 3438 1997 
L 3047 0 
L 2472 0 
L 2578 531 
Q 2325 219 2001 64 
Q 1678 -91 1281 -91 
Q 834 -91 548 182 
Q 263 456 263 884 
Q 263 1497 752 1853 
Q 1241 2209 2100 2209 
L 2900 2209 
L 2931 2363 
Q 2938 2388 2941 2417 
Q 2944 2447 2944 2509 
Q 2944 2788 2717 2942 
Q 2491 3097 2081 3097 
Q 1800 3097 1504 3025 
Q 1209 2953 897 2809 
L 997 3341 
Q 1322 3463 1633 3523 
Q 1944 3584 2234 3584 
Q 2853 3584 3176 3315 
Q 3500 3047 3500 2534 
Q 3500 2431 3484 2292 
Q 3469 2153 3438 1997 
z
M 2816 1759 
L 2241 1759 
Q 1534 1759 1195 1570 
Q 856 1381 856 984 
Q 856 709 1029 553 
Q 1203 397 1509 397 
Q 1978 397 2328 733 
Q 2678 1069 2791 1631 
L 2816 1759 
z
" transform="scale(0.015625)"/>
      <path id="DejaVuSans-Oblique-73" d="M 3200 3397 
L 3091 2853 
Q 2863 2978 2609 3040 
Q 2356 3103 2088 3103 
Q 1634 3103 1373 2948 
Q 1113 2794 1113 2528 
Q 1113 2219 1719 2053 
Q 1766 2041 1788 2034 
L 1972 1978 
Q 2547 1819 2739 1644 
Q 2931 1469 2931 1166 
Q 2931 609 2489 259 
Q 2047 -91 1331 -91 
Q 1053 -91 747 -37 
Q 441 16 72 128 
L 184 722 
Q 500 559 806 475 
Q 1113 391 1394 391 
Q 1816 391 2080 572 
Q 2344 753 2344 1031 
Q 2344 1331 1650 1516 
L 1591 1531 
L 1394 1581 
Q 956 1697 753 1886 
Q 550 2075 550 2369 
Q 550 2928 970 3256 
Q 1391 3584 2113 3584 
Q 2397 3584 2667 3537 
Q 2938 3491 3200 3397 
z
" transform="scale(0.015625)"/>
      <path id="DejaVuSans-Oblique-68" d="M 3566 2113 
L 3156 0 
L 2578 0 
L 2988 2091 
Q 3016 2238 3031 2350 
Q 3047 2463 3047 2528 
Q 3047 2791 2881 2937 
Q 2716 3084 2419 3084 
Q 1956 3084 1617 2771 
Q 1278 2459 1178 1941 
L 800 0 
L 225 0 
L 1172 4863 
L 1747 4863 
L 1375 2950 
Q 1594 3244 1934 3414 
Q 2275 3584 2650 3584 
Q 3113 3584 3367 3334 
Q 3622 3084 3622 2631 
Q 3622 2519 3608 2391 
Q 3594 2263 3566 2113 
z
" transform="scale(0.015625)"/>
     </defs>
     <use xlink:href="#DejaVuSans-Oblique-67"/>
     <use xlink:href="#DejaVuSans-Oblique-65" transform="translate(63.476562 0)"/>
     <use xlink:href="#DejaVuSans-Oblique-6d" transform="translate(125 0)"/>
     <use xlink:href="#DejaVuSans-Oblique-69" transform="translate(222.412109 0)"/>
     <use xlink:href="#DejaVuSans-Oblique-6e" transform="translate(250.195312 0)"/>
     <use xlink:href="#DejaVuSans-Oblique-69" transform="translate(313.574219 0)"/>
     <use xlink:href="#DejaVuSans-Oblique-2d" transform="translate(341.357422 0)"/>
     <use xlink:href="#DejaVuSans-Oblique-32" transform="translate(377.441406 0)"/>
     <use xlink:href="#DejaVuSans-Oblique-2e" transform="translate(441.064453 0)"/>
     <use xlink:href="#DejaVuSans-Oblique-35" transform="translate(472.851562 0)"/>
     <use xlink:href="#DejaVuSans-Oblique-2d" transform="translate(536.474609 0)"/>
     <use xlink:href="#DejaVuSans-Oblique-66" transform="translate(572.558594 0)"/>
     <use xlink:href="#DejaVuSans-Oblique-6c" transform="translate(607.763672 0)"/>
     <use xlink:href="#DejaVuSans-Oblique-61" transform="translate(635.546875 0)"/>
     <use xlink:href="#DejaVuSans-Oblique-73" transform="translate(696.826172 0)"/>
     <use xlink:href="#DejaVuSans-Oblique-68" transform="translate(748.925781 0)"/>
    </g>
   </g>
   <g id="patch_12">
    <path d="M 176.644322 45.250432 
Q 173.884551 45.50859 171.124779 45.766747 
" style="fill: none; stroke: #e74c3c; stroke-width: 0.7; stroke-linecap: round"/>
   </g>
   <g id="text_12">
    <!-- gemma-3-27b-it -->
    <g style="fill: #e74c3c" transform="translate(181.133343 43.953032) scale(0.085 -0.085)">
     <defs>
      <path id="DejaVuSans-Oblique-37" d="M 819 4666 
L 4013 4666 
L 3956 4397 
L 1288 0 
L 594 0 
L 3116 4134 
L 716 4134 
L 819 4666 
z
" transform="scale(0.015625)"/>
      <path id="DejaVuSans-Oblique-62" d="M 3169 2138 
Q 3169 2591 2961 2847 
Q 2753 3103 2388 3103 
Q 2122 3103 1889 2973 
Q 1656 2844 1484 2597 
Q 1303 2338 1198 1995 
Q 1094 1653 1094 1313 
Q 1094 881 1298 636 
Q 1503 391 1863 391 
Q 2134 391 2365 517 
Q 2597 644 2772 891 
Q 2950 1147 3059 1487 
Q 3169 1828 3169 2138 
z
M 1381 2969 
Q 1594 3256 1914 3420 
Q 2234 3584 2584 3584 
Q 3122 3584 3439 3221 
Q 3756 2859 3756 2241 
Q 3756 1734 3570 1259 
Q 3384 784 3041 416 
Q 2816 172 2522 40 
Q 2228 -91 1906 -91 
Q 1566 -91 1316 65 
Q 1066 222 909 531 
L 806 0 
L 231 0 
L 1178 4863 
L 1753 4863 
L 1381 2969 
z
" transform="scale(0.015625)"/>
      <path id="DejaVuSans-Oblique-74" d="M 2706 3500 
L 2619 3053 
L 1472 3053 
L 1100 1153 
Q 1081 1047 1072 975 
Q 1063 903 1063 863 
Q 1063 663 1183 572 
Q 1303 481 1569 481 
L 2150 481 
L 2053 0 
L 1503 0 
Q 991 0 739 200 
Q 488 400 488 806 
Q 488 878 497 964 
Q 506 1050 525 1153 
L 897 3053 
L 409 3053 
L 500 3500 
L 978 3500 
L 1172 4494 
L 1747 4494 
L 1556 3500 
L 2706 3500 
z
" transform="scale(0.015625)"/>
     </defs>
     <use xlink:href="#DejaVuSans-Oblique-67"/>
     <use xlink:href="#DejaVuSans-Oblique-65" transform="translate(63.476562 0)"/>
     <use xlink:href="#DejaVuSans-Oblique-6d" transform="translate(125 0)"/>
     <use xlink:href="#DejaVuSans-Oblique-6d" transform="translate(222.412109 0)"/>
     <use xlink:href="#DejaVuSans-Oblique-61" transform="translate(319.824219 0)"/>
     <use xlink:href="#DejaVuSans-Oblique-2d" transform="translate(381.103516 0)"/>
     <use xlink:href="#DejaVuSans-Oblique-33" transform="translate(417.1875 0)"/>
     <use xlink:href="#DejaVuSans-Oblique-2d" transform="translate(480.810547 0)"/>
     <use xlink:href="#DejaVuSans-Oblique-32" transform="translate(516.894531 0)"/>
     <use xlink:href="#DejaVuSans-Oblique-37" transform="translate(580.517578 0)"/>
     <use xlink:href="#DejaVuSans-Oblique-62" transform="translate(644.140625 0)"/>
     <use xlink:href="#DejaVuSans-Oblique-2d" transform="translate(707.617188 0)"/>
     <use xlink:href="#DejaVuSans-Oblique-69" transform="translate(743.701172 0)"/>
     <use xlink:href="#DejaVuSans-Oblique-74" transform="translate(771.484375 0)"/>
    </g>
   </g>
   <g id="patch_13">
    <path d="M 382.175318 59.153245 
Q 379.423406 59.345887 376.671494 59.538528 
" style="fill: none; stroke: #f39c12; stroke-width: 0.7; stroke-linecap: round"/>
   </g>
   <g id="text_13">
    <!-- grok-4-1-fast-reasoning -->
    <g style="fill: #f39c12" transform="translate(386.675762 57.678235) scale(0.085 -0.085)">
     <defs>
      <path id="DejaVuSans-Oblique-72" d="M 2853 2969 
Q 2766 3016 2653 3041 
Q 2541 3066 2413 3066 
Q 1953 3066 1609 2717 
Q 1266 2369 1153 1784 
L 800 0 
L 225 0 
L 909 3500 
L 1484 3500 
L 1375 2956 
Q 1603 3259 1920 3421 
Q 2238 3584 2597 3584 
Q 2691 3584 2781 3573 
Q 2872 3563 2963 3538 
L 2853 2969 
z
" transform="scale(0.015625)"/>
      <path id="DejaVuSans-Oblique-6f" d="M 1625 -91 
Q 1009 -91 651 289 
Q 294 669 294 1325 
Q 294 1706 417 2101 
Q 541 2497 738 2766 
Q 1047 3184 1428 3384 
Q 1809 3584 2291 3584 
Q 2888 3584 3255 3212 
Q 3622 2841 3622 2241 
Q 3622 1825 3500 1412 
Q 3378 1000 3181 728 
Q 2875 309 2494 109 
Q 2113 -91 1625 -91 
z
M 891 1344 
Q 891 869 1089 633 
Q 1288 397 1691 397 
Q 2269 397 2648 901 
Q 3028 1406 3028 2181 
Q 3028 2634 2825 2865 
Q 2622 3097 2228 3097 
Q 1903 3097 1650 2945 
Q 1397 2794 1197 2484 
Q 1050 2253 970 1956 
Q 891 1659 891 1344 
z
" transform="scale(0.015625)"/>
      <path id="DejaVuSans-Oblique-34" d="M 2753 4666 
L 3547 4666 
L 2950 1625 
L 3616 1625 
L 3513 1100 
L 2847 1100 
L 2638 0 
L 2009 0 
L 2222 1100 
L 116 1100 
L 238 1709 
L 2753 4666 
z
M 2809 4116 
L 728 1625 
L 2322 1625 
L 2809 4116 
z
" transform="scale(0.015625)"/>
      <path id="DejaVuSans-Oblique-31" d="M 416 531 
L 1447 531 
L 2144 4122 
L 978 3897 
L 1088 4441 
L 2247 4666 
L 2881 4666 
L 2075 531 
L 3103 531 
L 3003 0 
L 313 0 
L 416 531 
z
" transform="scale(0.015625)"/>
     </defs>
     <use xlink:href="#DejaVuSans-Oblique-67"/>
     <use xlink:href="#DejaVuSans-Oblique-72" transform="translate(63.476562 0)"/>
     <use xlink:href="#DejaVuSans-Oblique-6f" transform="translate(104.589844 0)"/>
     <use xlink:href="#DejaVuSans-Oblique-6b" transform="translate(165.771484 0)"/>
     <use xlink:href="#DejaVuSans-Oblique-2d" transform="translate(223.681641 0)"/>
     <use xlink:href="#DejaVuSans-Oblique-34" transform="translate(259.765625 0)"/>
     <use xlink:href="#DejaVuSans-Oblique-2d" transform="translate(323.388672 0)"/>
     <use xlink:href="#DejaVuSans-Oblique-31" transform="translate(359.472656 0)"/>
     <use xlink:href="#DejaVuSans-Oblique-2d" transform="translate(423.095703 0)"/>
     <use xlink:href="#DejaVuSans-Oblique-66" transform="translate(459.179688 0)"/>
     <use xlink:href="#DejaVuSans-Oblique-61" transform="translate(494.384766 0)"/>
     <use xlink:href="#DejaVuSans-Oblique-73" transform="translate(555.664062 0)"/>
     <use xlink:href="#DejaVuSans-Oblique-74" transform="translate(607.763672 0)"/>
     <use xlink:href="#DejaVuSans-Oblique-2d" transform="translate(646.972656 0)"/>
     <use xlink:href="#DejaVuSans-Oblique-72" transform="translate(683.056641 0)"/>
     <use xlink:href="#DejaVuSans-Oblique-65" transform="translate(724.169922 0)"/>
     <use xlink:href="#DejaVuSans-Oblique-61" transform="translate(785.693359 0)"/>
     <use xlink:href="#DejaVuSans-Oblique-73" transform="translate(846.972656 0)"/>
     <use xlink:href="#DejaVuSans-Oblique-6f" transform="translate(899.072266 0)"/>
     <use xlink:href="#DejaVuSans-Oblique-6e" transform="translate(960.253906 0)"/>
     <use xlink:href="#DejaVuSans-Oblique-69" transform="translate(1023.632812 0)"/>
     <use xlink:href="#DejaVuSans-Oblique-6e" transform="translate(1051.416016 0)"/>
     <use xlink:href="#DejaVuSans-Oblique-67" transform="translate(1114.794922 0)"/>
    </g>
   </g>
   <g id="patch_14">
    <path d="M 176.64268 98.247151 
Q 173.883512 98.54714 171.124344 98.84713 
" style="fill: none; stroke: #e74c3c; stroke-width: 0.7; stroke-linecap: round"/>
   </g>
   <g id="text_14">
    <!-- gpt-oss-120b -->
    <g style="fill: #e74c3c" transform="translate(181.133343 97.063601) scale(0.085 -0.085)">
     <defs>
      <path id="DejaVuSans-Oblique-30" d="M 2444 4750 
Q 3078 4750 3414 4328 
Q 3750 3906 3750 3116 
Q 3750 2516 3592 1923 
Q 3434 1331 3150 863 
Q 2859 394 2467 151 
Q 2075 -91 1600 -91 
Q 988 -91 653 334 
Q 319 759 319 1544 
Q 319 2138 480 2733 
Q 641 3328 928 3794 
Q 1216 4263 1602 4506 
Q 1988 4750 2444 4750 
z
M 2406 4250 
Q 2169 4250 1955 4123 
Q 1741 3997 1569 3750 
Q 1281 3338 1111 2720 
Q 941 2103 941 1453 
Q 941 938 1123 673 
Q 1306 409 1663 409 
Q 1913 409 2125 536 
Q 2338 663 2509 909 
Q 2794 1319 2961 1936 
Q 3128 2553 3128 3206 
Q 3128 3722 2945 3986 
Q 2763 4250 2406 4250 
z
" transform="scale(0.015625)"/>
     </defs>
     <use xlink:href="#DejaVuSans-Oblique-67"/>
     <use xlink:href="#DejaVuSans-Oblique-70" transform="translate(63.476562 0)"/>
     <use xlink:href="#DejaVuSans-Oblique-74" transform="translate(126.953125 0)"/>
     <use xlink:href="#DejaVuSans-Oblique-2d" transform="translate(166.162109 0)"/>
     <use xlink:href="#DejaVuSans-Oblique-6f" transform="translate(202.246094 0)"/>
     <use xlink:href="#DejaVuSans-Oblique-73" transform="translate(263.427734 0)"/>
     <use xlink:href="#DejaVuSans-Oblique-73" transform="translate(315.527344 0)"/>
     <use xlink:href="#DejaVuSans-Oblique-2d" transform="translate(367.626953 0)"/>
     <use xlink:href="#DejaVuSans-Oblique-31" transform="translate(403.710938 0)"/>
     <use xlink:href="#DejaVuSans-Oblique-32" transform="translate(467.333984 0)"/>
     <use xlink:href="#DejaVuSans-Oblique-30" transform="translate(530.957031 0)"/>
     <use xlink:href="#DejaVuSans-Oblique-62" transform="translate(594.580078 0)"/>
    </g>
   </g>
   <g id="text_15">
    <g id="patch_15">
     <path d="M 529.424568 62.891601 
L 645.991756 62.891601 
Q 649.991756 62.891601 649.991756 58.891601 
L 649.991756 38.015664 
Q 649.991756 34.015664 645.991756 34.015664 
L 529.424568 34.015664 
Q 525.424568 34.015664 525.424568 38.015664 
L 525.424568 58.891601 
Q 525.424568 62.891601 529.424568 62.891601 
z
" style="fill: #ffffe0; opacity: 0.9; stroke: #ffffff; stroke-linejoin: miter"/>
    </g>
    <!-- Kruskal-Wallis H = 0.70 -->
    <g style="fill: #262626" transform="translate(529.424568 45.614101) scale(0.1 -0.1)">
     <defs>
      <path id="DejaVuSans-4b" d="M 628 4666 
L 1259 4666 
L 1259 2694 
L 3353 4666 
L 4166 4666 
L 1850 2491 
L 4331 0 
L 3500 0 
L 1259 2247 
L 1259 0 
L 628 0 
L 628 4666 
z
" transform="scale(0.015625)"/>
      <path id="DejaVuSans-6b" d="M 581 4863 
L 1159 4863 
L 1159 1991 
L 2875 3500 
L 3609 3500 
L 1753 1863 
L 3688 0 
L 2938 0 
L 1159 1709 
L 1159 0 
L 581 0 
L 581 4863 
z
" transform="scale(0.015625)"/>
      <path id="DejaVuSans-2d" d="M 313 2009 
L 1997 2009 
L 1997 1497 
L 313 1497 
L 313 2009 
z
" transform="scale(0.015625)"/>
      <path id="DejaVuSans-57" d="M 213 4666 
L 850 4666 
L 1831 722 
L 2809 4666 
L 3519 4666 
L 4500 722 
L 5478 4666 
L 6119 4666 
L 4947 0 
L 4153 0 
L 3169 4050 
L 2175 0 
L 1381 0 
L 213 4666 
z
" transform="scale(0.015625)"/>
      <path id="DejaVuSans-48" d="M 628 4666 
L 1259 4666 
L 1259 2753 
L 3553 2753 
L 3553 4666 
L 4184 4666 
L 4184 0 
L 3553 0 
L 3553 2222 
L 1259 2222 
L 1259 0 
L 628 0 
L 628 4666 
z
" transform="scale(0.015625)"/>
      <path id="DejaVuSans-3d" d="M 678 2906 
L 4684 2906 
L 4684 2381 
L 678 2381 
L 678 2906 
z
M 678 1631 
L 4684 1631 
L 4684 1100 
L 678 1100 
L 678 1631 
z
" transform="scale(0.015625)"/>
      <path id="DejaVuSans-30" d="M 2034 4250 
Q 1547 4250 1301 3770 
Q 1056 3291 1056 2328 
Q 1056 1369 1301 889 
Q 1547 409 2034 409 
Q 2525 409 2770 889 
Q 3016 1369 3016 2328 
Q 3016 3291 2770 3770 
Q 2525 4250 2034 4250 
z
M 2034 4750 
Q 2819 4750 3233 4129 
Q 3647 3509 3647 2328 
Q 3647 1150 3233 529 
Q 2819 -91 2034 -91 
Q 1250 -91 836 529 
Q 422 1150 422 2328 
Q 422 3509 836 4129 
Q 1250 4750 2034 4750 
z
" transform="scale(0.015625)"/>
      <path id="DejaVuSans-2e" d="M 684 794 
L 1344 794 
L 1344 0 
L 684 0 
L 684 794 
z
" transform="scale(0.015625)"/>
      <path id="DejaVuSans-37" d="M 525 4666 
L 3525 4666 
L 3525 4397 
L 1831 0 
L 1172 0 
L 2766 4134 
L 525 4134 
L 525 4666 
z
" transform="scale(0.015625)"/>
     </defs>
     <use xlink:href="#DejaVuSans-4b"/>
     <use xlink:href="#DejaVuSans-72" transform="translate(65.576172 0)"/>
     <use xlink:href="#DejaVuSans-75" transform="translate(106.689453 0)"/>
     <use xlink:href="#DejaVuSans-73" transform="translate(170.068359 0)"/>
     <use xlink:href="#DejaVuSans-6b" transform="translate(222.167969 0)"/>
     <use xlink:href="#DejaVuSans-61" transform="translate(278.328125 0)"/>
     <use xlink:href="#DejaVuSans-6c" transform="translate(339.607422 0)"/>
     <use xlink:href="#DejaVuSans-2d" transform="translate(367.390625 0)"/>
     <use xlink:href="#DejaVuSans-57" transform="translate(399.474609 0)"/>
     <use xlink:href="#DejaVuSans-61" transform="translate(491.976562 0)"/>
     <use xlink:href="#DejaVuSans-6c" transform="translate(553.255859 0)"/>
     <use xlink:href="#DejaVuSans-6c" transform="translate(581.039062 0)"/>
     <use xlink:href="#DejaVuSans-69" transform="translate(608.822266 0)"/>
     <use xlink:href="#DejaVuSans-73" transform="translate(636.605469 0)"/>
     <use xlink:href="#DejaVuSans-20" transform="translate(688.705078 0)"/>
     <use xlink:href="#DejaVuSans-48" transform="translate(720.492188 0)"/>
     <use xlink:href="#DejaVuSans-20" transform="translate(795.6875 0)"/>
     <use xlink:href="#DejaVuSans-3d" transform="translate(827.474609 0)"/>
     <use xlink:href="#DejaVuSans-20" transform="translate(911.263672 0)"/>
     <use xlink:href="#DejaVuSans-30" transform="translate(943.050781 0)"/>
     <use xlink:href="#DejaVuSans-2e" transform="translate(1006.673828 0)"/>
     <use xlink:href="#DejaVuSans-37" transform="translate(1038.460938 0)"/>
     <use xlink:href="#DejaVuSans-30" transform="translate(1102.083984 0)"/>
    </g>
    <!-- p = 0.7052 (n.s.) -->
    <g style="fill: #262626" transform="translate(561.032381 56.811914) scale(0.1 -0.1)">
     <defs>
      <path id="DejaVuSans-28" d="M 1984 4856 
Q 1566 4138 1362 3434 
Q 1159 2731 1159 2009 
Q 1159 1288 1364 580 
Q 1569 -128 1984 -844 
L 1484 -844 
Q 1016 -109 783 600 
Q 550 1309 550 2009 
Q 550 2706 781 3412 
Q 1013 4119 1484 4856 
L 1984 4856 
z
" transform="scale(0.015625)"/>
      <path id="DejaVuSans-29" d="M 513 4856 
L 1013 4856 
Q 1481 4119 1714 3412 
Q 1947 2706 1947 2009 
Q 1947 1309 1714 600 
Q 1481 -109 1013 -844 
L 513 -844 
Q 928 -128 1133 580 
Q 1338 1288 1338 2009 
Q 1338 2731 1133 3434 
Q 928 4138 513 4856 
z
" transform="scale(0.015625)"/>
     </defs>
     <use xlink:href="#DejaVuSans-70"/>
     <use xlink:href="#DejaVuSans-20" transform="translate(63.476562 0)"/>
     <use xlink:href="#DejaVuSans-3d" transform="translate(95.263672 0)"/>
     <use xlink:href="#DejaVuSans-20" transform="translate(179.052734 0)"/>
     <use xlink:href="#DejaVuSans-30" transform="translate(210.839844 0)"/>
     <use xlink:href="#DejaVuSans-2e" transform="translate(274.462891 0)"/>
     <use xlink:href="#DejaVuSans-37" transform="translate(306.25 0)"/>
     <use xlink:href="#DejaVuSans-30" transform="translate(369.873047 0)"/>
     <use xlink:href="#DejaVuSans-35" transform="translate(433.496094 0)"/>
     <use xlink:href="#DejaVuSans-32" transform="translate(497.119141 0)"/>
     <use xlink:href="#DejaVuSans-20" transform="translate(560.742188 0)"/>
     <use xlink:href="#DejaVuSans-28" transform="translate(592.529297 0)"/>
     <use xlink:href="#DejaVuSans-6e" transform="translate(631.542969 0)"/>
     <use xlink:href="#DejaVuSans-2e" transform="translate(694.921875 0)"/>
     <use xlink:href="#DejaVuSans-73" transform="translate(726.708984 0)"/>
     <use xlink:href="#DejaVuSans-2e" transform="translate(778.808594 0)"/>
     <use xlink:href="#DejaVuSans-29" transform="translate(810.595703 0)"/>
    </g>
   </g>
   <g id="text_16">
    <!-- A -->
    <g style="fill: #262626" transform="translate(7.2 23.916562) scale(0.22 -0.22)">
     <defs>
      <path id="DejaVuSans-Bold-41" d="M 3419 850 
L 1538 850 
L 1241 0 
L 31 0 
L 1759 4666 
L 3194 4666 
L 4922 0 
L 3713 0 
L 3419 850 
z
M 1838 1716 
L 3116 1716 
L 2478 3572 
L 1838 1716 
z
" transform="scale(0.015625)"/>
     </defs>
     <use xlink:href="#DejaVuSans-Bold-41"/>
    </g>
   </g>
   <g id="LineCollection_1">
    <path d="M 132.135708 175.911477 
L 206.130979 175.911477 
" clip-path="url(#pb8a6c755d1)" style="fill: none; stroke-dasharray: 7.4,3.2; stroke-dashoffset: 0; stroke: #000000; stroke-width: 2"/>
   </g>
   <g id="LineCollection_2">
    <path d="M 337.678127 196.631893 
L 411.673398 196.631893 
" clip-path="url(#pb8a6c755d1)" style="fill: none; stroke-dasharray: 7.4,3.2; stroke-dashoffset: 0; stroke: #000000; stroke-width: 2"/>
   </g>
   <g id="LineCollection_3">
    <path d="M 543.220546 225.539657 
L 617.215817 225.539657 
" clip-path="url(#pb8a6c755d1)" style="fill: none; stroke-dasharray: 7.4,3.2; stroke-dashoffset: 0; stroke: #000000; stroke-width: 2"/>
   </g>
  </g>
  <g id="axes_2">
   <g id="patch_16">
    <path d="M 724.309027 536.202232 
L 1289.55068 536.202232 
L 1289.55068 22.607832 
L 724.309027 22.607832 
z
" style="fill: #ffffff"/>
   </g>
   <g id="matplotlib.axis_3">
    <g id="xtick_4">
     <g id="text_17">
      <!-- Judge Models -->
      <g style="fill: #262626" transform="translate(754.80134 556.340044) scale(0.14 -0.14)">
       <use xlink:href="#DejaVuSans-4a"/>
       <use xlink:href="#DejaVuSans-75" transform="translate(29.492188 0)"/>
       <use xlink:href="#DejaVuSans-64" transform="translate(92.871094 0)"/>
       <use xlink:href="#DejaVuSans-67" transform="translate(156.347656 0)"/>
       <use xlink:href="#DejaVuSans-65" transform="translate(219.824219 0)"/>
       <use xlink:href="#DejaVuSans-20" transform="translate(281.347656 0)"/>
       <use xlink:href="#DejaVuSans-4d" transform="translate(313.134766 0)"/>
       <use xlink:href="#DejaVuSans-6f" transform="translate(399.414062 0)"/>
       <use xlink:href="#DejaVuSans-64" transform="translate(460.595703 0)"/>
       <use xlink:href="#DejaVuSans-65" transform="translate(524.072266 0)"/>
       <use xlink:href="#DejaVuSans-6c" transform="translate(585.595703 0)"/>
       <use xlink:href="#DejaVuSans-73" transform="translate(613.378906 0)"/>
      </g>
     </g>
    </g>
    <g id="xtick_5">
     <g id="text_18">
      <!-- Pair Generators -->
      <g style="fill: #262626" transform="translate(952.493916 556.340044) scale(0.14 -0.14)">
       <use xlink:href="#DejaVuSans-50"/>
       <use xlink:href="#DejaVuSans-61" transform="translate(55.802734 0)"/>
       <use xlink:href="#DejaVuSans-69" transform="translate(117.082031 0)"/>
       <use xlink:href="#DejaVuSans-72" transform="translate(144.865234 0)"/>
       <use xlink:href="#DejaVuSans-20" transform="translate(185.978516 0)"/>
       <use xlink:href="#DejaVuSans-47" transform="translate(217.765625 0)"/>
       <use xlink:href="#DejaVuSans-65" transform="translate(295.255859 0)"/>
       <use xlink:href="#DejaVuSans-6e" transform="translate(356.779297 0)"/>
       <use xlink:href="#DejaVuSans-65" transform="translate(420.158203 0)"/>
       <use xlink:href="#DejaVuSans-72" transform="translate(481.681641 0)"/>
       <use xlink:href="#DejaVuSans-61" transform="translate(522.794922 0)"/>
       <use xlink:href="#DejaVuSans-74" transform="translate(584.074219 0)"/>
       <use xlink:href="#DejaVuSans-6f" transform="translate(623.283203 0)"/>
       <use xlink:href="#DejaVuSans-72" transform="translate(684.464844 0)"/>
       <use xlink:href="#DejaVuSans-73" transform="translate(725.578125 0)"/>
      </g>
     </g>
    </g>
    <g id="xtick_6">
     <g id="text_19">
      <!-- Pure Respondents -->
      <g style="fill: #262626" transform="translate(1149.441647 556.340044) scale(0.14 -0.14)">
       <use xlink:href="#DejaVuSans-50"/>
       <use xlink:href="#DejaVuSans-75" transform="translate(58.552734 0)"/>
       <use xlink:href="#DejaVuSans-72" transform="translate(121.931641 0)"/>
       <use xlink:href="#DejaVuSans-65" transform="translate(160.794922 0)"/>
       <use xlink:href="#DejaVuSans-20" transform="translate(222.318359 0)"/>
       <use xlink:href="#DejaVuSans-52" transform="translate(254.105469 0)"/>
       <use xlink:href="#DejaVuSans-65" transform="translate(319.087891 0)"/>
       <use xlink:href="#DejaVuSans-73" transform="translate(380.611328 0)"/>
       <use xlink:href="#DejaVuSans-70" transform="translate(432.710938 0)"/>
       <use xlink:href="#DejaVuSans-6f" transform="translate(496.1875 0)"/>
       <use xlink:href="#DejaVuSans-6e" transform="translate(557.369141 0)"/>
       <use xlink:href="#DejaVuSans-64" transform="translate(620.748047 0)"/>
       <use xlink:href="#DejaVuSans-65" transform="translate(684.224609 0)"/>
       <use xlink:href="#DejaVuSans-6e" transform="translate(745.748047 0)"/>
       <use xlink:href="#DejaVuSans-74" transform="translate(809.126953 0)"/>
       <use xlink:href="#DejaVuSans-73" transform="translate(848.335938 0)"/>
      </g>
     </g>
    </g>
   </g>
   <g id="matplotlib.axis_4">
    <g id="ytick_6">
     <g id="line2d_24">
      <path d="M 724.309027 502.622787 
L 1289.55068 502.622787 
" clip-path="url(#p94fcce7078)" style="fill: none; stroke-dasharray: 1,1.65; stroke-dashoffset: 0; stroke: #cccccc; stroke-opacity: 0.3"/>
     </g>
     <g id="text_20">
      <!-- 50 -->
      <g style="fill: #262626" transform="translate(696.994027 507.941693) scale(0.14 -0.14)">
       <use xlink:href="#DejaVuSans-35"/>
       <use xlink:href="#DejaVuSans-30" transform="translate(63.623047 0)"/>
      </g>
     </g>
    </g>
    <g id="ytick_7">
     <g id="line2d_25">
      <path d="M 724.309027 397.966507 
L 1289.55068 397.966507 
" clip-path="url(#p94fcce7078)" style="fill: none; stroke-dasharray: 1,1.65; stroke-dashoffset: 0; stroke: #cccccc; stroke-opacity: 0.3"/>
     </g>
     <g id="text_21">
      <!-- 60 -->
      <g style="fill: #262626" transform="translate(696.994027 403.285414) scale(0.14 -0.14)">
       <defs>
        <path id="DejaVuSans-36" d="M 2113 2584 
Q 1688 2584 1439 2293 
Q 1191 2003 1191 1497 
Q 1191 994 1439 701 
Q 1688 409 2113 409 
Q 2538 409 2786 701 
Q 3034 994 3034 1497 
Q 3034 2003 2786 2293 
Q 2538 2584 2113 2584 
z
M 3366 4563 
L 3366 3988 
Q 3128 4100 2886 4159 
Q 2644 4219 2406 4219 
Q 1781 4219 1451 3797 
Q 1122 3375 1075 2522 
Q 1259 2794 1537 2939 
Q 1816 3084 2150 3084 
Q 2853 3084 3261 2657 
Q 3669 2231 3669 1497 
Q 3669 778 3244 343 
Q 2819 -91 2113 -91 
Q 1303 -91 875 529 
Q 447 1150 447 2328 
Q 447 3434 972 4092 
Q 1497 4750 2381 4750 
Q 2619 4750 2861 4703 
Q 3103 4656 3366 4563 
z
" transform="scale(0.015625)"/>
       </defs>
       <use xlink:href="#DejaVuSans-36"/>
       <use xlink:href="#DejaVuSans-30" transform="translate(63.623047 0)"/>
      </g>
     </g>
    </g>
    <g id="ytick_8">
     <g id="line2d_26">
      <path d="M 724.309027 293.310228 
L 1289.55068 293.310228 
" clip-path="url(#p94fcce7078)" style="fill: none; stroke-dasharray: 1,1.65; stroke-dashoffset: 0; stroke: #cccccc; stroke-opacity: 0.3"/>
     </g>
     <g id="text_22">
      <!-- 70 -->
      <g style="fill: #262626" transform="translate(696.994027 298.629134) scale(0.14 -0.14)">
       <use xlink:href="#DejaVuSans-37"/>
       <use xlink:href="#DejaVuSans-30" transform="translate(63.623047 0)"/>
      </g>
     </g>
    </g>
    <g id="ytick_9">
     <g id="line2d_27">
      <path d="M 724.309027 188.653948 
L 1289.55068 188.653948 
" clip-path="url(#p94fcce7078)" style="fill: none; stroke-dasharray: 1,1.65; stroke-dashoffset: 0; stroke: #cccccc; stroke-opacity: 0.3"/>
     </g>
     <g id="text_23">
      <!-- 80 -->
      <g style="fill: #262626" transform="translate(696.994027 193.972854) scale(0.14 -0.14)">
       <defs>
        <path id="DejaVuSans-38" d="M 2034 2216 
Q 1584 2216 1326 1975 
Q 1069 1734 1069 1313 
Q 1069 891 1326 650 
Q 1584 409 2034 409 
Q 2484 409 2743 651 
Q 3003 894 3003 1313 
Q 3003 1734 2745 1975 
Q 2488 2216 2034 2216 
z
M 1403 2484 
Q 997 2584 770 2862 
Q 544 3141 544 3541 
Q 544 4100 942 4425 
Q 1341 4750 2034 4750 
Q 2731 4750 3128 4425 
Q 3525 4100 3525 3541 
Q 3525 3141 3298 2862 
Q 3072 2584 2669 2484 
Q 3125 2378 3379 2068 
Q 3634 1759 3634 1313 
Q 3634 634 3220 271 
Q 2806 -91 2034 -91 
Q 1263 -91 848 271 
Q 434 634 434 1313 
Q 434 1759 690 2068 
Q 947 2378 1403 2484 
z
M 1172 3481 
Q 1172 3119 1398 2916 
Q 1625 2713 2034 2713 
Q 2441 2713 2670 2916 
Q 2900 3119 2900 3481 
Q 2900 3844 2670 4047 
Q 2441 4250 2034 4250 
Q 1625 4250 1398 4047 
Q 1172 3844 1172 3481 
z
" transform="scale(0.015625)"/>
       </defs>
       <use xlink:href="#DejaVuSans-38"/>
       <use xlink:href="#DejaVuSans-30" transform="translate(63.623047 0)"/>
      </g>
     </g>
    </g>
    <g id="ytick_10">
     <g id="line2d_28">
      <path d="M 724.309027 83.997668 
L 1289.55068 83.997668 
" clip-path="url(#p94fcce7078)" style="fill: none; stroke-dasharray: 1,1.65; stroke-dashoffset: 0; stroke: #cccccc; stroke-opacity: 0.3"/>
     </g>
     <g id="text_24">
      <!-- 90 -->
      <g style="fill: #262626" transform="translate(696.994027 89.316575) scale(0.14 -0.14)">
       <defs>
        <path id="DejaVuSans-39" d="M 703 97 
L 703 672 
Q 941 559 1184 500 
Q 1428 441 1663 441 
Q 2288 441 2617 861 
Q 2947 1281 2994 2138 
Q 2813 1869 2534 1725 
Q 2256 1581 1919 1581 
Q 1219 1581 811 2004 
Q 403 2428 403 3163 
Q 403 3881 828 4315 
Q 1253 4750 1959 4750 
Q 2769 4750 3195 4129 
Q 3622 3509 3622 2328 
Q 3622 1225 3098 567 
Q 2575 -91 1691 -91 
Q 1453 -91 1209 -44 
Q 966 3 703 97 
z
M 1959 2075 
Q 2384 2075 2632 2365 
Q 2881 2656 2881 3163 
Q 2881 3666 2632 3958 
Q 2384 4250 1959 4250 
Q 1534 4250 1286 3958 
Q 1038 3666 1038 3163 
Q 1038 2656 1286 2365 
Q 1534 2075 1959 2075 
z
" transform="scale(0.015625)"/>
       </defs>
       <use xlink:href="#DejaVuSans-39"/>
       <use xlink:href="#DejaVuSans-30" transform="translate(63.623047 0)"/>
      </g>
     </g>
    </g>
    <g id="text_25">
     <!-- Agreement Rate (%) -->
     <g style="fill: #262626" transform="translate(689.325746 376.840266) rotate(-90) scale(0.17 -0.17)">
      <defs>
       <path id="DejaVuSans-Bold-67" d="M 2919 594 
Q 2688 288 2409 144 
Q 2131 0 1766 0 
Q 1125 0 706 504 
Q 288 1009 288 1791 
Q 288 2575 706 3076 
Q 1125 3578 1766 3578 
Q 2131 3578 2409 3434 
Q 2688 3291 2919 2981 
L 2919 3500 
L 4044 3500 
L 4044 353 
Q 4044 -491 3511 -936 
Q 2978 -1381 1966 -1381 
Q 1638 -1381 1331 -1331 
Q 1025 -1281 716 -1178 
L 716 -306 
Q 1009 -475 1290 -558 
Q 1572 -641 1856 -641 
Q 2406 -641 2662 -400 
Q 2919 -159 2919 353 
L 2919 594 
z
M 2181 2772 
Q 1834 2772 1640 2515 
Q 1447 2259 1447 1791 
Q 1447 1309 1634 1061 
Q 1822 813 2181 813 
Q 2531 813 2725 1069 
Q 2919 1325 2919 1791 
Q 2919 2259 2725 2515 
Q 2531 2772 2181 2772 
z
" transform="scale(0.015625)"/>
       <path id="DejaVuSans-Bold-72" d="M 3138 2547 
Q 2991 2616 2845 2648 
Q 2700 2681 2553 2681 
Q 2122 2681 1889 2404 
Q 1656 2128 1656 1613 
L 1656 0 
L 538 0 
L 538 3500 
L 1656 3500 
L 1656 2925 
Q 1872 3269 2151 3426 
Q 2431 3584 2822 3584 
Q 2878 3584 2943 3579 
Q 3009 3575 3134 3559 
L 3138 2547 
z
" transform="scale(0.015625)"/>
       <path id="DejaVuSans-Bold-74" d="M 1759 4494 
L 1759 3500 
L 2913 3500 
L 2913 2700 
L 1759 2700 
L 1759 1216 
Q 1759 972 1856 886 
Q 1953 800 2241 800 
L 2816 800 
L 2816 0 
L 1856 0 
Q 1194 0 917 276 
Q 641 553 641 1216 
L 641 2700 
L 84 2700 
L 84 3500 
L 641 3500 
L 641 4494 
L 1759 4494 
z
" transform="scale(0.015625)"/>
       <path id="DejaVuSans-Bold-52" d="M 2297 2597 
Q 2675 2597 2839 2737 
Q 3003 2878 3003 3200 
Q 3003 3519 2839 3656 
Q 2675 3794 2297 3794 
L 1791 3794 
L 1791 2597 
L 2297 2597 
z
M 1791 1766 
L 1791 0 
L 588 0 
L 588 4666 
L 2425 4666 
Q 3347 4666 3776 4356 
Q 4206 4047 4206 3378 
Q 4206 2916 3982 2619 
Q 3759 2322 3309 2181 
Q 3556 2125 3751 1926 
Q 3947 1728 4147 1325 
L 4800 0 
L 3519 0 
L 2950 1159 
Q 2778 1509 2601 1637 
Q 2425 1766 2131 1766 
L 1791 1766 
z
" transform="scale(0.015625)"/>
       <path id="DejaVuSans-Bold-25" d="M 4959 1925 
Q 4738 1925 4616 1733 
Q 4494 1541 4494 1184 
Q 4494 825 4614 633 
Q 4734 441 4959 441 
Q 5184 441 5303 633 
Q 5422 825 5422 1184 
Q 5422 1541 5301 1733 
Q 5181 1925 4959 1925 
z
M 4959 2450 
Q 5541 2450 5875 2112 
Q 6209 1775 6209 1184 
Q 6209 594 5875 251 
Q 5541 -91 4959 -91 
Q 4378 -91 4042 251 
Q 3706 594 3706 1184 
Q 3706 1772 4042 2111 
Q 4378 2450 4959 2450 
z
M 2094 -91 
L 1403 -91 
L 4319 4750 
L 5013 4750 
L 2094 -91 
z
M 1453 4750 
Q 2034 4750 2367 4411 
Q 2700 4072 2700 3481 
Q 2700 2891 2367 2550 
Q 2034 2209 1453 2209 
Q 872 2209 539 2550 
Q 206 2891 206 3481 
Q 206 4072 539 4411 
Q 872 4750 1453 4750 
z
M 1453 4225 
Q 1228 4225 1106 4031 
Q 984 3838 984 3481 
Q 984 3122 1106 2926 
Q 1228 2731 1453 2731 
Q 1678 2731 1798 2926 
Q 1919 3122 1919 3481 
Q 1919 3838 1797 4031 
Q 1675 4225 1453 4225 
z
" transform="scale(0.015625)"/>
      </defs>
      <use xlink:href="#DejaVuSans-Bold-41"/>
      <use xlink:href="#DejaVuSans-Bold-67" transform="translate(77.392578 0)"/>
      <use xlink:href="#DejaVuSans-Bold-72" transform="translate(148.974609 0)"/>
      <use xlink:href="#DejaVuSans-Bold-65" transform="translate(198.291016 0)"/>
      <use xlink:href="#DejaVuSans-Bold-65" transform="translate(266.113281 0)"/>
      <use xlink:href="#DejaVuSans-Bold-6d" transform="translate(333.935547 0)"/>
      <use xlink:href="#DejaVuSans-Bold-65" transform="translate(438.134766 0)"/>
      <use xlink:href="#DejaVuSans-Bold-6e" transform="translate(505.957031 0)"/>
      <use xlink:href="#DejaVuSans-Bold-74" transform="translate(577.148438 0)"/>
      <use xlink:href="#DejaVuSans-Bold-20" transform="translate(624.951172 0)"/>
      <use xlink:href="#DejaVuSans-Bold-52" transform="translate(659.765625 0)"/>
      <use xlink:href="#DejaVuSans-Bold-61" transform="translate(736.767578 0)"/>
      <use xlink:href="#DejaVuSans-Bold-74" transform="translate(804.248047 0)"/>
      <use xlink:href="#DejaVuSans-Bold-65" transform="translate(852.050781 0)"/>
      <use xlink:href="#DejaVuSans-Bold-20" transform="translate(919.873047 0)"/>
      <use xlink:href="#DejaVuSans-Bold-28" transform="translate(954.6875 0)"/>
      <use xlink:href="#DejaVuSans-Bold-25" transform="translate(1000.390625 0)"/>
      <use xlink:href="#DejaVuSans-Bold-29" transform="translate(1100.585938 0)"/>
     </g>
    </g>
   </g>
   <g id="patch_17">
    <path d="M 750.001829 312.360316 
L 852.773039 312.360316 
L 852.773039 260.783127 
L 750.001829 260.783127 
L 750.001829 312.360316 
z
" clip-path="url(#p94fcce7078)" style="fill: #d25d51; opacity: 0.35; stroke: #4e4e4e; stroke-width: 1.5; stroke-linejoin: miter"/>
   </g>
   <g id="line2d_29">
    <path d="M 801.387434 312.360316 
L 801.387434 355.260644 
" clip-path="url(#p94fcce7078)" style="fill: none; stroke: #4e4e4e; stroke-width: 1.5"/>
   </g>
   <g id="line2d_30">
    <path d="M 801.387434 260.783127 
L 801.387434 252.106267 
" clip-path="url(#p94fcce7078)" style="fill: none; stroke: #4e4e4e; stroke-width: 1.5"/>
   </g>
   <g id="line2d_31">
    <path d="M 775.694632 355.260644 
L 827.080236 355.260644 
" clip-path="url(#p94fcce7078)" style="fill: none; stroke: #4e4e4e; stroke-width: 1.5; stroke-linecap: round"/>
   </g>
   <g id="line2d_32">
    <path d="M 775.694632 252.106267 
L 827.080236 252.106267 
" clip-path="url(#p94fcce7078)" style="fill: none; stroke: #4e4e4e; stroke-width: 1.5; stroke-linecap: round"/>
   </g>
   <g id="line2d_33"/>
   <g id="patch_18">
    <path d="M 955.544248 303.944943 
L 1058.315458 303.944943 
L 1058.315458 294.600633 
L 955.544248 294.600633 
L 955.544248 303.944943 
z
" clip-path="url(#p94fcce7078)" style="fill: #d7962e; opacity: 0.35; stroke: #4e4e4e; stroke-width: 1.5; stroke-linejoin: miter"/>
   </g>
   <g id="line2d_34">
    <path d="M 1006.929853 303.944943 
L 1006.929853 308.617099 
" clip-path="url(#p94fcce7078)" style="fill: none; stroke: #4e4e4e; stroke-width: 1.5"/>
   </g>
   <g id="line2d_35">
    <path d="M 1006.929853 294.600633 
L 1006.929853 289.928477 
" clip-path="url(#p94fcce7078)" style="fill: none; stroke: #4e4e4e; stroke-width: 1.5"/>
   </g>
   <g id="line2d_36">
    <path d="M 981.237051 308.617099 
L 1032.622656 308.617099 
" clip-path="url(#p94fcce7078)" style="fill: none; stroke: #4e4e4e; stroke-width: 1.5; stroke-linecap: round"/>
   </g>
   <g id="line2d_37">
    <path d="M 981.237051 289.928477 
L 1032.622656 289.928477 
" clip-path="url(#p94fcce7078)" style="fill: none; stroke: #4e4e4e; stroke-width: 1.5; stroke-linecap: round"/>
   </g>
   <g id="line2d_38"/>
   <g id="patch_19">
    <path d="M 1161.086668 336.872514 
L 1263.857877 336.872514 
L 1263.857877 218.622487 
L 1161.086668 218.622487 
L 1161.086668 336.872514 
z
" clip-path="url(#p94fcce7078)" style="fill: #4994c6; opacity: 0.35; stroke: #4e4e4e; stroke-width: 1.5; stroke-linejoin: miter"/>
   </g>
   <g id="line2d_39">
    <path d="M 1212.472272 336.872514 
L 1212.472272 512.857032 
" clip-path="url(#p94fcce7078)" style="fill: none; stroke: #4e4e4e; stroke-width: 1.5"/>
   </g>
   <g id="line2d_40">
    <path d="M 1212.472272 218.622487 
L 1212.472272 45.953032 
" clip-path="url(#p94fcce7078)" style="fill: none; stroke: #4e4e4e; stroke-width: 1.5"/>
   </g>
   <g id="line2d_41">
    <path d="M 1186.77947 512.857032 
L 1238.165075 512.857032 
" clip-path="url(#p94fcce7078)" style="fill: none; stroke: #4e4e4e; stroke-width: 1.5; stroke-linecap: round"/>
   </g>
   <g id="line2d_42">
    <path d="M 1186.77947 45.953032 
L 1238.165075 45.953032 
" clip-path="url(#p94fcce7078)" style="fill: none; stroke: #4e4e4e; stroke-width: 1.5; stroke-linecap: round"/>
   </g>
   <g id="line2d_43"/>
   <g id="line2d_44">
    <path d="M 750.001829 269.459987 
L 852.773039 269.459987 
" clip-path="url(#p94fcce7078)" style="fill: none; stroke: #4e4e4e; stroke-width: 1.5"/>
   </g>
   <g id="line2d_45">
    <path d="M 955.544248 299.272788 
L 1058.315458 299.272788 
" clip-path="url(#p94fcce7078)" style="fill: none; stroke: #4e4e4e; stroke-width: 1.5"/>
   </g>
   <g id="line2d_46">
    <path d="M 1161.086668 275.689528 
L 1263.857877 275.689528 
" clip-path="url(#p94fcce7078)" style="fill: none; stroke: #4e4e4e; stroke-width: 1.5"/>
   </g>
   <g id="patch_20">
    <path d="M 724.309027 536.202232 
L 724.309027 22.607832 
" style="fill: none; stroke: #cccccc; stroke-width: 1.25; stroke-linejoin: miter; stroke-linecap: square"/>
   </g>
   <g id="patch_21">
    <path d="M 1289.55068 536.202232 
L 1289.55068 22.607832 
" style="fill: none; stroke: #cccccc; stroke-width: 1.25; stroke-linejoin: miter; stroke-linecap: square"/>
   </g>
   <g id="patch_22">
    <path d="M 724.309027 536.202232 
L 1289.55068 536.202232 
" style="fill: none; stroke: #cccccc; stroke-width: 1.25; stroke-linejoin: miter; stroke-linecap: square"/>
   </g>
   <g id="patch_23">
    <path d="M 724.309027 22.607832 
L 1289.55068 22.607832 
" style="fill: none; stroke: #cccccc; stroke-width: 1.25; stroke-linejoin: miter; stroke-linecap: square"/>
   </g>
   <g id="PathCollection_4">
    <defs>
     <path id="C3_0_cd1e7b29f1" d="M 0 5 
C 1.326016 5 2.597899 4.473168 3.535534 3.535534 
C 4.473168 2.597899 5 1.326016 5 -0 
C 5 -1.326016 4.473168 -2.597899 3.535534 -3.535534 
C 2.597899 -4.473168 1.326016 -5 0 -5 
C -1.326016 -5 -2.597899 -4.473168 -3.535534 -3.535534 
C -4.473168 -2.597899 -5 -1.326016 -5 0 
C -5 1.326016 -4.473168 2.597899 -3.535534 3.535534 
C -2.597899 4.473168 -1.326016 5 0 5 
z
"/>
    </defs>
    <g clip-path="url(#p94fcce7078)">
     <use xlink:href="#C3_0_cd1e7b29f1" x="798.90468" y="252.106267" style="fill: #e74c3c; stroke: #ffffff; stroke-width: 0.8"/>
    </g>
    <g clip-path="url(#p94fcce7078)">
     <use xlink:href="#C3_0_cd1e7b29f1" x="798.132616" y="269.459987" style="fill: #e74c3c; stroke: #ffffff; stroke-width: 0.8"/>
    </g>
    <g clip-path="url(#p94fcce7078)">
     <use xlink:href="#C3_0_cd1e7b29f1" x="790.760991" y="355.260644" style="fill: #e74c3c; stroke: #ffffff; stroke-width: 0.8"/>
    </g>
   </g>
   <g id="PathCollection_5">
    <defs>
     <path id="C4_0_7fc92bab9f" d="M 0 5 
C 1.326016 5 2.597899 4.473168 3.535534 3.535534 
C 4.473168 2.597899 5 1.326016 5 -0 
C 5 -1.326016 4.473168 -2.597899 3.535534 -3.535534 
C 2.597899 -4.473168 1.326016 -5 0 -5 
C -1.326016 -5 -2.597899 -4.473168 -3.535534 -3.535534 
C -4.473168 -2.597899 -5 -1.326016 -5 0 
C -5 1.326016 -4.473168 2.597899 -3.535534 3.535534 
C -2.597899 4.473168 -1.326016 5 0 5 
z
"/>
    </defs>
    <g clip-path="url(#p94fcce7078)">
     <use xlink:href="#C4_0_7fc92bab9f" x="1004.353741" y="289.928477" style="fill: #f39c12; stroke: #ffffff; stroke-width: 0.8"/>
    </g>
    <g clip-path="url(#p94fcce7078)">
     <use xlink:href="#C4_0_7fc92bab9f" x="990.816379" y="308.617099" style="fill: #f39c12; stroke: #ffffff; stroke-width: 0.8"/>
    </g>
   </g>
   <g id="PathCollection_6">
    <defs>
     <path id="C5_0_a1b2bfb068" d="M 0 5 
C 1.326016 5 2.597899 4.473168 3.535534 3.535534 
C 4.473168 2.597899 5 1.326016 5 -0 
C 5 -1.326016 4.473168 -2.597899 3.535534 -3.535534 
C 2.597899 -4.473168 1.326016 -5 0 -5 
C -1.326016 -5 -2.597899 -4.473168 -3.535534 -3.535534 
C -4.473168 -2.597899 -5 -1.326016 -5 0 
C -5 1.326016 -4.473168 2.597899 -3.535534 3.535534 
C -2.597899 4.473168 -1.326016 5 0 5 
z
"/>
    </defs>
    <g clip-path="url(#p94fcce7078)">
     <use xlink:href="#C5_0_a1b2bfb068" x="1198.547175" y="219.178696" style="fill: #3498db; stroke: #ffffff; stroke-width: 0.8"/>
    </g>
    <g clip-path="url(#p94fcce7078)">
     <use xlink:href="#C5_0_a1b2bfb068" x="1199.181733" y="304.612394" style="fill: #3498db; stroke: #ffffff; stroke-width: 0.8"/>
    </g>
    <g clip-path="url(#p94fcce7078)">
     <use xlink:href="#C5_0_a1b2bfb068" x="1222.140019" y="224.96327" style="fill: #3498db; stroke: #ffffff; stroke-width: 0.8"/>
    </g>
    <g clip-path="url(#p94fcce7078)">
     <use xlink:href="#C5_0_a1b2bfb068" x="1217.666404" y="336.650031" style="fill: #3498db; stroke: #ffffff; stroke-width: 0.8"/>
    </g>
    <g clip-path="url(#p94fcce7078)">
     <use xlink:href="#C5_0_a1b2bfb068" x="1191.9075" y="512.857032" style="fill: #3498db; stroke: #ffffff; stroke-width: 0.8"/>
    </g>
    <g clip-path="url(#p94fcce7078)">
     <use xlink:href="#C5_0_a1b2bfb068" x="1231.571431" y="357.563488" style="fill: #3498db; stroke: #ffffff; stroke-width: 0.8"/>
    </g>
    <g clip-path="url(#p94fcce7078)">
     <use xlink:href="#C5_0_a1b2bfb068" x="1189.835367" y="337.539965" style="fill: #3498db; stroke: #ffffff; stroke-width: 0.8"/>
    </g>
    <g clip-path="url(#p94fcce7078)">
     <use xlink:href="#C5_0_a1b2bfb068" x="1195.876027" y="216.95386" style="fill: #3498db; stroke: #ffffff; stroke-width: 0.8"/>
    </g>
    <g clip-path="url(#p94fcce7078)">
     <use xlink:href="#C5_0_a1b2bfb068" x="1221.424044" y="238.312285" style="fill: #3498db; stroke: #ffffff; stroke-width: 0.8"/>
    </g>
    <g clip-path="url(#p94fcce7078)">
     <use xlink:href="#C5_0_a1b2bfb068" x="1200.187132" y="45.953032" style="fill: #3498db; stroke: #ffffff; stroke-width: 0.8"/>
    </g>
    <g clip-path="url(#p94fcce7078)">
     <use xlink:href="#C5_0_a1b2bfb068" x="1197.226623" y="124.400688" style="fill: #3498db; stroke: #ffffff; stroke-width: 0.8"/>
    </g>
    <g clip-path="url(#p94fcce7078)">
     <use xlink:href="#C5_0_a1b2bfb068" x="1215.688251" y="345.994341" style="fill: #3498db; stroke: #ffffff; stroke-width: 0.8"/>
    </g>
    <g clip-path="url(#p94fcce7078)">
     <use xlink:href="#C5_0_a1b2bfb068" x="1226.117949" y="265.90025" style="fill: #3498db; stroke: #ffffff; stroke-width: 0.8"/>
    </g>
    <g clip-path="url(#p94fcce7078)">
     <use xlink:href="#C5_0_a1b2bfb068" x="1198.038116" y="285.478805" style="fill: #3498db; stroke: #ffffff; stroke-width: 0.8"/>
    </g>
    <g clip-path="url(#p94fcce7078)">
     <use xlink:href="#C5_0_a1b2bfb068" x="1213.879936" y="302.970123" style="fill: #3498db; stroke: #ffffff; stroke-width: 0.8"/>
    </g>
    <g clip-path="url(#p94fcce7078)">
     <use xlink:href="#C5_0_a1b2bfb068" x="1189.942967" y="195.150469" style="fill: #3498db; stroke: #ffffff; stroke-width: 0.8"/>
    </g>
   </g>
   <g id="patch_24">
    <path d="M 808.89885 251.374733 
Q 806.138918 251.643522 803.378986 251.912311 
" style="fill: none; stroke: #e74c3c; stroke-width: 0.7; stroke-linecap: round"/>
   </g>
   <g id="text_26">
    <!-- DeepSeek-V3.2 -->
    <g style="fill: #e74c3c" transform="translate(813.387434 250.106267) scale(0.085 -0.085)">
     <use xlink:href="#DejaVuSans-Oblique-44"/>
     <use xlink:href="#DejaVuSans-Oblique-65" transform="translate(77.001953 0)"/>
     <use xlink:href="#DejaVuSans-Oblique-65" transform="translate(138.525391 0)"/>
     <use xlink:href="#DejaVuSans-Oblique-70" transform="translate(200.048828 0)"/>
     <use xlink:href="#DejaVuSans-Oblique-53" transform="translate(263.525391 0)"/>
     <use xlink:href="#DejaVuSans-Oblique-65" transform="translate(327.001953 0)"/>
     <use xlink:href="#DejaVuSans-Oblique-65" transform="translate(388.525391 0)"/>
     <use xlink:href="#DejaVuSans-Oblique-6b" transform="translate(450.048828 0)"/>
     <use xlink:href="#DejaVuSans-Oblique-2d" transform="translate(507.958984 0)"/>
     <use xlink:href="#DejaVuSans-Oblique-56" transform="translate(540.042969 0)"/>
     <use xlink:href="#DejaVuSans-Oblique-33" transform="translate(608.451172 0)"/>
     <use xlink:href="#DejaVuSans-Oblique-2e" transform="translate(672.074219 0)"/>
     <use xlink:href="#DejaVuSans-Oblique-32" transform="translate(703.861328 0)"/>
    </g>
   </g>
   <g id="patch_25">
    <path d="M 1014.438316 289.227135 
Q 1011.679469 289.484831 1008.920622 289.742526 
" style="fill: none; stroke: #f39c12; stroke-width: 0.7; stroke-linecap: round"/>
   </g>
   <g id="text_27">
    <!-- gemini-2.5-flash -->
    <g style="fill: #f39c12" transform="translate(1018.929853 287.928477) scale(0.085 -0.085)">
     <use xlink:href="#DejaVuSans-Oblique-67"/>
     <use xlink:href="#DejaVuSans-Oblique-65" transform="translate(63.476562 0)"/>
     <use xlink:href="#DejaVuSans-Oblique-6d" transform="translate(125 0)"/>
     <use xlink:href="#DejaVuSans-Oblique-69" transform="translate(222.412109 0)"/>
     <use xlink:href="#DejaVuSans-Oblique-6e" transform="translate(250.195312 0)"/>
     <use xlink:href="#DejaVuSans-Oblique-69" transform="translate(313.574219 0)"/>
     <use xlink:href="#DejaVuSans-Oblique-2d" transform="translate(341.357422 0)"/>
     <use xlink:href="#DejaVuSans-Oblique-32" transform="translate(377.441406 0)"/>
     <use xlink:href="#DejaVuSans-Oblique-2e" transform="translate(441.064453 0)"/>
     <use xlink:href="#DejaVuSans-Oblique-35" transform="translate(472.851562 0)"/>
     <use xlink:href="#DejaVuSans-Oblique-2d" transform="translate(536.474609 0)"/>
     <use xlink:href="#DejaVuSans-Oblique-66" transform="translate(572.558594 0)"/>
     <use xlink:href="#DejaVuSans-Oblique-6c" transform="translate(607.763672 0)"/>
     <use xlink:href="#DejaVuSans-Oblique-61" transform="translate(635.546875 0)"/>
     <use xlink:href="#DejaVuSans-Oblique-73" transform="translate(696.826172 0)"/>
     <use xlink:href="#DejaVuSans-Oblique-68" transform="translate(748.925781 0)"/>
    </g>
   </g>
   <g id="patch_26">
    <path d="M 808.898413 268.757387 
Q 806.138642 269.015545 803.37887 269.273702 
" style="fill: none; stroke: #e74c3c; stroke-width: 0.7; stroke-linecap: round"/>
   </g>
   <g id="text_28">
    <!-- gemma-3-27b-it -->
    <g style="fill: #e74c3c" transform="translate(813.387434 267.459987) scale(0.085 -0.085)">
     <use xlink:href="#DejaVuSans-Oblique-67"/>
     <use xlink:href="#DejaVuSans-Oblique-65" transform="translate(63.476562 0)"/>
     <use xlink:href="#DejaVuSans-Oblique-6d" transform="translate(125 0)"/>
     <use xlink:href="#DejaVuSans-Oblique-6d" transform="translate(222.412109 0)"/>
     <use xlink:href="#DejaVuSans-Oblique-61" transform="translate(319.824219 0)"/>
     <use xlink:href="#DejaVuSans-Oblique-2d" transform="translate(381.103516 0)"/>
     <use xlink:href="#DejaVuSans-Oblique-33" transform="translate(417.1875 0)"/>
     <use xlink:href="#DejaVuSans-Oblique-2d" transform="translate(480.810547 0)"/>
     <use xlink:href="#DejaVuSans-Oblique-32" transform="translate(516.894531 0)"/>
     <use xlink:href="#DejaVuSans-Oblique-37" transform="translate(580.517578 0)"/>
     <use xlink:href="#DejaVuSans-Oblique-62" transform="translate(644.140625 0)"/>
     <use xlink:href="#DejaVuSans-Oblique-2d" transform="translate(707.617188 0)"/>
     <use xlink:href="#DejaVuSans-Oblique-69" transform="translate(743.701172 0)"/>
     <use xlink:href="#DejaVuSans-Oblique-74" transform="translate(771.484375 0)"/>
    </g>
   </g>
   <g id="patch_27">
    <path d="M 1014.429409 308.092108 
Q 1011.677497 308.28475 1008.925585 308.477392 
" style="fill: none; stroke: #f39c12; stroke-width: 0.7; stroke-linecap: round"/>
   </g>
   <g id="text_29">
    <!-- grok-4-1-fast-reasoning -->
    <g style="fill: #f39c12" transform="translate(1018.929853 306.617099) scale(0.085 -0.085)">
     <use xlink:href="#DejaVuSans-Oblique-67"/>
     <use xlink:href="#DejaVuSans-Oblique-72" transform="translate(63.476562 0)"/>
     <use xlink:href="#DejaVuSans-Oblique-6f" transform="translate(104.589844 0)"/>
     <use xlink:href="#DejaVuSans-Oblique-6b" transform="translate(165.771484 0)"/>
     <use xlink:href="#DejaVuSans-Oblique-2d" transform="translate(223.681641 0)"/>
     <use xlink:href="#DejaVuSans-Oblique-34" transform="translate(259.765625 0)"/>
     <use xlink:href="#DejaVuSans-Oblique-2d" transform="translate(323.388672 0)"/>
     <use xlink:href="#DejaVuSans-Oblique-31" transform="translate(359.472656 0)"/>
     <use xlink:href="#DejaVuSans-Oblique-2d" transform="translate(423.095703 0)"/>
     <use xlink:href="#DejaVuSans-Oblique-66" transform="translate(459.179688 0)"/>
     <use xlink:href="#DejaVuSans-Oblique-61" transform="translate(494.384766 0)"/>
     <use xlink:href="#DejaVuSans-Oblique-73" transform="translate(555.664062 0)"/>
     <use xlink:href="#DejaVuSans-Oblique-74" transform="translate(607.763672 0)"/>
     <use xlink:href="#DejaVuSans-Oblique-2d" transform="translate(646.972656 0)"/>
     <use xlink:href="#DejaVuSans-Oblique-72" transform="translate(683.056641 0)"/>
     <use xlink:href="#DejaVuSans-Oblique-65" transform="translate(724.169922 0)"/>
     <use xlink:href="#DejaVuSans-Oblique-61" transform="translate(785.693359 0)"/>
     <use xlink:href="#DejaVuSans-Oblique-73" transform="translate(846.972656 0)"/>
     <use xlink:href="#DejaVuSans-Oblique-6f" transform="translate(899.072266 0)"/>
     <use xlink:href="#DejaVuSans-Oblique-6e" transform="translate(960.253906 0)"/>
     <use xlink:href="#DejaVuSans-Oblique-69" transform="translate(1023.632812 0)"/>
     <use xlink:href="#DejaVuSans-Oblique-6e" transform="translate(1051.416016 0)"/>
     <use xlink:href="#DejaVuSans-Oblique-67" transform="translate(1114.794922 0)"/>
    </g>
   </g>
   <g id="patch_28">
    <path d="M 808.896771 354.444195 
Q 806.137603 354.744184 803.378435 355.044174 
" style="fill: none; stroke: #e74c3c; stroke-width: 0.7; stroke-linecap: round"/>
   </g>
   <g id="text_30">
    <!-- gpt-oss-120b -->
    <g style="fill: #e74c3c" transform="translate(813.387434 353.260644) scale(0.085 -0.085)">
     <use xlink:href="#DejaVuSans-Oblique-67"/>
     <use xlink:href="#DejaVuSans-Oblique-70" transform="translate(63.476562 0)"/>
     <use xlink:href="#DejaVuSans-Oblique-74" transform="translate(126.953125 0)"/>
     <use xlink:href="#DejaVuSans-Oblique-2d" transform="translate(166.162109 0)"/>
     <use xlink:href="#DejaVuSans-Oblique-6f" transform="translate(202.246094 0)"/>
     <use xlink:href="#DejaVuSans-Oblique-73" transform="translate(263.427734 0)"/>
     <use xlink:href="#DejaVuSans-Oblique-73" transform="translate(315.527344 0)"/>
     <use xlink:href="#DejaVuSans-Oblique-2d" transform="translate(367.626953 0)"/>
     <use xlink:href="#DejaVuSans-Oblique-31" transform="translate(403.710938 0)"/>
     <use xlink:href="#DejaVuSans-Oblique-32" transform="translate(467.333984 0)"/>
     <use xlink:href="#DejaVuSans-Oblique-30" transform="translate(530.957031 0)"/>
     <use xlink:href="#DejaVuSans-Oblique-62" transform="translate(594.580078 0)"/>
    </g>
   </g>
   <g id="text_31">
    <g id="patch_29">
     <path d="M 1161.678659 62.891601 
L 1278.245847 62.891601 
Q 1282.245847 62.891601 1282.245847 58.891601 
L 1282.245847 38.015664 
Q 1282.245847 34.015664 1278.245847 34.015664 
L 1161.678659 34.015664 
Q 1157.678659 34.015664 1157.678659 38.015664 
L 1157.678659 58.891601 
Q 1157.678659 62.891601 1161.678659 62.891601 
z
" style="fill: #ffffe0; opacity: 0.9; stroke: #ffffff; stroke-linejoin: miter"/>
    </g>
    <!-- Kruskal-Wallis H = 0.59 -->
    <g style="fill: #262626" transform="translate(1161.678659 45.614101) scale(0.1 -0.1)">
     <use xlink:href="#DejaVuSans-4b"/>
     <use xlink:href="#DejaVuSans-72" transform="translate(65.576172 0)"/>
     <use xlink:href="#DejaVuSans-75" transform="translate(106.689453 0)"/>
     <use xlink:href="#DejaVuSans-73" transform="translate(170.068359 0)"/>
     <use xlink:href="#DejaVuSans-6b" transform="translate(222.167969 0)"/>
     <use xlink:href="#DejaVuSans-61" transform="translate(278.328125 0)"/>
     <use xlink:href="#DejaVuSans-6c" transform="translate(339.607422 0)"/>
     <use xlink:href="#DejaVuSans-2d" transform="translate(367.390625 0)"/>
     <use xlink:href="#DejaVuSans-57" transform="translate(399.474609 0)"/>
     <use xlink:href="#DejaVuSans-61" transform="translate(491.976562 0)"/>
     <use xlink:href="#DejaVuSans-6c" transform="translate(553.255859 0)"/>
     <use xlink:href="#DejaVuSans-6c" transform="translate(581.039062 0)"/>
     <use xlink:href="#DejaVuSans-69" transform="translate(608.822266 0)"/>
     <use xlink:href="#DejaVuSans-73" transform="translate(636.605469 0)"/>
     <use xlink:href="#DejaVuSans-20" transform="translate(688.705078 0)"/>
     <use xlink:href="#DejaVuSans-48" transform="translate(720.492188 0)"/>
     <use xlink:href="#DejaVuSans-20" transform="translate(795.6875 0)"/>
     <use xlink:href="#DejaVuSans-3d" transform="translate(827.474609 0)"/>
     <use xlink:href="#DejaVuSans-20" transform="translate(911.263672 0)"/>
     <use xlink:href="#DejaVuSans-30" transform="translate(943.050781 0)"/>
     <use xlink:href="#DejaVuSans-2e" transform="translate(1006.673828 0)"/>
     <use xlink:href="#DejaVuSans-35" transform="translate(1038.460938 0)"/>
     <use xlink:href="#DejaVuSans-39" transform="translate(1102.083984 0)"/>
    </g>
    <!-- p = 0.7428 (n.s.) -->
    <g style="fill: #262626" transform="translate(1193.286472 56.811914) scale(0.1 -0.1)">
     <use xlink:href="#DejaVuSans-70"/>
     <use xlink:href="#DejaVuSans-20" transform="translate(63.476562 0)"/>
     <use xlink:href="#DejaVuSans-3d" transform="translate(95.263672 0)"/>
     <use xlink:href="#DejaVuSans-20" transform="translate(179.052734 0)"/>
     <use xlink:href="#DejaVuSans-30" transform="translate(210.839844 0)"/>
     <use xlink:href="#DejaVuSans-2e" transform="translate(274.462891 0)"/>
     <use xlink:href="#DejaVuSans-37" transform="translate(306.25 0)"/>
     <use xlink:href="#DejaVuSans-34" transform="translate(369.873047 0)"/>
     <use xlink:href="#DejaVuSans-32" transform="translate(433.496094 0)"/>
     <use xlink:href="#DejaVuSans-38" transform="translate(497.119141 0)"/>
     <use xlink:href="#DejaVuSans-20" transform="translate(560.742188 0)"/>
     <use xlink:href="#DejaVuSans-28" transform="translate(592.529297 0)"/>
     <use xlink:href="#DejaVuSans-6e" transform="translate(631.542969 0)"/>
     <use xlink:href="#DejaVuSans-2e" transform="translate(694.921875 0)"/>
     <use xlink:href="#DejaVuSans-73" transform="translate(726.708984 0)"/>
     <use xlink:href="#DejaVuSans-2e" transform="translate(778.808594 0)"/>
     <use xlink:href="#DejaVuSans-29" transform="translate(810.595703 0)"/>
    </g>
   </g>
   <g id="text_32">
    <!-- B -->
    <g style="fill: #262626" transform="translate(662.32157 23.916562) scale(0.22 -0.22)">
     <defs>
      <path id="DejaVuSans-Bold-42" d="M 2456 2859 
Q 2741 2859 2887 2984 
Q 3034 3109 3034 3353 
Q 3034 3594 2887 3720 
Q 2741 3847 2456 3847 
L 1791 3847 
L 1791 2859 
L 2456 2859 
z
M 2497 819 
Q 2859 819 3042 972 
Q 3225 1125 3225 1434 
Q 3225 1738 3044 1889 
Q 2863 2041 2497 2041 
L 1791 2041 
L 1791 819 
L 2497 819 
z
M 3616 2497 
Q 4003 2384 4215 2081 
Q 4428 1778 4428 1338 
Q 4428 663 3972 331 
Q 3516 0 2584 0 
L 588 0 
L 588 4666 
L 2394 4666 
Q 3366 4666 3802 4372 
Q 4238 4078 4238 3431 
Q 4238 3091 4078 2852 
Q 3919 2613 3616 2497 
z
" transform="scale(0.015625)"/>
     </defs>
     <use xlink:href="#DejaVuSans-Bold-42"/>
    </g>
   </g>
   <g id="LineCollection_4">
    <path d="M 764.389799 292.275633 
L 838.385069 292.275633 
" clip-path="url(#p94fcce7078)" style="fill: none; stroke-dasharray: 7.4,3.2; stroke-dashoffset: 0; stroke: #000000; stroke-width: 2"/>
   </g>
   <g id="LineCollection_5">
    <path d="M 969.932218 299.272788 
L 1043.927489 299.272788 
" clip-path="url(#p94fcce7078)" style="fill: none; stroke-dasharray: 7.4,3.2; stroke-dashoffset: 0; stroke: #000000; stroke-width: 2"/>
   </g>
   <g id="LineCollection_6">
    <path d="M 1175.474637 269.654921 
L 1249.469908 269.654921 
" clip-path="url(#p94fcce7078)" style="fill: none; stroke-dasharray: 7.4,3.2; stroke-dashoffset: 0; stroke: #000000; stroke-width: 2"/>
   </g>
  </g>
 </g>
 <defs>
  <clipPath id="pb8a6c755d1">
   <rect x="92.054936" y="22.607832" width="565.241653" height="513.5944"/>
  </clipPath>
  <clipPath id="p94fcce7078">
   <rect x="724.309027" y="22.607832" width="565.241653" height="513.5944"/>
  </clipPath>
 </defs>
</svg>
