<?xml version="1.0" encoding="utf-8" standalone="no"?>
<!DOCTYPE svg PUBLIC "-//W3C//DTD SVG 1.1//EN"
  "http://www.w3.org/Graphics/SVG/1.1/DTD/svg11.dtd">
<svg xmlns:xlink="http://www.w3.org/1999/xlink" width="849.090904pt" height="562.154188pt" viewBox="0 0 849.090904 562.154188" xmlns="http://www.w3.org/2000/svg" version="1.1">
 <metadata>
  <rdf:RDF xmlns:dc="http://purl.org/dc/elements/1.1/" xmlns:cc="http://creativecommons.org/ns#" xmlns:rdf="http://www.w3.org/1999/02/22-rdf-syntax-ns#">
   <cc:Work>
    <dc:type rdf:resource="http://purl.org/dc/dcmitype/StillImage"/>
    <dc:date>2026-03-11T16:54:28.065627</dc:date>
    <dc:format>image/svg+xml</dc:format>
    <dc:creator>
     <cc:Agent>
      <dc:title>Matplotlib v3.10.8, https://matplotlib.org/</dc:title>
     </cc:Agent>
    </dc:creator>
   </cc:Work>
  </rdf:RDF>
 </metadata>
 <defs>
  <style type="text/css">*{stroke-linejoin: round; stroke-linecap: butt}</style>
 </defs>
 <g id="figure_1">
  <g id="patch_1">
   <path d="M 0 562.154188 
L 849.090904 562.154188 
L 849.090904 0 
L 0 0 
z
" style="fill: #ffffff"/>
  </g>
  <g id="axes_1">
   <g id="patch_2">
    <path d="M 46.060313 511.452 
L 791.196676 511.452 
L 791.196676 7.2 
L 46.060313 7.2 
z
" style="fill: #ffffff"/>
   </g>
   <g id="matplotlib.axis_1">
    <g id="xtick_1">
     <g id="line2d_1">
      <path d="M 201.100546 511.452 
L 201.100546 7.2 
" clip-path="url(#p012fbefb2a)" style="fill: none; stroke-dasharray: 1,1.65; stroke-dashoffset: 0; stroke: #cccccc; stroke-opacity: 0.3"/>
     </g>
     <g id="text_1">
      <!-- $\mathdefault{10^{1}}$ -->
      <g style="fill: #262626" transform="translate(188.780546 531.589812) scale(0.14 -0.14)">
       <defs>
        <path id="DejaVuSans-31" d="M 794 531 
L 1825 531 
L 1825 4091 
L 703 3866 
L 703 4441 
L 1819 4666 
L 2450 4666 
L 2450 531 
L 3481 531 
L 3481 0 
L 794 0 
L 794 531 
z
" transform="scale(0.015625)"/>
        <path id="DejaVuSans-30" d="M 2034 4250 
Q 1547 4250 1301 3770 
Q 1056 3291 1056 2328 
Q 1056 1369 1301 889 
Q 1547 409 2034 409 
Q 2525 409 2770 889 
Q 3016 1369 3016 2328 
Q 3016 3291 2770 3770 
Q 2525 4250 2034 4250 
z
M 2034 4750 
Q 2819 4750 3233 4129 
Q 3647 3509 3647 2328 
Q 3647 1150 3233 529 
Q 2819 -91 2034 -91 
Q 1250 -91 836 529 
Q 422 1150 422 2328 
Q 422 3509 836 4129 
Q 1250 4750 2034 4750 
z
" transform="scale(0.015625)"/>
       </defs>
       <use xlink:href="#DejaVuSans-31" transform="translate(0 0.684375)"/>
       <use xlink:href="#DejaVuSans-30" transform="translate(63.623047 0.684375)"/>
       <use xlink:href="#DejaVuSans-31" transform="translate(128.203125 38.965625) scale(0.7)"/>
      </g>
     </g>
    </g>
    <g id="xtick_2">
     <g id="line2d_2">
      <path d="M 505.594682 511.452 
L 505.594682 7.2 
" clip-path="url(#p012fbefb2a)" style="fill: none; stroke-dasharray: 1,1.65; stroke-dashoffset: 0; stroke: #cccccc; stroke-opacity: 0.3"/>
     </g>
     <g id="text_2">
      <!-- $\mathdefault{10^{2}}$ -->
      <g style="fill: #262626" transform="translate(493.274682 531.589812) scale(0.14 -0.14)">
       <defs>
        <path id="DejaVuSans-32" d="M 1228 531 
L 3431 531 
L 3431 0 
L 469 0 
L 469 531 
Q 828 903 1448 1529 
Q 2069 2156 2228 2338 
Q 2531 2678 2651 2914 
Q 2772 3150 2772 3378 
Q 2772 3750 2511 3984 
Q 2250 4219 1831 4219 
Q 1534 4219 1204 4116 
Q 875 4013 500 3803 
L 500 4441 
Q 881 4594 1212 4672 
Q 1544 4750 1819 4750 
Q 2544 4750 2975 4387 
Q 3406 4025 3406 3419 
Q 3406 3131 3298 2873 
Q 3191 2616 2906 2266 
Q 2828 2175 2409 1742 
Q 1991 1309 1228 531 
z
" transform="scale(0.015625)"/>
       </defs>
       <use xlink:href="#DejaVuSans-31" transform="translate(0 0.765625)"/>
       <use xlink:href="#DejaVuSans-30" transform="translate(63.623047 0.765625)"/>
       <use xlink:href="#DejaVuSans-32" transform="translate(128.203125 39.046875) scale(0.7)"/>
      </g>
     </g>
    </g>
    <g id="xtick_3"/>
    <g id="xtick_4"/>
    <g id="xtick_5"/>
    <g id="xtick_6"/>
    <g id="xtick_7"/>
    <g id="xtick_8"/>
    <g id="xtick_9"/>
    <g id="xtick_10"/>
    <g id="xtick_11"/>
    <g id="xtick_12"/>
    <g id="xtick_13"/>
    <g id="xtick_14"/>
    <g id="xtick_15"/>
    <g id="xtick_16"/>
    <g id="xtick_17"/>
    <g id="xtick_18"/>
    <g id="xtick_19"/>
    <g id="xtick_20"/>
    <g id="xtick_21"/>
    <g id="xtick_22"/>
    <g id="xtick_23"/>
    <g id="text_3">
     <!-- Model Size (Billion Parameters) -->
     <g style="fill: #262626" transform="translate(267.774744 551.418719) scale(0.17 -0.17)">
      <defs>
       <path id="DejaVuSans-Bold-4d" d="M 588 4666 
L 2119 4666 
L 3181 2169 
L 4250 4666 
L 5778 4666 
L 5778 0 
L 4641 0 
L 4641 3413 
L 3566 897 
L 2803 897 
L 1728 3413 
L 1728 0 
L 588 0 
L 588 4666 
z
" transform="scale(0.015625)"/>
       <path id="DejaVuSans-Bold-6f" d="M 2203 2784 
Q 1831 2784 1636 2517 
Q 1441 2250 1441 1747 
Q 1441 1244 1636 976 
Q 1831 709 2203 709 
Q 2569 709 2762 976 
Q 2956 1244 2956 1747 
Q 2956 2250 2762 2517 
Q 2569 2784 2203 2784 
z
M 2203 3584 
Q 3106 3584 3614 3096 
Q 4122 2609 4122 1747 
Q 4122 884 3614 396 
Q 3106 -91 2203 -91 
Q 1297 -91 786 396 
Q 275 884 275 1747 
Q 275 2609 786 3096 
Q 1297 3584 2203 3584 
z
" transform="scale(0.015625)"/>
       <path id="DejaVuSans-Bold-64" d="M 2919 2988 
L 2919 4863 
L 4044 4863 
L 4044 0 
L 2919 0 
L 2919 506 
Q 2688 197 2409 53 
Q 2131 -91 1766 -91 
Q 1119 -91 703 423 
Q 288 938 288 1747 
Q 288 2556 703 3070 
Q 1119 3584 1766 3584 
Q 2128 3584 2408 3439 
Q 2688 3294 2919 2988 
z
M 2181 722 
Q 2541 722 2730 984 
Q 2919 1247 2919 1747 
Q 2919 2247 2730 2509 
Q 2541 2772 2181 2772 
Q 1825 2772 1636 2509 
Q 1447 2247 1447 1747 
Q 1447 1247 1636 984 
Q 1825 722 2181 722 
z
" transform="scale(0.015625)"/>
       <path id="DejaVuSans-Bold-65" d="M 4031 1759 
L 4031 1441 
L 1416 1441 
Q 1456 1047 1700 850 
Q 1944 653 2381 653 
Q 2734 653 3104 758 
Q 3475 863 3866 1075 
L 3866 213 
Q 3469 63 3072 -14 
Q 2675 -91 2278 -91 
Q 1328 -91 801 392 
Q 275 875 275 1747 
Q 275 2603 792 3093 
Q 1309 3584 2216 3584 
Q 3041 3584 3536 3087 
Q 4031 2591 4031 1759 
z
M 2881 2131 
Q 2881 2450 2695 2645 
Q 2509 2841 2209 2841 
Q 1884 2841 1681 2658 
Q 1478 2475 1428 2131 
L 2881 2131 
z
" transform="scale(0.015625)"/>
       <path id="DejaVuSans-Bold-6c" d="M 538 4863 
L 1656 4863 
L 1656 0 
L 538 0 
L 538 4863 
z
" transform="scale(0.015625)"/>
       <path id="DejaVuSans-Bold-20" transform="scale(0.015625)"/>
       <path id="DejaVuSans-Bold-53" d="M 3834 4519 
L 3834 3531 
Q 3450 3703 3084 3790 
Q 2719 3878 2394 3878 
Q 1963 3878 1756 3759 
Q 1550 3641 1550 3391 
Q 1550 3203 1689 3098 
Q 1828 2994 2194 2919 
L 2706 2816 
Q 3484 2659 3812 2340 
Q 4141 2022 4141 1434 
Q 4141 663 3683 286 
Q 3225 -91 2284 -91 
Q 1841 -91 1394 -6 
Q 947 78 500 244 
L 500 1259 
Q 947 1022 1364 901 
Q 1781 781 2169 781 
Q 2563 781 2772 912 
Q 2981 1044 2981 1288 
Q 2981 1506 2839 1625 
Q 2697 1744 2272 1838 
L 1806 1941 
Q 1106 2091 782 2419 
Q 459 2747 459 3303 
Q 459 4000 909 4375 
Q 1359 4750 2203 4750 
Q 2588 4750 2994 4692 
Q 3400 4634 3834 4519 
z
" transform="scale(0.015625)"/>
       <path id="DejaVuSans-Bold-69" d="M 538 3500 
L 1656 3500 
L 1656 0 
L 538 0 
L 538 3500 
z
M 538 4863 
L 1656 4863 
L 1656 3950 
L 538 3950 
L 538 4863 
z
" transform="scale(0.015625)"/>
       <path id="DejaVuSans-Bold-7a" d="M 366 3500 
L 3419 3500 
L 3419 2719 
L 1575 800 
L 3419 800 
L 3419 0 
L 288 0 
L 288 781 
L 2131 2700 
L 366 2700 
L 366 3500 
z
" transform="scale(0.015625)"/>
       <path id="DejaVuSans-Bold-28" d="M 2413 -844 
L 1484 -844 
Q 1006 -72 778 623 
Q 550 1319 550 2003 
Q 550 2688 779 3389 
Q 1009 4091 1484 4856 
L 2413 4856 
Q 2013 4116 1813 3408 
Q 1613 2700 1613 2009 
Q 1613 1319 1811 609 
Q 2009 -100 2413 -844 
z
" transform="scale(0.015625)"/>
       <path id="DejaVuSans-Bold-42" d="M 2456 2859 
Q 2741 2859 2887 2984 
Q 3034 3109 3034 3353 
Q 3034 3594 2887 3720 
Q 2741 3847 2456 3847 
L 1791 3847 
L 1791 2859 
L 2456 2859 
z
M 2497 819 
Q 2859 819 3042 972 
Q 3225 1125 3225 1434 
Q 3225 1738 3044 1889 
Q 2863 2041 2497 2041 
L 1791 2041 
L 1791 819 
L 2497 819 
z
M 3616 2497 
Q 4003 2384 4215 2081 
Q 4428 1778 4428 1338 
Q 4428 663 3972 331 
Q 3516 0 2584 0 
L 588 0 
L 588 4666 
L 2394 4666 
Q 3366 4666 3802 4372 
Q 4238 4078 4238 3431 
Q 4238 3091 4078 2852 
Q 3919 2613 3616 2497 
z
" transform="scale(0.015625)"/>
       <path id="DejaVuSans-Bold-6e" d="M 4056 2131 
L 4056 0 
L 2931 0 
L 2931 347 
L 2931 1631 
Q 2931 2084 2911 2256 
Q 2891 2428 2841 2509 
Q 2775 2619 2662 2680 
Q 2550 2741 2406 2741 
Q 2056 2741 1856 2470 
Q 1656 2200 1656 1722 
L 1656 0 
L 538 0 
L 538 3500 
L 1656 3500 
L 1656 2988 
Q 1909 3294 2193 3439 
Q 2478 3584 2822 3584 
Q 3428 3584 3742 3212 
Q 4056 2841 4056 2131 
z
" transform="scale(0.015625)"/>
       <path id="DejaVuSans-Bold-50" d="M 588 4666 
L 2584 4666 
Q 3475 4666 3951 4270 
Q 4428 3875 4428 3144 
Q 4428 2409 3951 2014 
Q 3475 1619 2584 1619 
L 1791 1619 
L 1791 0 
L 588 0 
L 588 4666 
z
M 1791 3794 
L 1791 2491 
L 2456 2491 
Q 2806 2491 2997 2661 
Q 3188 2831 3188 3144 
Q 3188 3456 2997 3625 
Q 2806 3794 2456 3794 
L 1791 3794 
z
" transform="scale(0.015625)"/>
       <path id="DejaVuSans-Bold-61" d="M 2106 1575 
Q 1756 1575 1579 1456 
Q 1403 1338 1403 1106 
Q 1403 894 1545 773 
Q 1688 653 1941 653 
Q 2256 653 2472 879 
Q 2688 1106 2688 1447 
L 2688 1575 
L 2106 1575 
z
M 3816 1997 
L 3816 0 
L 2688 0 
L 2688 519 
Q 2463 200 2181 54 
Q 1900 -91 1497 -91 
Q 953 -91 614 226 
Q 275 544 275 1050 
Q 275 1666 698 1953 
Q 1122 2241 2028 2241 
L 2688 2241 
L 2688 2328 
Q 2688 2594 2478 2717 
Q 2269 2841 1825 2841 
Q 1466 2841 1156 2769 
Q 847 2697 581 2553 
L 581 3406 
Q 941 3494 1303 3539 
Q 1666 3584 2028 3584 
Q 2975 3584 3395 3211 
Q 3816 2838 3816 1997 
z
" transform="scale(0.015625)"/>
       <path id="DejaVuSans-Bold-72" d="M 3138 2547 
Q 2991 2616 2845 2648 
Q 2700 2681 2553 2681 
Q 2122 2681 1889 2404 
Q 1656 2128 1656 1613 
L 1656 0 
L 538 0 
L 538 3500 
L 1656 3500 
L 1656 2925 
Q 1872 3269 2151 3426 
Q 2431 3584 2822 3584 
Q 2878 3584 2943 3579 
Q 3009 3575 3134 3559 
L 3138 2547 
z
" transform="scale(0.015625)"/>
       <path id="DejaVuSans-Bold-6d" d="M 3781 2919 
Q 3994 3244 4286 3414 
Q 4578 3584 4928 3584 
Q 5531 3584 5847 3212 
Q 6163 2841 6163 2131 
L 6163 0 
L 5038 0 
L 5038 1825 
Q 5041 1866 5042 1909 
Q 5044 1953 5044 2034 
Q 5044 2406 4934 2573 
Q 4825 2741 4581 2741 
Q 4263 2741 4089 2478 
Q 3916 2216 3909 1719 
L 3909 0 
L 2784 0 
L 2784 1825 
Q 2784 2406 2684 2573 
Q 2584 2741 2328 2741 
Q 2006 2741 1831 2477 
Q 1656 2213 1656 1722 
L 1656 0 
L 531 0 
L 531 3500 
L 1656 3500 
L 1656 2988 
Q 1863 3284 2130 3434 
Q 2397 3584 2719 3584 
Q 3081 3584 3359 3409 
Q 3638 3234 3781 2919 
z
" transform="scale(0.015625)"/>
       <path id="DejaVuSans-Bold-74" d="M 1759 4494 
L 1759 3500 
L 2913 3500 
L 2913 2700 
L 1759 2700 
L 1759 1216 
Q 1759 972 1856 886 
Q 1953 800 2241 800 
L 2816 800 
L 2816 0 
L 1856 0 
Q 1194 0 917 276 
Q 641 553 641 1216 
L 641 2700 
L 84 2700 
L 84 3500 
L 641 3500 
L 641 4494 
L 1759 4494 
z
" transform="scale(0.015625)"/>
       <path id="DejaVuSans-Bold-73" d="M 3272 3391 
L 3272 2541 
Q 2913 2691 2578 2766 
Q 2244 2841 1947 2841 
Q 1628 2841 1473 2761 
Q 1319 2681 1319 2516 
Q 1319 2381 1436 2309 
Q 1553 2238 1856 2203 
L 2053 2175 
Q 2913 2066 3209 1816 
Q 3506 1566 3506 1031 
Q 3506 472 3093 190 
Q 2681 -91 1863 -91 
Q 1516 -91 1145 -36 
Q 775 19 384 128 
L 384 978 
Q 719 816 1070 734 
Q 1422 653 1784 653 
Q 2113 653 2278 743 
Q 2444 834 2444 1013 
Q 2444 1163 2330 1236 
Q 2216 1309 1875 1350 
L 1678 1375 
Q 931 1469 631 1722 
Q 331 1975 331 2491 
Q 331 3047 712 3315 
Q 1094 3584 1881 3584 
Q 2191 3584 2531 3537 
Q 2872 3491 3272 3391 
z
" transform="scale(0.015625)"/>
       <path id="DejaVuSans-Bold-29" d="M 513 -844 
Q 913 -100 1113 609 
Q 1313 1319 1313 2009 
Q 1313 2700 1113 3408 
Q 913 4116 513 4856 
L 1441 4856 
Q 1916 4091 2145 3389 
Q 2375 2688 2375 2003 
Q 2375 1319 2147 623 
Q 1919 -72 1441 -844 
L 513 -844 
z
" transform="scale(0.015625)"/>
      </defs>
      <use xlink:href="#DejaVuSans-Bold-4d"/>
      <use xlink:href="#DejaVuSans-Bold-6f" transform="translate(99.511719 0)"/>
      <use xlink:href="#DejaVuSans-Bold-64" transform="translate(168.212891 0)"/>
      <use xlink:href="#DejaVuSans-Bold-65" transform="translate(239.794922 0)"/>
      <use xlink:href="#DejaVuSans-Bold-6c" transform="translate(307.617188 0)"/>
      <use xlink:href="#DejaVuSans-Bold-20" transform="translate(341.894531 0)"/>
      <use xlink:href="#DejaVuSans-Bold-53" transform="translate(376.708984 0)"/>
      <use xlink:href="#DejaVuSans-Bold-69" transform="translate(448.730469 0)"/>
      <use xlink:href="#DejaVuSans-Bold-7a" transform="translate(483.007812 0)"/>
      <use xlink:href="#DejaVuSans-Bold-65" transform="translate(541.210938 0)"/>
      <use xlink:href="#DejaVuSans-Bold-20" transform="translate(609.033203 0)"/>
      <use xlink:href="#DejaVuSans-Bold-28" transform="translate(643.847656 0)"/>
      <use xlink:href="#DejaVuSans-Bold-42" transform="translate(689.550781 0)"/>
      <use xlink:href="#DejaVuSans-Bold-69" transform="translate(765.771484 0)"/>
      <use xlink:href="#DejaVuSans-Bold-6c" transform="translate(800.048828 0)"/>
      <use xlink:href="#DejaVuSans-Bold-6c" transform="translate(834.326172 0)"/>
      <use xlink:href="#DejaVuSans-Bold-69" transform="translate(868.603516 0)"/>
      <use xlink:href="#DejaVuSans-Bold-6f" transform="translate(902.880859 0)"/>
      <use xlink:href="#DejaVuSans-Bold-6e" transform="translate(971.582031 0)"/>
      <use xlink:href="#DejaVuSans-Bold-20" transform="translate(1042.773438 0)"/>
      <use xlink:href="#DejaVuSans-Bold-50" transform="translate(1077.587891 0)"/>
      <use xlink:href="#DejaVuSans-Bold-61" transform="translate(1148.253906 0)"/>
      <use xlink:href="#DejaVuSans-Bold-72" transform="translate(1215.734375 0)"/>
      <use xlink:href="#DejaVuSans-Bold-61" transform="translate(1265.050781 0)"/>
      <use xlink:href="#DejaVuSans-Bold-6d" transform="translate(1332.53125 0)"/>
      <use xlink:href="#DejaVuSans-Bold-65" transform="translate(1436.730469 0)"/>
      <use xlink:href="#DejaVuSans-Bold-74" transform="translate(1504.552734 0)"/>
      <use xlink:href="#DejaVuSans-Bold-65" transform="translate(1552.355469 0)"/>
      <use xlink:href="#DejaVuSans-Bold-72" transform="translate(1620.177734 0)"/>
      <use xlink:href="#DejaVuSans-Bold-73" transform="translate(1669.494141 0)"/>
      <use xlink:href="#DejaVuSans-Bold-29" transform="translate(1729.015625 0)"/>
     </g>
    </g>
   </g>
   <g id="matplotlib.axis_2">
    <g id="ytick_1">
     <g id="line2d_3">
      <path d="M 46.060313 487.898261 
L 791.196676 487.898261 
" clip-path="url(#p012fbefb2a)" style="fill: none; stroke-dasharray: 1,1.65; stroke-dashoffset: 0; stroke: #cccccc; stroke-opacity: 0.3"/>
     </g>
     <g id="text_4">
      <!-- 1 -->
      <g style="fill: #262626" transform="translate(27.652813 493.217168) scale(0.14 -0.14)">
       <use xlink:href="#DejaVuSans-31"/>
      </g>
     </g>
    </g>
    <g id="ytick_2">
     <g id="line2d_4">
      <path d="M 46.060313 389.468241 
L 791.196676 389.468241 
" clip-path="url(#p012fbefb2a)" style="fill: none; stroke-dasharray: 1,1.65; stroke-dashoffset: 0; stroke: #cccccc; stroke-opacity: 0.3"/>
     </g>
     <g id="text_5">
      <!-- 2 -->
      <g style="fill: #262626" transform="translate(27.652813 394.787147) scale(0.14 -0.14)">
       <use xlink:href="#DejaVuSans-32"/>
      </g>
     </g>
    </g>
    <g id="ytick_3">
     <g id="line2d_5">
      <path d="M 46.060313 291.03822 
L 791.196676 291.03822 
" clip-path="url(#p012fbefb2a)" style="fill: none; stroke-dasharray: 1,1.65; stroke-dashoffset: 0; stroke: #cccccc; stroke-opacity: 0.3"/>
     </g>
     <g id="text_6">
      <!-- 3 -->
      <g style="fill: #262626" transform="translate(27.652813 296.357126) scale(0.14 -0.14)">
       <defs>
        <path id="DejaVuSans-33" d="M 2597 2516 
Q 3050 2419 3304 2112 
Q 3559 1806 3559 1356 
Q 3559 666 3084 287 
Q 2609 -91 1734 -91 
Q 1441 -91 1130 -33 
Q 819 25 488 141 
L 488 750 
Q 750 597 1062 519 
Q 1375 441 1716 441 
Q 2309 441 2620 675 
Q 2931 909 2931 1356 
Q 2931 1769 2642 2001 
Q 2353 2234 1838 2234 
L 1294 2234 
L 1294 2753 
L 1863 2753 
Q 2328 2753 2575 2939 
Q 2822 3125 2822 3475 
Q 2822 3834 2567 4026 
Q 2313 4219 1838 4219 
Q 1578 4219 1281 4162 
Q 984 4106 628 3988 
L 628 4550 
Q 988 4650 1302 4700 
Q 1616 4750 1894 4750 
Q 2613 4750 3031 4423 
Q 3450 4097 3450 3541 
Q 3450 3153 3228 2886 
Q 3006 2619 2597 2516 
z
" transform="scale(0.015625)"/>
       </defs>
       <use xlink:href="#DejaVuSans-33"/>
      </g>
     </g>
    </g>
    <g id="ytick_4">
     <g id="line2d_6">
      <path d="M 46.060313 192.608199 
L 791.196676 192.608199 
" clip-path="url(#p012fbefb2a)" style="fill: none; stroke-dasharray: 1,1.65; stroke-dashoffset: 0; stroke: #cccccc; stroke-opacity: 0.3"/>
     </g>
     <g id="text_7">
      <!-- 4 -->
      <g style="fill: #262626" transform="translate(27.652813 197.927105) scale(0.14 -0.14)">
       <defs>
        <path id="DejaVuSans-34" d="M 2419 4116 
L 825 1625 
L 2419 1625 
L 2419 4116 
z
M 2253 4666 
L 3047 4666 
L 3047 1625 
L 3713 1625 
L 3713 1100 
L 3047 1100 
L 3047 0 
L 2419 0 
L 2419 1100 
L 313 1100 
L 313 1709 
L 2253 4666 
z
" transform="scale(0.015625)"/>
       </defs>
       <use xlink:href="#DejaVuSans-34"/>
      </g>
     </g>
    </g>
    <g id="ytick_5">
     <g id="line2d_7">
      <path d="M 46.060313 94.178178 
L 791.196676 94.178178 
" clip-path="url(#p012fbefb2a)" style="fill: none; stroke-dasharray: 1,1.65; stroke-dashoffset: 0; stroke: #cccccc; stroke-opacity: 0.3"/>
     </g>
     <g id="text_8">
      <!-- 5 -->
      <g style="fill: #262626" transform="translate(27.652813 99.497084) scale(0.14 -0.14)">
       <defs>
        <path id="DejaVuSans-35" d="M 691 4666 
L 3169 4666 
L 3169 4134 
L 1269 4134 
L 1269 2991 
Q 1406 3038 1543 3061 
Q 1681 3084 1819 3084 
Q 2600 3084 3056 2656 
Q 3513 2228 3513 1497 
Q 3513 744 3044 326 
Q 2575 -91 1722 -91 
Q 1428 -91 1123 -41 
Q 819 9 494 109 
L 494 744 
Q 775 591 1075 516 
Q 1375 441 1709 441 
Q 2250 441 2565 725 
Q 2881 1009 2881 1497 
Q 2881 1984 2565 2268 
Q 2250 2553 1709 2553 
Q 1456 2553 1204 2497 
Q 953 2441 691 2322 
L 691 4666 
z
" transform="scale(0.015625)"/>
       </defs>
       <use xlink:href="#DejaVuSans-35"/>
      </g>
     </g>
    </g>
    <g id="text_9">
     <!-- Chameleon Index (CI) -->
     <g style="fill: #262626" transform="translate(20.117344 362.177328) rotate(-90) scale(0.17 -0.17)">
      <defs>
       <path id="DejaVuSans-Bold-43" d="M 4288 256 
Q 3956 84 3597 -3 
Q 3238 -91 2847 -91 
Q 1681 -91 1000 561 
Q 319 1213 319 2328 
Q 319 3447 1000 4098 
Q 1681 4750 2847 4750 
Q 3238 4750 3597 4662 
Q 3956 4575 4288 4403 
L 4288 3438 
Q 3953 3666 3628 3772 
Q 3303 3878 2944 3878 
Q 2300 3878 1931 3465 
Q 1563 3053 1563 2328 
Q 1563 1606 1931 1193 
Q 2300 781 2944 781 
Q 3303 781 3628 887 
Q 3953 994 4288 1222 
L 4288 256 
z
" transform="scale(0.015625)"/>
       <path id="DejaVuSans-Bold-68" d="M 4056 2131 
L 4056 0 
L 2931 0 
L 2931 347 
L 2931 1625 
Q 2931 2084 2911 2256 
Q 2891 2428 2841 2509 
Q 2775 2619 2662 2680 
Q 2550 2741 2406 2741 
Q 2056 2741 1856 2470 
Q 1656 2200 1656 1722 
L 1656 0 
L 538 0 
L 538 4863 
L 1656 4863 
L 1656 2988 
Q 1909 3294 2193 3439 
Q 2478 3584 2822 3584 
Q 3428 3584 3742 3212 
Q 4056 2841 4056 2131 
z
" transform="scale(0.015625)"/>
       <path id="DejaVuSans-Bold-49" d="M 588 4666 
L 1791 4666 
L 1791 0 
L 588 0 
L 588 4666 
z
" transform="scale(0.015625)"/>
       <path id="DejaVuSans-Bold-78" d="M 1422 1791 
L 159 3500 
L 1344 3500 
L 2059 2463 
L 2784 3500 
L 3969 3500 
L 2706 1797 
L 4031 0 
L 2847 0 
L 2059 1106 
L 1281 0 
L 97 0 
L 1422 1791 
z
" transform="scale(0.015625)"/>
      </defs>
      <use xlink:href="#DejaVuSans-Bold-43"/>
      <use xlink:href="#DejaVuSans-Bold-68" transform="translate(73.388672 0)"/>
      <use xlink:href="#DejaVuSans-Bold-61" transform="translate(144.580078 0)"/>
      <use xlink:href="#DejaVuSans-Bold-6d" transform="translate(212.060547 0)"/>
      <use xlink:href="#DejaVuSans-Bold-65" transform="translate(316.259766 0)"/>
      <use xlink:href="#DejaVuSans-Bold-6c" transform="translate(384.082031 0)"/>
      <use xlink:href="#DejaVuSans-Bold-65" transform="translate(418.359375 0)"/>
      <use xlink:href="#DejaVuSans-Bold-6f" transform="translate(486.181641 0)"/>
      <use xlink:href="#DejaVuSans-Bold-6e" transform="translate(554.882812 0)"/>
      <use xlink:href="#DejaVuSans-Bold-20" transform="translate(626.074219 0)"/>
      <use xlink:href="#DejaVuSans-Bold-49" transform="translate(660.888672 0)"/>
      <use xlink:href="#DejaVuSans-Bold-6e" transform="translate(698.095703 0)"/>
      <use xlink:href="#DejaVuSans-Bold-64" transform="translate(769.287109 0)"/>
      <use xlink:href="#DejaVuSans-Bold-65" transform="translate(840.869141 0)"/>
      <use xlink:href="#DejaVuSans-Bold-78" transform="translate(908.691406 0)"/>
      <use xlink:href="#DejaVuSans-Bold-20" transform="translate(973.193359 0)"/>
      <use xlink:href="#DejaVuSans-Bold-28" transform="translate(1008.007812 0)"/>
      <use xlink:href="#DejaVuSans-Bold-43" transform="translate(1053.710938 0)"/>
      <use xlink:href="#DejaVuSans-Bold-49" transform="translate(1127.099609 0)"/>
      <use xlink:href="#DejaVuSans-Bold-29" transform="translate(1164.306641 0)"/>
     </g>
    </g>
   </g>
   <g id="line2d_8">
    <path d="M 79.930147 188.274791 
L 210.508827 189.292704 
L 274.913246 190.310617 
L 318.036294 191.32853 
L 350.50168 192.346443 
L 376.547039 193.364356 
L 398.297048 194.382269 
L 416.969915 195.400182 
L 433.329389 196.418095 
L 447.886014 197.436008 
L 460.997995 198.453921 
L 472.926364 199.471834 
L 483.867226 200.489747 
L 493.97166 201.50766 
L 503.358522 202.525573 
L 512.123006 203.543486 
L 520.342538 204.561399 
L 528.080934 205.579312 
L 535.391422 206.597226 
L 542.318856 207.615139 
L 548.901387 208.633052 
L 555.171737 209.650965 
L 561.158181 210.668878 
L 566.885317 211.686791 
L 572.374681 212.704704 
L 577.645232 213.722617 
L 582.713746 214.74053 
L 587.595144 215.758443 
L 592.30275 216.776356 
L 596.848515 217.794269 
L 601.243198 218.812182 
L 605.49652 219.830095 
L 609.617292 220.848008 
L 613.613526 221.865921 
L 617.49253 222.883834 
L 621.260986 223.901747 
L 624.92502 224.91966 
L 628.490265 225.937573 
L 631.961908 226.955486 
L 635.344737 227.973399 
L 638.643185 228.991313 
L 641.861358 230.009226 
L 645.003071 231.027139 
L 648.071874 232.045052 
L 651.071073 233.062965 
L 654.003756 234.080878 
L 656.872809 235.098791 
L 659.680936 236.116704 
L 662.43067 237.134617 
L 665.12439 238.15253 
L 667.764333 239.170443 
L 670.352604 240.188356 
L 672.891187 241.206269 
L 675.381954 242.224182 
L 677.826672 243.242095 
L 680.227015 244.260008 
L 682.584563 245.277921 
L 684.900817 246.295834 
L 687.177198 247.313747 
L 689.415055 248.33166 
L 691.615671 249.349573 
L 693.780266 250.367486 
L 695.909998 251.3854 
L 698.005974 252.403313 
L 700.069247 253.421226 
L 702.100822 254.439139 
L 704.101658 255.457052 
L 706.072671 256.474965 
L 708.014737 257.492878 
L 709.928695 258.510791 
L 711.815346 259.528704 
L 713.675459 260.546617 
L 715.50977 261.56453 
L 717.318984 262.582443 
L 719.10378 263.600356 
L 720.864807 264.618269 
L 722.602691 265.636182 
L 724.318032 266.654095 
L 726.011407 267.672008 
L 727.683372 268.689921 
L 729.334461 269.707834 
L 730.96519 270.725747 
L 732.576053 271.74366 
L 734.16753 272.761573 
L 735.740082 273.779487 
L 737.294153 274.7974 
L 738.830172 275.815313 
L 740.348555 276.833226 
L 741.849701 277.851139 
L 743.333998 278.869052 
L 744.80182 279.886965 
L 746.253528 280.904878 
L 747.689472 281.922791 
L 749.109991 282.940704 
L 750.515413 283.958617 
L 751.906056 284.97653 
L 753.282226 285.994443 
L 754.644223 287.012356 
L 755.992334 288.030269 
L 757.326841 289.048182 
" clip-path="url(#p012fbefb2a)" style="fill: none; stroke-dasharray: 7.4,3.2; stroke-dashoffset: 0; stroke: #e74c3c; stroke-opacity: 0.7; stroke-width: 2"/>
   </g>
   <g id="patch_3">
    <path d="M 46.060313 511.452 
L 46.060313 7.2 
" style="fill: none; stroke: #cccccc; stroke-width: 1.25; stroke-linejoin: miter; stroke-linecap: square"/>
   </g>
   <g id="patch_4">
    <path d="M 791.196676 511.452 
L 791.196676 7.2 
" style="fill: none; stroke: #cccccc; stroke-width: 1.25; stroke-linejoin: miter; stroke-linecap: square"/>
   </g>
   <g id="patch_5">
    <path d="M 46.060313 511.452 
L 791.196676 511.452 
" style="fill: none; stroke: #cccccc; stroke-width: 1.25; stroke-linejoin: miter; stroke-linecap: square"/>
   </g>
   <g id="patch_6">
    <path d="M 46.060313 7.2 
L 791.196676 7.2 
" style="fill: none; stroke: #cccccc; stroke-width: 1.25; stroke-linejoin: miter; stroke-linecap: square"/>
   </g>
   <g id="PathCollection_1">
    <defs>
     <path id="m76e7d32018" d="M 0 5.477226 
C 1.452577 5.477226 2.845856 4.900111 3.872983 3.872983 
C 4.900111 2.845856 5.477226 1.452577 5.477226 0 
C 5.477226 -1.452577 4.900111 -2.845856 3.872983 -3.872983 
C 2.845856 -4.900111 1.452577 -5.477226 0 -5.477226 
C -1.452577 -5.477226 -2.845856 -4.900111 -3.872983 -3.872983 
C -4.900111 -2.845856 -5.477226 -1.452577 -5.477226 0 
C -5.477226 1.452577 -4.900111 2.845856 -3.872983 3.872983 
C -2.845856 4.900111 -1.452577 5.477226 0 5.477226 
z
" style="stroke: #ffffff; stroke-opacity: 0.8; stroke-width: 1.2"/>
    </defs>
    <g clip-path="url(#p012fbefb2a)">
     <use xlink:href="#m76e7d32018" x="245.595676" y="241.823209" style="fill: #2c3e50; fill-opacity: 0.8; stroke: #ffffff; stroke-opacity: 0.8; stroke-width: 1.2"/>
     <use xlink:href="#m76e7d32018" x="618.58267" y="96.326452" style="fill: #2c3e50; fill-opacity: 0.8; stroke: #ffffff; stroke-opacity: 0.8; stroke-width: 1.2"/>
     <use xlink:href="#m76e7d32018" x="354.915752" y="231.472433" style="fill: #2c3e50; fill-opacity: 0.8; stroke: #ffffff; stroke-opacity: 0.8; stroke-width: 1.2"/>
     <use xlink:href="#m76e7d32018" x="757.326841" y="360.759484" style="fill: #2c3e50; fill-opacity: 0.8; stroke: #ffffff; stroke-opacity: 0.8; stroke-width: 1.2"/>
     <use xlink:href="#m76e7d32018" x="225.210771" y="132.065924" style="fill: #2c3e50; fill-opacity: 0.8; stroke: #ffffff; stroke-opacity: 0.8; stroke-width: 1.2"/>
     <use xlink:href="#m76e7d32018" x="332.448283" y="30.120545" style="fill: #2c3e50; fill-opacity: 0.8; stroke: #ffffff; stroke-opacity: 0.8; stroke-width: 1.2"/>
     <use xlink:href="#m76e7d32018" x="79.930147" y="186.944567" style="fill: #2c3e50; fill-opacity: 0.8; stroke: #ffffff; stroke-opacity: 0.8; stroke-width: 1.2"/>
     <use xlink:href="#m76e7d32018" x="516.990831" y="211.74737" style="fill: #2c3e50; fill-opacity: 0.8; stroke: #ffffff; stroke-opacity: 0.8; stroke-width: 1.2"/>
     <use xlink:href="#m76e7d32018" x="458.427944" y="105.896038" style="fill: #2c3e50; fill-opacity: 0.8; stroke: #ffffff; stroke-opacity: 0.8; stroke-width: 1.2"/>
     <use xlink:href="#m76e7d32018" x="171.592016" y="488.531455" style="fill: #2c3e50; fill-opacity: 0.8; stroke: #ffffff; stroke-opacity: 0.8; stroke-width: 1.2"/>
     <use xlink:href="#m76e7d32018" x="245.595676" y="354.314662" style="fill: #2c3e50; fill-opacity: 0.8; stroke: #ffffff; stroke-opacity: 0.8; stroke-width: 1.2"/>
     <use xlink:href="#m76e7d32018" x="316.87264" y="173.078433" style="fill: #2c3e50; fill-opacity: 0.8; stroke: #ffffff; stroke-opacity: 0.8; stroke-width: 1.2"/>
     <use xlink:href="#m76e7d32018" x="405.750403" y="247.291544" style="fill: #2c3e50; fill-opacity: 0.8; stroke: #ffffff; stroke-opacity: 0.8; stroke-width: 1.2"/>
     <use xlink:href="#m76e7d32018" x="225.210771" y="112.536158" style="fill: #2c3e50; fill-opacity: 0.8; stroke: #ffffff; stroke-opacity: 0.8; stroke-width: 1.2"/>
     <use xlink:href="#m76e7d32018" x="529.704907" y="82.265021" style="fill: #2c3e50; fill-opacity: 0.8; stroke: #ffffff; stroke-opacity: 0.8; stroke-width: 1.2"/>
     <use xlink:href="#m76e7d32018" x="292.762415" y="161.942915" style="fill: #2c3e50; fill-opacity: 0.8; stroke: #ffffff; stroke-opacity: 0.8; stroke-width: 1.2"/>
    </g>
   </g>
   <g id="text_10">
    <!-- Qwen3-14B -->
    <g style="fill: #262626; opacity: 0.85" transform="translate(253.595676 235.823209) scale(0.1 -0.1)">
     <defs>
      <path id="DejaVuSans-51" d="M 2522 4238 
Q 1834 4238 1429 3725 
Q 1025 3213 1025 2328 
Q 1025 1447 1429 934 
Q 1834 422 2522 422 
Q 3209 422 3611 934 
Q 4013 1447 4013 2328 
Q 4013 3213 3611 3725 
Q 3209 4238 2522 4238 
z
M 3406 84 
L 4238 -825 
L 3475 -825 
L 2784 -78 
Q 2681 -84 2626 -87 
Q 2572 -91 2522 -91 
Q 1538 -91 948 567 
Q 359 1225 359 2328 
Q 359 3434 948 4092 
Q 1538 4750 2522 4750 
Q 3503 4750 4090 4092 
Q 4678 3434 4678 2328 
Q 4678 1516 4351 937 
Q 4025 359 3406 84 
z
" transform="scale(0.015625)"/>
      <path id="DejaVuSans-77" d="M 269 3500 
L 844 3500 
L 1563 769 
L 2278 3500 
L 2956 3500 
L 3675 769 
L 4391 3500 
L 4966 3500 
L 4050 0 
L 3372 0 
L 2619 2869 
L 1863 0 
L 1184 0 
L 269 3500 
z
" transform="scale(0.015625)"/>
      <path id="DejaVuSans-65" d="M 3597 1894 
L 3597 1613 
L 953 1613 
Q 991 1019 1311 708 
Q 1631 397 2203 397 
Q 2534 397 2845 478 
Q 3156 559 3463 722 
L 3463 178 
Q 3153 47 2828 -22 
Q 2503 -91 2169 -91 
Q 1331 -91 842 396 
Q 353 884 353 1716 
Q 353 2575 817 3079 
Q 1281 3584 2069 3584 
Q 2775 3584 3186 3129 
Q 3597 2675 3597 1894 
z
M 3022 2063 
Q 3016 2534 2758 2815 
Q 2500 3097 2075 3097 
Q 1594 3097 1305 2825 
Q 1016 2553 972 2059 
L 3022 2063 
z
" transform="scale(0.015625)"/>
      <path id="DejaVuSans-6e" d="M 3513 2113 
L 3513 0 
L 2938 0 
L 2938 2094 
Q 2938 2591 2744 2837 
Q 2550 3084 2163 3084 
Q 1697 3084 1428 2787 
Q 1159 2491 1159 1978 
L 1159 0 
L 581 0 
L 581 3500 
L 1159 3500 
L 1159 2956 
Q 1366 3272 1645 3428 
Q 1925 3584 2291 3584 
Q 2894 3584 3203 3211 
Q 3513 2838 3513 2113 
z
" transform="scale(0.015625)"/>
      <path id="DejaVuSans-2d" d="M 313 2009 
L 1997 2009 
L 1997 1497 
L 313 1497 
L 313 2009 
z
" transform="scale(0.015625)"/>
      <path id="DejaVuSans-42" d="M 1259 2228 
L 1259 519 
L 2272 519 
Q 2781 519 3026 730 
Q 3272 941 3272 1375 
Q 3272 1813 3026 2020 
Q 2781 2228 2272 2228 
L 1259 2228 
z
M 1259 4147 
L 1259 2741 
L 2194 2741 
Q 2656 2741 2882 2914 
Q 3109 3088 3109 3444 
Q 3109 3797 2882 3972 
Q 2656 4147 2194 4147 
L 1259 4147 
z
M 628 4666 
L 2241 4666 
Q 2963 4666 3353 4366 
Q 3744 4066 3744 3513 
Q 3744 3084 3544 2831 
Q 3344 2578 2956 2516 
Q 3422 2416 3680 2098 
Q 3938 1781 3938 1306 
Q 3938 681 3513 340 
Q 3088 0 2303 0 
L 628 0 
L 628 4666 
z
" transform="scale(0.015625)"/>
     </defs>
     <use xlink:href="#DejaVuSans-51"/>
     <use xlink:href="#DejaVuSans-77" transform="translate(78.710938 0)"/>
     <use xlink:href="#DejaVuSans-65" transform="translate(160.498047 0)"/>
     <use xlink:href="#DejaVuSans-6e" transform="translate(222.021484 0)"/>
     <use xlink:href="#DejaVuSans-33" transform="translate(285.400391 0)"/>
     <use xlink:href="#DejaVuSans-2d" transform="translate(349.023438 0)"/>
     <use xlink:href="#DejaVuSans-31" transform="translate(385.107422 0)"/>
     <use xlink:href="#DejaVuSans-34" transform="translate(448.730469 0)"/>
     <use xlink:href="#DejaVuSans-42" transform="translate(512.353516 0)"/>
    </g>
   </g>
   <g id="text_11">
    <!-- Qwen3-235B-A22B-Instruct-2507 -->
    <g style="fill: #262626; opacity: 0.85" transform="translate(626.58267 90.326452) scale(0.1 -0.1)">
     <defs>
      <path id="DejaVuSans-41" d="M 2188 4044 
L 1331 1722 
L 3047 1722 
L 2188 4044 
z
M 1831 4666 
L 2547 4666 
L 4325 0 
L 3669 0 
L 3244 1197 
L 1141 1197 
L 716 0 
L 50 0 
L 1831 4666 
z
" transform="scale(0.015625)"/>
      <path id="DejaVuSans-49" d="M 628 4666 
L 1259 4666 
L 1259 0 
L 628 0 
L 628 4666 
z
" transform="scale(0.015625)"/>
      <path id="DejaVuSans-73" d="M 2834 3397 
L 2834 2853 
Q 2591 2978 2328 3040 
Q 2066 3103 1784 3103 
Q 1356 3103 1142 2972 
Q 928 2841 928 2578 
Q 928 2378 1081 2264 
Q 1234 2150 1697 2047 
L 1894 2003 
Q 2506 1872 2764 1633 
Q 3022 1394 3022 966 
Q 3022 478 2636 193 
Q 2250 -91 1575 -91 
Q 1294 -91 989 -36 
Q 684 19 347 128 
L 347 722 
Q 666 556 975 473 
Q 1284 391 1588 391 
Q 1994 391 2212 530 
Q 2431 669 2431 922 
Q 2431 1156 2273 1281 
Q 2116 1406 1581 1522 
L 1381 1569 
Q 847 1681 609 1914 
Q 372 2147 372 2553 
Q 372 3047 722 3315 
Q 1072 3584 1716 3584 
Q 2034 3584 2315 3537 
Q 2597 3491 2834 3397 
z
" transform="scale(0.015625)"/>
      <path id="DejaVuSans-74" d="M 1172 4494 
L 1172 3500 
L 2356 3500 
L 2356 3053 
L 1172 3053 
L 1172 1153 
Q 1172 725 1289 603 
Q 1406 481 1766 481 
L 2356 481 
L 2356 0 
L 1766 0 
Q 1100 0 847 248 
Q 594 497 594 1153 
L 594 3053 
L 172 3053 
L 172 3500 
L 594 3500 
L 594 4494 
L 1172 4494 
z
" transform="scale(0.015625)"/>
      <path id="DejaVuSans-72" d="M 2631 2963 
Q 2534 3019 2420 3045 
Q 2306 3072 2169 3072 
Q 1681 3072 1420 2755 
Q 1159 2438 1159 1844 
L 1159 0 
L 581 0 
L 581 3500 
L 1159 3500 
L 1159 2956 
Q 1341 3275 1631 3429 
Q 1922 3584 2338 3584 
Q 2397 3584 2469 3576 
Q 2541 3569 2628 3553 
L 2631 2963 
z
" transform="scale(0.015625)"/>
      <path id="DejaVuSans-75" d="M 544 1381 
L 544 3500 
L 1119 3500 
L 1119 1403 
Q 1119 906 1312 657 
Q 1506 409 1894 409 
Q 2359 409 2629 706 
Q 2900 1003 2900 1516 
L 2900 3500 
L 3475 3500 
L 3475 0 
L 2900 0 
L 2900 538 
Q 2691 219 2414 64 
Q 2138 -91 1772 -91 
Q 1169 -91 856 284 
Q 544 659 544 1381 
z
M 1991 3584 
L 1991 3584 
z
" transform="scale(0.015625)"/>
      <path id="DejaVuSans-63" d="M 3122 3366 
L 3122 2828 
Q 2878 2963 2633 3030 
Q 2388 3097 2138 3097 
Q 1578 3097 1268 2742 
Q 959 2388 959 1747 
Q 959 1106 1268 751 
Q 1578 397 2138 397 
Q 2388 397 2633 464 
Q 2878 531 3122 666 
L 3122 134 
Q 2881 22 2623 -34 
Q 2366 -91 2075 -91 
Q 1284 -91 818 406 
Q 353 903 353 1747 
Q 353 2603 823 3093 
Q 1294 3584 2113 3584 
Q 2378 3584 2631 3529 
Q 2884 3475 3122 3366 
z
" transform="scale(0.015625)"/>
      <path id="DejaVuSans-37" d="M 525 4666 
L 3525 4666 
L 3525 4397 
L 1831 0 
L 1172 0 
L 2766 4134 
L 525 4134 
L 525 4666 
z
" transform="scale(0.015625)"/>
     </defs>
     <use xlink:href="#DejaVuSans-51"/>
     <use xlink:href="#DejaVuSans-77" transform="translate(78.710938 0)"/>
     <use xlink:href="#DejaVuSans-65" transform="translate(160.498047 0)"/>
     <use xlink:href="#DejaVuSans-6e" transform="translate(222.021484 0)"/>
     <use xlink:href="#DejaVuSans-33" transform="translate(285.400391 0)"/>
     <use xlink:href="#DejaVuSans-2d" transform="translate(349.023438 0)"/>
     <use xlink:href="#DejaVuSans-32" transform="translate(385.107422 0)"/>
     <use xlink:href="#DejaVuSans-33" transform="translate(448.730469 0)"/>
     <use xlink:href="#DejaVuSans-35" transform="translate(512.353516 0)"/>
     <use xlink:href="#DejaVuSans-42" transform="translate(575.976562 0)"/>
     <use xlink:href="#DejaVuSans-2d" transform="translate(644.580078 0)"/>
     <use xlink:href="#DejaVuSans-41" transform="translate(678.414062 0)"/>
     <use xlink:href="#DejaVuSans-32" transform="translate(746.822266 0)"/>
     <use xlink:href="#DejaVuSans-32" transform="translate(810.445312 0)"/>
     <use xlink:href="#DejaVuSans-42" transform="translate(874.068359 0)"/>
     <use xlink:href="#DejaVuSans-2d" transform="translate(942.671875 0)"/>
     <use xlink:href="#DejaVuSans-49" transform="translate(978.755859 0)"/>
     <use xlink:href="#DejaVuSans-6e" transform="translate(1008.248047 0)"/>
     <use xlink:href="#DejaVuSans-73" transform="translate(1071.626953 0)"/>
     <use xlink:href="#DejaVuSans-74" transform="translate(1123.726562 0)"/>
     <use xlink:href="#DejaVuSans-72" transform="translate(1162.935547 0)"/>
     <use xlink:href="#DejaVuSans-75" transform="translate(1204.048828 0)"/>
     <use xlink:href="#DejaVuSans-63" transform="translate(1267.427734 0)"/>
     <use xlink:href="#DejaVuSans-74" transform="translate(1322.408203 0)"/>
     <use xlink:href="#DejaVuSans-2d" transform="translate(1361.617188 0)"/>
     <use xlink:href="#DejaVuSans-32" transform="translate(1397.701172 0)"/>
     <use xlink:href="#DejaVuSans-35" transform="translate(1461.324219 0)"/>
     <use xlink:href="#DejaVuSans-30" transform="translate(1524.947266 0)"/>
     <use xlink:href="#DejaVuSans-37" transform="translate(1588.570312 0)"/>
    </g>
   </g>
   <g id="text_12">
    <!-- Qwen3-32B -->
    <g style="fill: #262626; opacity: 0.85" transform="translate(362.915752 225.472433) scale(0.1 -0.1)">
     <use xlink:href="#DejaVuSans-51"/>
     <use xlink:href="#DejaVuSans-77" transform="translate(78.710938 0)"/>
     <use xlink:href="#DejaVuSans-65" transform="translate(160.498047 0)"/>
     <use xlink:href="#DejaVuSans-6e" transform="translate(222.021484 0)"/>
     <use xlink:href="#DejaVuSans-33" transform="translate(285.400391 0)"/>
     <use xlink:href="#DejaVuSans-2d" transform="translate(349.023438 0)"/>
     <use xlink:href="#DejaVuSans-33" transform="translate(385.107422 0)"/>
     <use xlink:href="#DejaVuSans-32" transform="translate(448.730469 0)"/>
     <use xlink:href="#DejaVuSans-42" transform="translate(512.353516 0)"/>
    </g>
   </g>
   <g id="text_13">
    <!-- DeepSeek-V3.2 -->
    <g style="fill: #262626; opacity: 0.85" transform="translate(765.326841 354.759484) scale(0.1 -0.1)">
     <defs>
      <path id="DejaVuSans-44" d="M 1259 4147 
L 1259 519 
L 2022 519 
Q 2988 519 3436 956 
Q 3884 1394 3884 2338 
Q 3884 3275 3436 3711 
Q 2988 4147 2022 4147 
L 1259 4147 
z
M 628 4666 
L 1925 4666 
Q 3281 4666 3915 4102 
Q 4550 3538 4550 2338 
Q 4550 1131 3912 565 
Q 3275 0 1925 0 
L 628 0 
L 628 4666 
z
" transform="scale(0.015625)"/>
      <path id="DejaVuSans-70" d="M 1159 525 
L 1159 -1331 
L 581 -1331 
L 581 3500 
L 1159 3500 
L 1159 2969 
Q 1341 3281 1617 3432 
Q 1894 3584 2278 3584 
Q 2916 3584 3314 3078 
Q 3713 2572 3713 1747 
Q 3713 922 3314 415 
Q 2916 -91 2278 -91 
Q 1894 -91 1617 61 
Q 1341 213 1159 525 
z
M 3116 1747 
Q 3116 2381 2855 2742 
Q 2594 3103 2138 3103 
Q 1681 3103 1420 2742 
Q 1159 2381 1159 1747 
Q 1159 1113 1420 752 
Q 1681 391 2138 391 
Q 2594 391 2855 752 
Q 3116 1113 3116 1747 
z
" transform="scale(0.015625)"/>
      <path id="DejaVuSans-53" d="M 3425 4513 
L 3425 3897 
Q 3066 4069 2747 4153 
Q 2428 4238 2131 4238 
Q 1616 4238 1336 4038 
Q 1056 3838 1056 3469 
Q 1056 3159 1242 3001 
Q 1428 2844 1947 2747 
L 2328 2669 
Q 3034 2534 3370 2195 
Q 3706 1856 3706 1288 
Q 3706 609 3251 259 
Q 2797 -91 1919 -91 
Q 1588 -91 1214 -16 
Q 841 59 441 206 
L 441 856 
Q 825 641 1194 531 
Q 1563 422 1919 422 
Q 2459 422 2753 634 
Q 3047 847 3047 1241 
Q 3047 1584 2836 1778 
Q 2625 1972 2144 2069 
L 1759 2144 
Q 1053 2284 737 2584 
Q 422 2884 422 3419 
Q 422 4038 858 4394 
Q 1294 4750 2059 4750 
Q 2388 4750 2728 4690 
Q 3069 4631 3425 4513 
z
" transform="scale(0.015625)"/>
      <path id="DejaVuSans-6b" d="M 581 4863 
L 1159 4863 
L 1159 1991 
L 2875 3500 
L 3609 3500 
L 1753 1863 
L 3688 0 
L 2938 0 
L 1159 1709 
L 1159 0 
L 581 0 
L 581 4863 
z
" transform="scale(0.015625)"/>
      <path id="DejaVuSans-56" d="M 1831 0 
L 50 4666 
L 709 4666 
L 2188 738 
L 3669 4666 
L 4325 4666 
L 2547 0 
L 1831 0 
z
" transform="scale(0.015625)"/>
      <path id="DejaVuSans-2e" d="M 684 794 
L 1344 794 
L 1344 0 
L 684 0 
L 684 794 
z
" transform="scale(0.015625)"/>
     </defs>
     <use xlink:href="#DejaVuSans-44"/>
     <use xlink:href="#DejaVuSans-65" transform="translate(77.001953 0)"/>
     <use xlink:href="#DejaVuSans-65" transform="translate(138.525391 0)"/>
     <use xlink:href="#DejaVuSans-70" transform="translate(200.048828 0)"/>
     <use xlink:href="#DejaVuSans-53" transform="translate(263.525391 0)"/>
     <use xlink:href="#DejaVuSans-65" transform="translate(327.001953 0)"/>
     <use xlink:href="#DejaVuSans-65" transform="translate(388.525391 0)"/>
     <use xlink:href="#DejaVuSans-6b" transform="translate(450.048828 0)"/>
     <use xlink:href="#DejaVuSans-2d" transform="translate(507.958984 0)"/>
     <use xlink:href="#DejaVuSans-56" transform="translate(538.167969 0)"/>
     <use xlink:href="#DejaVuSans-33" transform="translate(606.576172 0)"/>
     <use xlink:href="#DejaVuSans-2e" transform="translate(670.199219 0)"/>
     <use xlink:href="#DejaVuSans-32" transform="translate(701.986328 0)"/>
    </g>
   </g>
   <g id="text_14">
    <!-- gemma-3-12b-it -->
    <g style="fill: #262626; opacity: 0.85" transform="translate(233.210771 126.065924) scale(0.1 -0.1)">
     <defs>
      <path id="DejaVuSans-67" d="M 2906 1791 
Q 2906 2416 2648 2759 
Q 2391 3103 1925 3103 
Q 1463 3103 1205 2759 
Q 947 2416 947 1791 
Q 947 1169 1205 825 
Q 1463 481 1925 481 
Q 2391 481 2648 825 
Q 2906 1169 2906 1791 
z
M 3481 434 
Q 3481 -459 3084 -895 
Q 2688 -1331 1869 -1331 
Q 1566 -1331 1297 -1286 
Q 1028 -1241 775 -1147 
L 775 -588 
Q 1028 -725 1275 -790 
Q 1522 -856 1778 -856 
Q 2344 -856 2625 -561 
Q 2906 -266 2906 331 
L 2906 616 
Q 2728 306 2450 153 
Q 2172 0 1784 0 
Q 1141 0 747 490 
Q 353 981 353 1791 
Q 353 2603 747 3093 
Q 1141 3584 1784 3584 
Q 2172 3584 2450 3431 
Q 2728 3278 2906 2969 
L 2906 3500 
L 3481 3500 
L 3481 434 
z
" transform="scale(0.015625)"/>
      <path id="DejaVuSans-6d" d="M 3328 2828 
Q 3544 3216 3844 3400 
Q 4144 3584 4550 3584 
Q 5097 3584 5394 3201 
Q 5691 2819 5691 2113 
L 5691 0 
L 5113 0 
L 5113 2094 
Q 5113 2597 4934 2840 
Q 4756 3084 4391 3084 
Q 3944 3084 3684 2787 
Q 3425 2491 3425 1978 
L 3425 0 
L 2847 0 
L 2847 2094 
Q 2847 2600 2669 2842 
Q 2491 3084 2119 3084 
Q 1678 3084 1418 2786 
Q 1159 2488 1159 1978 
L 1159 0 
L 581 0 
L 581 3500 
L 1159 3500 
L 1159 2956 
Q 1356 3278 1631 3431 
Q 1906 3584 2284 3584 
Q 2666 3584 2933 3390 
Q 3200 3197 3328 2828 
z
" transform="scale(0.015625)"/>
      <path id="DejaVuSans-61" d="M 2194 1759 
Q 1497 1759 1228 1600 
Q 959 1441 959 1056 
Q 959 750 1161 570 
Q 1363 391 1709 391 
Q 2188 391 2477 730 
Q 2766 1069 2766 1631 
L 2766 1759 
L 2194 1759 
z
M 3341 1997 
L 3341 0 
L 2766 0 
L 2766 531 
Q 2569 213 2275 61 
Q 1981 -91 1556 -91 
Q 1019 -91 701 211 
Q 384 513 384 1019 
Q 384 1609 779 1909 
Q 1175 2209 1959 2209 
L 2766 2209 
L 2766 2266 
Q 2766 2663 2505 2880 
Q 2244 3097 1772 3097 
Q 1472 3097 1187 3025 
Q 903 2953 641 2809 
L 641 3341 
Q 956 3463 1253 3523 
Q 1550 3584 1831 3584 
Q 2591 3584 2966 3190 
Q 3341 2797 3341 1997 
z
" transform="scale(0.015625)"/>
      <path id="DejaVuSans-62" d="M 3116 1747 
Q 3116 2381 2855 2742 
Q 2594 3103 2138 3103 
Q 1681 3103 1420 2742 
Q 1159 2381 1159 1747 
Q 1159 1113 1420 752 
Q 1681 391 2138 391 
Q 2594 391 2855 752 
Q 3116 1113 3116 1747 
z
M 1159 2969 
Q 1341 3281 1617 3432 
Q 1894 3584 2278 3584 
Q 2916 3584 3314 3078 
Q 3713 2572 3713 1747 
Q 3713 922 3314 415 
Q 2916 -91 2278 -91 
Q 1894 -91 1617 61 
Q 1341 213 1159 525 
L 1159 0 
L 581 0 
L 581 4863 
L 1159 4863 
L 1159 2969 
z
" transform="scale(0.015625)"/>
      <path id="DejaVuSans-69" d="M 603 3500 
L 1178 3500 
L 1178 0 
L 603 0 
L 603 3500 
z
M 603 4863 
L 1178 4863 
L 1178 4134 
L 603 4134 
L 603 4863 
z
" transform="scale(0.015625)"/>
     </defs>
     <use xlink:href="#DejaVuSans-67"/>
     <use xlink:href="#DejaVuSans-65" transform="translate(63.476562 0)"/>
     <use xlink:href="#DejaVuSans-6d" transform="translate(125 0)"/>
     <use xlink:href="#DejaVuSans-6d" transform="translate(222.412109 0)"/>
     <use xlink:href="#DejaVuSans-61" transform="translate(319.824219 0)"/>
     <use xlink:href="#DejaVuSans-2d" transform="translate(381.103516 0)"/>
     <use xlink:href="#DejaVuSans-33" transform="translate(417.1875 0)"/>
     <use xlink:href="#DejaVuSans-2d" transform="translate(480.810547 0)"/>
     <use xlink:href="#DejaVuSans-31" transform="translate(516.894531 0)"/>
     <use xlink:href="#DejaVuSans-32" transform="translate(580.517578 0)"/>
     <use xlink:href="#DejaVuSans-62" transform="translate(644.140625 0)"/>
     <use xlink:href="#DejaVuSans-2d" transform="translate(707.617188 0)"/>
     <use xlink:href="#DejaVuSans-69" transform="translate(743.701172 0)"/>
     <use xlink:href="#DejaVuSans-74" transform="translate(771.484375 0)"/>
    </g>
   </g>
   <g id="text_15">
    <!-- gemma-3-27b-it -->
    <g style="fill: #262626; opacity: 0.85" transform="translate(340.448283 24.120545) scale(0.1 -0.1)">
     <use xlink:href="#DejaVuSans-67"/>
     <use xlink:href="#DejaVuSans-65" transform="translate(63.476562 0)"/>
     <use xlink:href="#DejaVuSans-6d" transform="translate(125 0)"/>
     <use xlink:href="#DejaVuSans-6d" transform="translate(222.412109 0)"/>
     <use xlink:href="#DejaVuSans-61" transform="translate(319.824219 0)"/>
     <use xlink:href="#DejaVuSans-2d" transform="translate(381.103516 0)"/>
     <use xlink:href="#DejaVuSans-33" transform="translate(417.1875 0)"/>
     <use xlink:href="#DejaVuSans-2d" transform="translate(480.810547 0)"/>
     <use xlink:href="#DejaVuSans-32" transform="translate(516.894531 0)"/>
     <use xlink:href="#DejaVuSans-37" transform="translate(580.517578 0)"/>
     <use xlink:href="#DejaVuSans-62" transform="translate(644.140625 0)"/>
     <use xlink:href="#DejaVuSans-2d" transform="translate(707.617188 0)"/>
     <use xlink:href="#DejaVuSans-69" transform="translate(743.701172 0)"/>
     <use xlink:href="#DejaVuSans-74" transform="translate(771.484375 0)"/>
    </g>
   </g>
   <g id="text_16">
    <!-- gemma-3-4b-it -->
    <g style="fill: #262626; opacity: 0.85" transform="translate(87.930147 180.944567) scale(0.1 -0.1)">
     <use xlink:href="#DejaVuSans-67"/>
     <use xlink:href="#DejaVuSans-65" transform="translate(63.476562 0)"/>
     <use xlink:href="#DejaVuSans-6d" transform="translate(125 0)"/>
     <use xlink:href="#DejaVuSans-6d" transform="translate(222.412109 0)"/>
     <use xlink:href="#DejaVuSans-61" transform="translate(319.824219 0)"/>
     <use xlink:href="#DejaVuSans-2d" transform="translate(381.103516 0)"/>
     <use xlink:href="#DejaVuSans-33" transform="translate(417.1875 0)"/>
     <use xlink:href="#DejaVuSans-2d" transform="translate(480.810547 0)"/>
     <use xlink:href="#DejaVuSans-34" transform="translate(516.894531 0)"/>
     <use xlink:href="#DejaVuSans-62" transform="translate(580.517578 0)"/>
     <use xlink:href="#DejaVuSans-2d" transform="translate(643.994141 0)"/>
     <use xlink:href="#DejaVuSans-69" transform="translate(680.078125 0)"/>
     <use xlink:href="#DejaVuSans-74" transform="translate(707.861328 0)"/>
    </g>
   </g>
   <g id="text_17">
    <!-- Llama-4-Scout-17B-16E-Instruct -->
    <g style="fill: #262626; opacity: 0.85" transform="translate(524.990831 205.74737) scale(0.1 -0.1)">
     <defs>
      <path id="DejaVuSans-4c" d="M 628 4666 
L 1259 4666 
L 1259 531 
L 3531 531 
L 3531 0 
L 628 0 
L 628 4666 
z
" transform="scale(0.015625)"/>
      <path id="DejaVuSans-6c" d="M 603 4863 
L 1178 4863 
L 1178 0 
L 603 0 
L 603 4863 
z
" transform="scale(0.015625)"/>
      <path id="DejaVuSans-6f" d="M 1959 3097 
Q 1497 3097 1228 2736 
Q 959 2375 959 1747 
Q 959 1119 1226 758 
Q 1494 397 1959 397 
Q 2419 397 2687 759 
Q 2956 1122 2956 1747 
Q 2956 2369 2687 2733 
Q 2419 3097 1959 3097 
z
M 1959 3584 
Q 2709 3584 3137 3096 
Q 3566 2609 3566 1747 
Q 3566 888 3137 398 
Q 2709 -91 1959 -91 
Q 1206 -91 779 398 
Q 353 888 353 1747 
Q 353 2609 779 3096 
Q 1206 3584 1959 3584 
z
" transform="scale(0.015625)"/>
      <path id="DejaVuSans-36" d="M 2113 2584 
Q 1688 2584 1439 2293 
Q 1191 2003 1191 1497 
Q 1191 994 1439 701 
Q 1688 409 2113 409 
Q 2538 409 2786 701 
Q 3034 994 3034 1497 
Q 3034 2003 2786 2293 
Q 2538 2584 2113 2584 
z
M 3366 4563 
L 3366 3988 
Q 3128 4100 2886 4159 
Q 2644 4219 2406 4219 
Q 1781 4219 1451 3797 
Q 1122 3375 1075 2522 
Q 1259 2794 1537 2939 
Q 1816 3084 2150 3084 
Q 2853 3084 3261 2657 
Q 3669 2231 3669 1497 
Q 3669 778 3244 343 
Q 2819 -91 2113 -91 
Q 1303 -91 875 529 
Q 447 1150 447 2328 
Q 447 3434 972 4092 
Q 1497 4750 2381 4750 
Q 2619 4750 2861 4703 
Q 3103 4656 3366 4563 
z
" transform="scale(0.015625)"/>
      <path id="DejaVuSans-45" d="M 628 4666 
L 3578 4666 
L 3578 4134 
L 1259 4134 
L 1259 2753 
L 3481 2753 
L 3481 2222 
L 1259 2222 
L 1259 531 
L 3634 531 
L 3634 0 
L 628 0 
L 628 4666 
z
" transform="scale(0.015625)"/>
     </defs>
     <use xlink:href="#DejaVuSans-4c"/>
     <use xlink:href="#DejaVuSans-6c" transform="translate(55.712891 0)"/>
     <use xlink:href="#DejaVuSans-61" transform="translate(83.496094 0)"/>
     <use xlink:href="#DejaVuSans-6d" transform="translate(144.775391 0)"/>
     <use xlink:href="#DejaVuSans-61" transform="translate(242.1875 0)"/>
     <use xlink:href="#DejaVuSans-2d" transform="translate(303.466797 0)"/>
     <use xlink:href="#DejaVuSans-34" transform="translate(339.550781 0)"/>
     <use xlink:href="#DejaVuSans-2d" transform="translate(403.173828 0)"/>
     <use xlink:href="#DejaVuSans-53" transform="translate(439.257812 0)"/>
     <use xlink:href="#DejaVuSans-63" transform="translate(502.734375 0)"/>
     <use xlink:href="#DejaVuSans-6f" transform="translate(557.714844 0)"/>
     <use xlink:href="#DejaVuSans-75" transform="translate(618.896484 0)"/>
     <use xlink:href="#DejaVuSans-74" transform="translate(682.275391 0)"/>
     <use xlink:href="#DejaVuSans-2d" transform="translate(721.484375 0)"/>
     <use xlink:href="#DejaVuSans-31" transform="translate(757.568359 0)"/>
     <use xlink:href="#DejaVuSans-37" transform="translate(821.191406 0)"/>
     <use xlink:href="#DejaVuSans-42" transform="translate(884.814453 0)"/>
     <use xlink:href="#DejaVuSans-2d" transform="translate(953.417969 0)"/>
     <use xlink:href="#DejaVuSans-31" transform="translate(989.501953 0)"/>
     <use xlink:href="#DejaVuSans-36" transform="translate(1053.125 0)"/>
     <use xlink:href="#DejaVuSans-45" transform="translate(1116.748047 0)"/>
     <use xlink:href="#DejaVuSans-2d" transform="translate(1179.931641 0)"/>
     <use xlink:href="#DejaVuSans-49" transform="translate(1216.015625 0)"/>
     <use xlink:href="#DejaVuSans-6e" transform="translate(1245.507812 0)"/>
     <use xlink:href="#DejaVuSans-73" transform="translate(1308.886719 0)"/>
     <use xlink:href="#DejaVuSans-74" transform="translate(1360.986328 0)"/>
     <use xlink:href="#DejaVuSans-72" transform="translate(1400.195312 0)"/>
     <use xlink:href="#DejaVuSans-75" transform="translate(1441.308594 0)"/>
     <use xlink:href="#DejaVuSans-63" transform="translate(1504.6875 0)"/>
     <use xlink:href="#DejaVuSans-74" transform="translate(1559.667969 0)"/>
    </g>
   </g>
   <g id="text_18">
    <!-- Meta-Llama-3.1-70B-Instruct -->
    <g style="fill: #262626; opacity: 0.85" transform="translate(466.427944 99.896038) scale(0.1 -0.1)">
     <defs>
      <path id="DejaVuSans-4d" d="M 628 4666 
L 1569 4666 
L 2759 1491 
L 3956 4666 
L 4897 4666 
L 4897 0 
L 4281 0 
L 4281 4097 
L 3078 897 
L 2444 897 
L 1241 4097 
L 1241 0 
L 628 0 
L 628 4666 
z
" transform="scale(0.015625)"/>
     </defs>
     <use xlink:href="#DejaVuSans-4d"/>
     <use xlink:href="#DejaVuSans-65" transform="translate(86.279297 0)"/>
     <use xlink:href="#DejaVuSans-74" transform="translate(147.802734 0)"/>
     <use xlink:href="#DejaVuSans-61" transform="translate(187.011719 0)"/>
     <use xlink:href="#DejaVuSans-2d" transform="translate(248.291016 0)"/>
     <use xlink:href="#DejaVuSans-4c" transform="translate(284.375 0)"/>
     <use xlink:href="#DejaVuSans-6c" transform="translate(340.087891 0)"/>
     <use xlink:href="#DejaVuSans-61" transform="translate(367.871094 0)"/>
     <use xlink:href="#DejaVuSans-6d" transform="translate(429.150391 0)"/>
     <use xlink:href="#DejaVuSans-61" transform="translate(526.5625 0)"/>
     <use xlink:href="#DejaVuSans-2d" transform="translate(587.841797 0)"/>
     <use xlink:href="#DejaVuSans-33" transform="translate(623.925781 0)"/>
     <use xlink:href="#DejaVuSans-2e" transform="translate(687.548828 0)"/>
     <use xlink:href="#DejaVuSans-31" transform="translate(719.335938 0)"/>
     <use xlink:href="#DejaVuSans-2d" transform="translate(782.958984 0)"/>
     <use xlink:href="#DejaVuSans-37" transform="translate(819.042969 0)"/>
     <use xlink:href="#DejaVuSans-30" transform="translate(882.666016 0)"/>
     <use xlink:href="#DejaVuSans-42" transform="translate(946.289062 0)"/>
     <use xlink:href="#DejaVuSans-2d" transform="translate(1014.892578 0)"/>
     <use xlink:href="#DejaVuSans-49" transform="translate(1050.976562 0)"/>
     <use xlink:href="#DejaVuSans-6e" transform="translate(1080.46875 0)"/>
     <use xlink:href="#DejaVuSans-73" transform="translate(1143.847656 0)"/>
     <use xlink:href="#DejaVuSans-74" transform="translate(1195.947266 0)"/>
     <use xlink:href="#DejaVuSans-72" transform="translate(1235.15625 0)"/>
     <use xlink:href="#DejaVuSans-75" transform="translate(1276.269531 0)"/>
     <use xlink:href="#DejaVuSans-63" transform="translate(1339.648438 0)"/>
     <use xlink:href="#DejaVuSans-74" transform="translate(1394.628906 0)"/>
    </g>
   </g>
   <g id="text_19">
    <!-- Meta-Llama-3.1-8B-Instruct -->
    <g style="fill: #262626; opacity: 0.85" transform="translate(179.592016 482.531455) scale(0.1 -0.1)">
     <defs>
      <path id="DejaVuSans-38" d="M 2034 2216 
Q 1584 2216 1326 1975 
Q 1069 1734 1069 1313 
Q 1069 891 1326 650 
Q 1584 409 2034 409 
Q 2484 409 2743 651 
Q 3003 894 3003 1313 
Q 3003 1734 2745 1975 
Q 2488 2216 2034 2216 
z
M 1403 2484 
Q 997 2584 770 2862 
Q 544 3141 544 3541 
Q 544 4100 942 4425 
Q 1341 4750 2034 4750 
Q 2731 4750 3128 4425 
Q 3525 4100 3525 3541 
Q 3525 3141 3298 2862 
Q 3072 2584 2669 2484 
Q 3125 2378 3379 2068 
Q 3634 1759 3634 1313 
Q 3634 634 3220 271 
Q 2806 -91 2034 -91 
Q 1263 -91 848 271 
Q 434 634 434 1313 
Q 434 1759 690 2068 
Q 947 2378 1403 2484 
z
M 1172 3481 
Q 1172 3119 1398 2916 
Q 1625 2713 2034 2713 
Q 2441 2713 2670 2916 
Q 2900 3119 2900 3481 
Q 2900 3844 2670 4047 
Q 2441 4250 2034 4250 
Q 1625 4250 1398 4047 
Q 1172 3844 1172 3481 
z
" transform="scale(0.015625)"/>
     </defs>
     <use xlink:href="#DejaVuSans-4d"/>
     <use xlink:href="#DejaVuSans-65" transform="translate(86.279297 0)"/>
     <use xlink:href="#DejaVuSans-74" transform="translate(147.802734 0)"/>
     <use xlink:href="#DejaVuSans-61" transform="translate(187.011719 0)"/>
     <use xlink:href="#DejaVuSans-2d" transform="translate(248.291016 0)"/>
     <use xlink:href="#DejaVuSans-4c" transform="translate(284.375 0)"/>
     <use xlink:href="#DejaVuSans-6c" transform="translate(340.087891 0)"/>
     <use xlink:href="#DejaVuSans-61" transform="translate(367.871094 0)"/>
     <use xlink:href="#DejaVuSans-6d" transform="translate(429.150391 0)"/>
     <use xlink:href="#DejaVuSans-61" transform="translate(526.5625 0)"/>
     <use xlink:href="#DejaVuSans-2d" transform="translate(587.841797 0)"/>
     <use xlink:href="#DejaVuSans-33" transform="translate(623.925781 0)"/>
     <use xlink:href="#DejaVuSans-2e" transform="translate(687.548828 0)"/>
     <use xlink:href="#DejaVuSans-31" transform="translate(719.335938 0)"/>
     <use xlink:href="#DejaVuSans-2d" transform="translate(782.958984 0)"/>
     <use xlink:href="#DejaVuSans-38" transform="translate(819.042969 0)"/>
     <use xlink:href="#DejaVuSans-42" transform="translate(882.666016 0)"/>
     <use xlink:href="#DejaVuSans-2d" transform="translate(951.269531 0)"/>
     <use xlink:href="#DejaVuSans-49" transform="translate(987.353516 0)"/>
     <use xlink:href="#DejaVuSans-6e" transform="translate(1016.845703 0)"/>
     <use xlink:href="#DejaVuSans-73" transform="translate(1080.224609 0)"/>
     <use xlink:href="#DejaVuSans-74" transform="translate(1132.324219 0)"/>
     <use xlink:href="#DejaVuSans-72" transform="translate(1171.533203 0)"/>
     <use xlink:href="#DejaVuSans-75" transform="translate(1212.646484 0)"/>
     <use xlink:href="#DejaVuSans-63" transform="translate(1276.025391 0)"/>
     <use xlink:href="#DejaVuSans-74" transform="translate(1331.005859 0)"/>
    </g>
   </g>
   <g id="text_20">
    <!-- phi-4 -->
    <g style="fill: #262626; opacity: 0.85" transform="translate(253.595676 348.314662) scale(0.1 -0.1)">
     <defs>
      <path id="DejaVuSans-68" d="M 3513 2113 
L 3513 0 
L 2938 0 
L 2938 2094 
Q 2938 2591 2744 2837 
Q 2550 3084 2163 3084 
Q 1697 3084 1428 2787 
Q 1159 2491 1159 1978 
L 1159 0 
L 581 0 
L 581 4863 
L 1159 4863 
L 1159 2956 
Q 1366 3272 1645 3428 
Q 1925 3584 2291 3584 
Q 2894 3584 3203 3211 
Q 3513 2838 3513 2113 
z
" transform="scale(0.015625)"/>
     </defs>
     <use xlink:href="#DejaVuSans-70"/>
     <use xlink:href="#DejaVuSans-68" transform="translate(63.476562 0)"/>
     <use xlink:href="#DejaVuSans-69" transform="translate(126.855469 0)"/>
     <use xlink:href="#DejaVuSans-2d" transform="translate(154.638672 0)"/>
     <use xlink:href="#DejaVuSans-34" transform="translate(190.722656 0)"/>
    </g>
   </g>
   <g id="text_21">
    <!-- Mistral-Small-3.2-24B-Instruct-2506 -->
    <g style="fill: #262626; opacity: 0.85" transform="translate(324.87264 167.078433) scale(0.1 -0.1)">
     <use xlink:href="#DejaVuSans-4d"/>
     <use xlink:href="#DejaVuSans-69" transform="translate(86.279297 0)"/>
     <use xlink:href="#DejaVuSans-73" transform="translate(114.0625 0)"/>
     <use xlink:href="#DejaVuSans-74" transform="translate(166.162109 0)"/>
     <use xlink:href="#DejaVuSans-72" transform="translate(205.371094 0)"/>
     <use xlink:href="#DejaVuSans-61" transform="translate(246.484375 0)"/>
     <use xlink:href="#DejaVuSans-6c" transform="translate(307.763672 0)"/>
     <use xlink:href="#DejaVuSans-2d" transform="translate(335.546875 0)"/>
     <use xlink:href="#DejaVuSans-53" transform="translate(371.630859 0)"/>
     <use xlink:href="#DejaVuSans-6d" transform="translate(435.107422 0)"/>
     <use xlink:href="#DejaVuSans-61" transform="translate(532.519531 0)"/>
     <use xlink:href="#DejaVuSans-6c" transform="translate(593.798828 0)"/>
     <use xlink:href="#DejaVuSans-6c" transform="translate(621.582031 0)"/>
     <use xlink:href="#DejaVuSans-2d" transform="translate(649.365234 0)"/>
     <use xlink:href="#DejaVuSans-33" transform="translate(685.449219 0)"/>
     <use xlink:href="#DejaVuSans-2e" transform="translate(749.072266 0)"/>
     <use xlink:href="#DejaVuSans-32" transform="translate(780.859375 0)"/>
     <use xlink:href="#DejaVuSans-2d" transform="translate(844.482422 0)"/>
     <use xlink:href="#DejaVuSans-32" transform="translate(880.566406 0)"/>
     <use xlink:href="#DejaVuSans-34" transform="translate(944.189453 0)"/>
     <use xlink:href="#DejaVuSans-42" transform="translate(1007.8125 0)"/>
     <use xlink:href="#DejaVuSans-2d" transform="translate(1076.416016 0)"/>
     <use xlink:href="#DejaVuSans-49" transform="translate(1112.5 0)"/>
     <use xlink:href="#DejaVuSans-6e" transform="translate(1141.992188 0)"/>
     <use xlink:href="#DejaVuSans-73" transform="translate(1205.371094 0)"/>
     <use xlink:href="#DejaVuSans-74" transform="translate(1257.470703 0)"/>
     <use xlink:href="#DejaVuSans-72" transform="translate(1296.679688 0)"/>
     <use xlink:href="#DejaVuSans-75" transform="translate(1337.792969 0)"/>
     <use xlink:href="#DejaVuSans-63" transform="translate(1401.171875 0)"/>
     <use xlink:href="#DejaVuSans-74" transform="translate(1456.152344 0)"/>
     <use xlink:href="#DejaVuSans-2d" transform="translate(1495.361328 0)"/>
     <use xlink:href="#DejaVuSans-32" transform="translate(1531.445312 0)"/>
     <use xlink:href="#DejaVuSans-35" transform="translate(1595.068359 0)"/>
     <use xlink:href="#DejaVuSans-30" transform="translate(1658.691406 0)"/>
     <use xlink:href="#DejaVuSans-36" transform="translate(1722.314453 0)"/>
    </g>
   </g>
   <g id="text_22">
    <!-- Mixtral-8x7B-Instruct-v0.1 -->
    <g style="fill: #262626; opacity: 0.85" transform="translate(413.750403 241.291544) scale(0.1 -0.1)">
     <defs>
      <path id="DejaVuSans-78" d="M 3513 3500 
L 2247 1797 
L 3578 0 
L 2900 0 
L 1881 1375 
L 863 0 
L 184 0 
L 1544 1831 
L 300 3500 
L 978 3500 
L 1906 2253 
L 2834 3500 
L 3513 3500 
z
" transform="scale(0.015625)"/>
      <path id="DejaVuSans-76" d="M 191 3500 
L 800 3500 
L 1894 563 
L 2988 3500 
L 3597 3500 
L 2284 0 
L 1503 0 
L 191 3500 
z
" transform="scale(0.015625)"/>
     </defs>
     <use xlink:href="#DejaVuSans-4d"/>
     <use xlink:href="#DejaVuSans-69" transform="translate(86.279297 0)"/>
     <use xlink:href="#DejaVuSans-78" transform="translate(114.0625 0)"/>
     <use xlink:href="#DejaVuSans-74" transform="translate(173.242188 0)"/>
     <use xlink:href="#DejaVuSans-72" transform="translate(212.451172 0)"/>
     <use xlink:href="#DejaVuSans-61" transform="translate(253.564453 0)"/>
     <use xlink:href="#DejaVuSans-6c" transform="translate(314.84375 0)"/>
     <use xlink:href="#DejaVuSans-2d" transform="translate(342.626953 0)"/>
     <use xlink:href="#DejaVuSans-38" transform="translate(378.710938 0)"/>
     <use xlink:href="#DejaVuSans-78" transform="translate(442.333984 0)"/>
     <use xlink:href="#DejaVuSans-37" transform="translate(501.513672 0)"/>
     <use xlink:href="#DejaVuSans-42" transform="translate(565.136719 0)"/>
     <use xlink:href="#DejaVuSans-2d" transform="translate(633.740234 0)"/>
     <use xlink:href="#DejaVuSans-49" transform="translate(669.824219 0)"/>
     <use xlink:href="#DejaVuSans-6e" transform="translate(699.316406 0)"/>
     <use xlink:href="#DejaVuSans-73" transform="translate(762.695312 0)"/>
     <use xlink:href="#DejaVuSans-74" transform="translate(814.794922 0)"/>
     <use xlink:href="#DejaVuSans-72" transform="translate(854.003906 0)"/>
     <use xlink:href="#DejaVuSans-75" transform="translate(895.117188 0)"/>
     <use xlink:href="#DejaVuSans-63" transform="translate(958.496094 0)"/>
     <use xlink:href="#DejaVuSans-74" transform="translate(1013.476562 0)"/>
     <use xlink:href="#DejaVuSans-2d" transform="translate(1052.685547 0)"/>
     <use xlink:href="#DejaVuSans-76" transform="translate(1086.144531 0)"/>
     <use xlink:href="#DejaVuSans-30" transform="translate(1145.324219 0)"/>
     <use xlink:href="#DejaVuSans-2e" transform="translate(1208.947266 0)"/>
     <use xlink:href="#DejaVuSans-31" transform="translate(1240.734375 0)"/>
    </g>
   </g>
   <g id="text_23">
    <!-- NVIDIA-Nemotron-Nano-12B-v2-VL -->
    <g style="fill: #262626; opacity: 0.85" transform="translate(233.210771 106.536158) scale(0.1 -0.1)">
     <defs>
      <path id="DejaVuSans-4e" d="M 628 4666 
L 1478 4666 
L 3547 763 
L 3547 4666 
L 4159 4666 
L 4159 0 
L 3309 0 
L 1241 3903 
L 1241 0 
L 628 0 
L 628 4666 
z
" transform="scale(0.015625)"/>
     </defs>
     <use xlink:href="#DejaVuSans-4e"/>
     <use xlink:href="#DejaVuSans-56" transform="translate(74.804688 0)"/>
     <use xlink:href="#DejaVuSans-49" transform="translate(143.212891 0)"/>
     <use xlink:href="#DejaVuSans-44" transform="translate(172.705078 0)"/>
     <use xlink:href="#DejaVuSans-49" transform="translate(249.707031 0)"/>
     <use xlink:href="#DejaVuSans-41" transform="translate(279.199219 0)"/>
     <use xlink:href="#DejaVuSans-2d" transform="translate(345.357422 0)"/>
     <use xlink:href="#DejaVuSans-4e" transform="translate(381.441406 0)"/>
     <use xlink:href="#DejaVuSans-65" transform="translate(456.246094 0)"/>
     <use xlink:href="#DejaVuSans-6d" transform="translate(517.769531 0)"/>
     <use xlink:href="#DejaVuSans-6f" transform="translate(615.181641 0)"/>
     <use xlink:href="#DejaVuSans-74" transform="translate(676.363281 0)"/>
     <use xlink:href="#DejaVuSans-72" transform="translate(715.572266 0)"/>
     <use xlink:href="#DejaVuSans-6f" transform="translate(754.435547 0)"/>
     <use xlink:href="#DejaVuSans-6e" transform="translate(815.617188 0)"/>
     <use xlink:href="#DejaVuSans-2d" transform="translate(878.996094 0)"/>
     <use xlink:href="#DejaVuSans-4e" transform="translate(915.080078 0)"/>
     <use xlink:href="#DejaVuSans-61" transform="translate(989.884766 0)"/>
     <use xlink:href="#DejaVuSans-6e" transform="translate(1051.164062 0)"/>
     <use xlink:href="#DejaVuSans-6f" transform="translate(1114.542969 0)"/>
     <use xlink:href="#DejaVuSans-2d" transform="translate(1177.599609 0)"/>
     <use xlink:href="#DejaVuSans-31" transform="translate(1213.683594 0)"/>
     <use xlink:href="#DejaVuSans-32" transform="translate(1277.306641 0)"/>
     <use xlink:href="#DejaVuSans-42" transform="translate(1340.929688 0)"/>
     <use xlink:href="#DejaVuSans-2d" transform="translate(1409.533203 0)"/>
     <use xlink:href="#DejaVuSans-76" transform="translate(1442.992188 0)"/>
     <use xlink:href="#DejaVuSans-32" transform="translate(1502.171875 0)"/>
     <use xlink:href="#DejaVuSans-2d" transform="translate(1565.794922 0)"/>
     <use xlink:href="#DejaVuSans-56" transform="translate(1596.003906 0)"/>
     <use xlink:href="#DejaVuSans-4c" transform="translate(1664.412109 0)"/>
    </g>
   </g>
   <g id="text_24">
    <!-- gpt-oss-120b -->
    <g style="fill: #262626; opacity: 0.85" transform="translate(537.704907 76.265021) scale(0.1 -0.1)">
     <use xlink:href="#DejaVuSans-67"/>
     <use xlink:href="#DejaVuSans-70" transform="translate(63.476562 0)"/>
     <use xlink:href="#DejaVuSans-74" transform="translate(126.953125 0)"/>
     <use xlink:href="#DejaVuSans-2d" transform="translate(166.162109 0)"/>
     <use xlink:href="#DejaVuSans-6f" transform="translate(204.121094 0)"/>
     <use xlink:href="#DejaVuSans-73" transform="translate(265.302734 0)"/>
     <use xlink:href="#DejaVuSans-73" transform="translate(317.402344 0)"/>
     <use xlink:href="#DejaVuSans-2d" transform="translate(369.501953 0)"/>
     <use xlink:href="#DejaVuSans-31" transform="translate(405.585938 0)"/>
     <use xlink:href="#DejaVuSans-32" transform="translate(469.208984 0)"/>
     <use xlink:href="#DejaVuSans-30" transform="translate(532.832031 0)"/>
     <use xlink:href="#DejaVuSans-62" transform="translate(596.455078 0)"/>
    </g>
   </g>
   <g id="text_25">
    <!-- gpt-oss-20b -->
    <g style="fill: #262626; opacity: 0.85" transform="translate(300.762415 155.942915) scale(0.1 -0.1)">
     <use xlink:href="#DejaVuSans-67"/>
     <use xlink:href="#DejaVuSans-70" transform="translate(63.476562 0)"/>
     <use xlink:href="#DejaVuSans-74" transform="translate(126.953125 0)"/>
     <use xlink:href="#DejaVuSans-2d" transform="translate(166.162109 0)"/>
     <use xlink:href="#DejaVuSans-6f" transform="translate(204.121094 0)"/>
     <use xlink:href="#DejaVuSans-73" transform="translate(265.302734 0)"/>
     <use xlink:href="#DejaVuSans-73" transform="translate(317.402344 0)"/>
     <use xlink:href="#DejaVuSans-2d" transform="translate(369.501953 0)"/>
     <use xlink:href="#DejaVuSans-32" transform="translate(405.585938 0)"/>
     <use xlink:href="#DejaVuSans-30" transform="translate(469.208984 0)"/>
     <use xlink:href="#DejaVuSans-62" transform="translate(532.832031 0)"/>
    </g>
   </g>
   <g id="legend_1">
    <g id="patch_7">
     <path d="M 498.660114 38.949375 
L 781.396676 38.949375 
Q 784.196676 38.949375 784.196676 36.149375 
L 784.196676 17 
Q 784.196676 14.2 781.396676 14.2 
L 498.660114 14.2 
Q 495.860114 14.2 495.860114 17 
L 495.860114 36.149375 
Q 495.860114 38.949375 498.660114 38.949375 
z
" style="fill: #ffffff; opacity: 0.8; stroke: #cccccc; stroke-linejoin: miter"/>
    </g>
    <g id="line2d_9">
     <path d="M 501.460114 25.537813 
L 515.460114 25.537813 
L 529.460114 25.537813 
" style="fill: none; stroke-dasharray: 7.4,3.2; stroke-dashoffset: 0; stroke: #e74c3c; stroke-opacity: 0.7; stroke-width: 2"/>
    </g>
    <g id="text_26">
     <!-- Trend line (R² = 0.044, p = 0.434) -->
     <g style="fill: #262626" transform="translate(540.660114 30.437813) scale(0.14 -0.14)">
      <defs>
       <path id="DejaVuSans-54" d="M -19 4666 
L 3928 4666 
L 3928 4134 
L 2272 4134 
L 2272 0 
L 1638 0 
L 1638 4134 
L -19 4134 
L -19 4666 
z
" transform="scale(0.015625)"/>
       <path id="DejaVuSans-64" d="M 2906 2969 
L 2906 4863 
L 3481 4863 
L 3481 0 
L 2906 0 
L 2906 525 
Q 2725 213 2448 61 
Q 2172 -91 1784 -91 
Q 1150 -91 751 415 
Q 353 922 353 1747 
Q 353 2572 751 3078 
Q 1150 3584 1784 3584 
Q 2172 3584 2448 3432 
Q 2725 3281 2906 2969 
z
M 947 1747 
Q 947 1113 1208 752 
Q 1469 391 1925 391 
Q 2381 391 2643 752 
Q 2906 1113 2906 1747 
Q 2906 2381 2643 2742 
Q 2381 3103 1925 3103 
Q 1469 3103 1208 2742 
Q 947 2381 947 1747 
z
" transform="scale(0.015625)"/>
       <path id="DejaVuSans-20" transform="scale(0.015625)"/>
       <path id="DejaVuSans-28" d="M 1984 4856 
Q 1566 4138 1362 3434 
Q 1159 2731 1159 2009 
Q 1159 1288 1364 580 
Q 1569 -128 1984 -844 
L 1484 -844 
Q 1016 -109 783 600 
Q 550 1309 550 2009 
Q 550 2706 781 3412 
Q 1013 4119 1484 4856 
L 1984 4856 
z
" transform="scale(0.015625)"/>
       <path id="DejaVuSans-52" d="M 2841 2188 
Q 3044 2119 3236 1894 
Q 3428 1669 3622 1275 
L 4263 0 
L 3584 0 
L 2988 1197 
Q 2756 1666 2539 1819 
Q 2322 1972 1947 1972 
L 1259 1972 
L 1259 0 
L 628 0 
L 628 4666 
L 2053 4666 
Q 2853 4666 3247 4331 
Q 3641 3997 3641 3322 
Q 3641 2881 3436 2590 
Q 3231 2300 2841 2188 
z
M 1259 4147 
L 1259 2491 
L 2053 2491 
Q 2509 2491 2742 2702 
Q 2975 2913 2975 3322 
Q 2975 3731 2742 3939 
Q 2509 4147 2053 4147 
L 1259 4147 
z
" transform="scale(0.015625)"/>
       <path id="DejaVuSans-b2" d="M 838 2444 
L 2163 2444 
L 2163 2088 
L 294 2088 
L 294 2431 
Q 400 2528 597 2703 
Q 1672 3656 1672 3950 
Q 1672 4156 1509 4282 
Q 1347 4409 1081 4409 
Q 919 4409 728 4354 
Q 538 4300 313 4191 
L 313 4575 
Q 553 4663 761 4706 
Q 969 4750 1147 4750 
Q 1600 4750 1872 4544 
Q 2144 4338 2144 4000 
Q 2144 3566 1109 2678 
Q 934 2528 838 2444 
z
" transform="scale(0.015625)"/>
       <path id="DejaVuSans-3d" d="M 678 2906 
L 4684 2906 
L 4684 2381 
L 678 2381 
L 678 2906 
z
M 678 1631 
L 4684 1631 
L 4684 1100 
L 678 1100 
L 678 1631 
z
" transform="scale(0.015625)"/>
       <path id="DejaVuSans-2c" d="M 750 794 
L 1409 794 
L 1409 256 
L 897 -744 
L 494 -744 
L 750 256 
L 750 794 
z
" transform="scale(0.015625)"/>
       <path id="DejaVuSans-29" d="M 513 4856 
L 1013 4856 
Q 1481 4119 1714 3412 
Q 1947 2706 1947 2009 
Q 1947 1309 1714 600 
Q 1481 -109 1013 -844 
L 513 -844 
Q 928 -128 1133 580 
Q 1338 1288 1338 2009 
Q 1338 2731 1133 3434 
Q 928 4138 513 4856 
z
" transform="scale(0.015625)"/>
      </defs>
      <use xlink:href="#DejaVuSans-54"/>
      <use xlink:href="#DejaVuSans-72" transform="translate(46.333984 0)"/>
      <use xlink:href="#DejaVuSans-65" transform="translate(85.197266 0)"/>
      <use xlink:href="#DejaVuSans-6e" transform="translate(146.720703 0)"/>
      <use xlink:href="#DejaVuSans-64" transform="translate(210.099609 0)"/>
      <use xlink:href="#DejaVuSans-20" transform="translate(273.576172 0)"/>
      <use xlink:href="#DejaVuSans-6c" transform="translate(305.363281 0)"/>
      <use xlink:href="#DejaVuSans-69" transform="translate(333.146484 0)"/>
      <use xlink:href="#DejaVuSans-6e" transform="translate(360.929688 0)"/>
      <use xlink:href="#DejaVuSans-65" transform="translate(424.308594 0)"/>
      <use xlink:href="#DejaVuSans-20" transform="translate(485.832031 0)"/>
      <use xlink:href="#DejaVuSans-28" transform="translate(517.619141 0)"/>
      <use xlink:href="#DejaVuSans-52" transform="translate(556.632812 0)"/>
      <use xlink:href="#DejaVuSans-b2" transform="translate(626.115234 0)"/>
      <use xlink:href="#DejaVuSans-20" transform="translate(666.203125 0)"/>
      <use xlink:href="#DejaVuSans-3d" transform="translate(697.990234 0)"/>
      <use xlink:href="#DejaVuSans-20" transform="translate(781.779297 0)"/>
      <use xlink:href="#DejaVuSans-30" transform="translate(813.566406 0)"/>
      <use xlink:href="#DejaVuSans-2e" transform="translate(877.189453 0)"/>
      <use xlink:href="#DejaVuSans-30" transform="translate(908.976562 0)"/>
      <use xlink:href="#DejaVuSans-34" transform="translate(972.599609 0)"/>
      <use xlink:href="#DejaVuSans-34" transform="translate(1036.222656 0)"/>
      <use xlink:href="#DejaVuSans-2c" transform="translate(1099.845703 0)"/>
      <use xlink:href="#DejaVuSans-20" transform="translate(1131.632812 0)"/>
      <use xlink:href="#DejaVuSans-70" transform="translate(1163.419922 0)"/>
      <use xlink:href="#DejaVuSans-20" transform="translate(1226.896484 0)"/>
      <use xlink:href="#DejaVuSans-3d" transform="translate(1258.683594 0)"/>
      <use xlink:href="#DejaVuSans-20" transform="translate(1342.472656 0)"/>
      <use xlink:href="#DejaVuSans-30" transform="translate(1374.259766 0)"/>
      <use xlink:href="#DejaVuSans-2e" transform="translate(1437.882812 0)"/>
      <use xlink:href="#DejaVuSans-34" transform="translate(1469.669922 0)"/>
      <use xlink:href="#DejaVuSans-33" transform="translate(1533.292969 0)"/>
      <use xlink:href="#DejaVuSans-34" transform="translate(1596.916016 0)"/>
      <use xlink:href="#DejaVuSans-29" transform="translate(1660.539062 0)"/>
     </g>
    </g>
   </g>
  </g>
 </g>
 <defs>
  <clipPath id="p012fbefb2a">
   <rect x="46.060313" y="7.2" width="745.136364" height="504.252"/>
  </clipPath>
 </defs>
</svg>
